G04*
G04 #@! TF.GenerationSoftware,Altium Limited,Altium Designer,21.0.9 (235)*
G04*
G04 Layer_Physical_Order=2*
G04 Layer_Color=16711680*
%FSLAX25Y25*%
%MOIN*%
G70*
G04*
G04 #@! TF.SameCoordinates,F72C6517-AC7E-470F-A1BB-FE126D2DAEF1*
G04*
G04*
G04 #@! TF.FilePolarity,Positive*
G04*
G01*
G75*
%ADD11C,0.02362*%
%ADD15C,0.01575*%
%ADD78C,0.03937*%
%ADD80C,0.06299*%
%ADD81R,0.06299X0.06299*%
%ADD82C,0.09449*%
%ADD83R,0.09449X0.09449*%
%ADD84C,0.19685*%
%ADD85C,0.07874*%
%ADD86C,0.12795*%
%ADD87C,0.05118*%
G04:AMPARAMS|DCode=88|XSize=51.18mil|YSize=51.18mil|CornerRadius=12.8mil|HoleSize=0mil|Usage=FLASHONLY|Rotation=180.000|XOffset=0mil|YOffset=0mil|HoleType=Round|Shape=RoundedRectangle|*
%AMROUNDEDRECTD88*
21,1,0.05118,0.02559,0,0,180.0*
21,1,0.02559,0.05118,0,0,180.0*
1,1,0.02559,-0.01280,0.01280*
1,1,0.02559,0.01280,0.01280*
1,1,0.02559,0.01280,-0.01280*
1,1,0.02559,-0.01280,-0.01280*
%
%ADD88ROUNDEDRECTD88*%
%ADD89C,0.23622*%
%ADD90C,0.05906*%
%ADD91C,0.02756*%
%ADD92C,0.00787*%
G04:AMPARAMS|DCode=93|XSize=11.81mil|YSize=19.68mil|CornerRadius=2.95mil|HoleSize=0mil|Usage=FLASHONLY|Rotation=270.000|XOffset=0mil|YOffset=0mil|HoleType=Round|Shape=RoundedRectangle|*
%AMROUNDEDRECTD93*
21,1,0.01181,0.01378,0,0,270.0*
21,1,0.00591,0.01968,0,0,270.0*
1,1,0.00591,-0.00689,-0.00295*
1,1,0.00591,-0.00689,0.00295*
1,1,0.00591,0.00689,0.00295*
1,1,0.00591,0.00689,-0.00295*
%
%ADD93ROUNDEDRECTD93*%
G36*
X275590Y218993D02*
X272788D01*
X272389Y219684D01*
X271416Y220657D01*
X270225Y221345D01*
X268897Y221701D01*
X268799D01*
Y216476D01*
Y211252D01*
X268897D01*
X270225Y211608D01*
X271416Y212296D01*
X272389Y213269D01*
X272788Y213960D01*
X275590D01*
Y210252D01*
X274548Y209210D01*
X265806D01*
X260391Y214625D01*
Y217520D01*
X260391Y217520D01*
X260199Y218483D01*
X259654Y219299D01*
X249811Y229142D01*
X248995Y229688D01*
X248031Y229879D01*
X233482D01*
X232519Y229688D01*
X231702Y229142D01*
X230028Y227468D01*
X228551Y228945D01*
X227735Y229491D01*
X226772Y229682D01*
X220944D01*
X219981Y229491D01*
X219164Y228945D01*
X218406Y228187D01*
X217946Y228433D01*
X218118Y229301D01*
Y230660D01*
X217853Y231992D01*
X217333Y233248D01*
X216578Y234377D01*
X215617Y235338D01*
X214488Y236093D01*
X213232Y236613D01*
X211900Y236878D01*
X210541D01*
X209208Y236613D01*
X207953Y236093D01*
X206823Y235338D01*
X205863Y234377D01*
X205108Y233248D01*
X204588Y231992D01*
X204323Y230660D01*
Y229301D01*
X204588Y227968D01*
X205108Y226713D01*
X205863Y225583D01*
X206823Y224623D01*
X207953Y223868D01*
X209208Y223348D01*
X210541Y223083D01*
X211900D01*
X212768Y223255D01*
X213014Y222795D01*
X212787Y222568D01*
X212242Y221751D01*
X212050Y220788D01*
Y214428D01*
X208800Y211178D01*
X206504D01*
X206370Y211678D01*
X207440Y212296D01*
X208413Y213269D01*
X209101Y214460D01*
X209457Y215789D01*
Y215886D01*
X204232D01*
Y216476D01*
X203642D01*
Y221701D01*
X203544D01*
X202216Y221345D01*
X201024Y220657D01*
X200052Y219684D01*
X199653Y218993D01*
X194048D01*
X193649Y219684D01*
X192676Y220657D01*
X191485Y221345D01*
X190156Y221701D01*
X190059D01*
Y216476D01*
X189469D01*
Y215886D01*
X184244D01*
Y215789D01*
X184600Y214460D01*
X185288Y213269D01*
X186261Y212296D01*
X187330Y211678D01*
X187196Y211178D01*
X182089D01*
X181257Y212010D01*
Y216843D01*
X181257Y216843D01*
X181065Y217806D01*
X180520Y218623D01*
X171379Y227764D01*
X170562Y228309D01*
X169599Y228501D01*
X157461D01*
X156497Y228309D01*
X155681Y227764D01*
X150921Y223004D01*
X150276Y222831D01*
X149578Y222428D01*
X149009Y221859D01*
X148606Y221161D01*
X148398Y220383D01*
Y219578D01*
X148606Y218800D01*
X149009Y218102D01*
X149578Y217532D01*
X150276Y217130D01*
X151054Y216921D01*
X151859D01*
X152637Y217130D01*
X153335Y217532D01*
X153904Y218102D01*
X154307Y218800D01*
X154480Y219444D01*
X156092Y221056D01*
X156540Y220797D01*
X156429Y220383D01*
Y219578D01*
X156638Y218800D01*
X157040Y218102D01*
X157610Y217532D01*
X158307Y217130D01*
X159085Y216921D01*
X159891D01*
X160669Y217130D01*
X161366Y217532D01*
X161936Y218102D01*
X162339Y218800D01*
X162547Y219578D01*
Y220383D01*
X162339Y221161D01*
X161936Y221859D01*
X161366Y222428D01*
X160669Y222831D01*
X160160Y222967D01*
X160226Y223467D01*
X166782D01*
X166848Y222967D01*
X166339Y222831D01*
X165641Y222428D01*
X165072Y221859D01*
X164669Y221161D01*
X164461Y220383D01*
Y219578D01*
X164669Y218800D01*
X165072Y218102D01*
X165641Y217532D01*
X166339Y217130D01*
X167117Y216921D01*
X167922D01*
X168700Y217130D01*
X169398Y217532D01*
X169967Y218102D01*
X170370Y218800D01*
X170579Y219578D01*
Y220383D01*
X170449Y220868D01*
X170897Y221127D01*
X176223Y215801D01*
Y210968D01*
X176415Y210004D01*
X176961Y209188D01*
X178907Y207241D01*
X178700Y206741D01*
X144850D01*
X141493Y210098D01*
Y214489D01*
X143891Y216886D01*
X144705D01*
X145399Y217025D01*
X145988Y217418D01*
X146381Y218006D01*
X146519Y218701D01*
Y221260D01*
X146381Y221954D01*
X145988Y222543D01*
X145399Y222936D01*
X144705Y223074D01*
X142146D01*
X141451Y222936D01*
X140863Y222543D01*
X140469Y221954D01*
X140331Y221260D01*
Y220446D01*
X137197Y217311D01*
X136651Y216495D01*
X136460Y215532D01*
Y209055D01*
X136651Y208092D01*
X137197Y207275D01*
X142027Y202445D01*
X142844Y201899D01*
X143807Y201708D01*
X162008D01*
X162215Y201207D01*
X160819Y199811D01*
X160273Y198995D01*
X160082Y198031D01*
X160273Y197068D01*
X160819Y196252D01*
X161635Y195706D01*
X162598Y195515D01*
X163562Y195706D01*
X164378Y196252D01*
X165397Y197271D01*
X171826D01*
X171980Y196771D01*
X171491Y196039D01*
X171300Y195076D01*
X171491Y194113D01*
X172037Y193297D01*
X172853Y192751D01*
X173816Y192559D01*
X224604D01*
X225567Y192751D01*
X226383Y193297D01*
X235992Y202905D01*
X236538Y203722D01*
X236729Y204685D01*
Y211214D01*
X237063Y211792D01*
X237272Y212570D01*
Y213375D01*
X237063Y214153D01*
X236660Y214851D01*
X236091Y215420D01*
X235393Y215823D01*
X234615Y216032D01*
X233810D01*
X233032Y215823D01*
X232334Y215420D01*
X231765Y214851D01*
X231362Y214153D01*
X231153Y213375D01*
Y212570D01*
X231362Y211792D01*
X231696Y211214D01*
Y205728D01*
X223561Y197593D01*
X215504D01*
X215383Y198093D01*
X225221Y207930D01*
X225766Y208747D01*
X225790Y208865D01*
X226931Y210006D01*
X227362Y210122D01*
X228059Y210525D01*
X228629Y211094D01*
X229032Y211792D01*
X229240Y212570D01*
Y213375D01*
X229032Y214153D01*
X228629Y214851D01*
X228059Y215420D01*
X227362Y215823D01*
X226584Y216032D01*
X225778D01*
X225000Y215823D01*
X224303Y215420D01*
X223733Y214851D01*
X223330Y214153D01*
X223122Y213375D01*
Y213316D01*
X222021Y212215D01*
X221521Y212422D01*
Y215776D01*
X222631Y216886D01*
X223445D01*
X224139Y217025D01*
X224728Y217418D01*
X225121Y218006D01*
X225259Y218701D01*
Y221260D01*
X225121Y221954D01*
X224728Y222543D01*
X224139Y222936D01*
X223445Y223074D01*
X221119D01*
X220912Y223574D01*
X221987Y224648D01*
X225729D01*
X228134Y222244D01*
X227749Y221859D01*
X227346Y221161D01*
X227138Y220383D01*
Y219578D01*
X227346Y218800D01*
X227749Y218102D01*
X228319Y217532D01*
X229016Y217130D01*
X229794Y216921D01*
X230600D01*
X231378Y217130D01*
X232075Y217532D01*
X232645Y218102D01*
X233047Y218800D01*
X233256Y219578D01*
Y220383D01*
X233047Y221161D01*
X232645Y221859D01*
X232091Y222412D01*
X234524Y224845D01*
X246989D01*
X255357Y216477D01*
Y213583D01*
X255549Y212619D01*
X256094Y211803D01*
X262984Y204913D01*
X263801Y204368D01*
X264764Y204176D01*
X275590D01*
X275590Y204176D01*
Y188976D01*
X259914D01*
X259597Y189363D01*
X259604Y189394D01*
Y204331D01*
X259412Y205294D01*
X258866Y206110D01*
X258050Y206656D01*
X257087Y206848D01*
X256123Y206656D01*
X255307Y206110D01*
X254761Y205294D01*
X254570Y204331D01*
Y190437D01*
X253411Y189278D01*
X252911Y189485D01*
Y199213D01*
Y211418D01*
X253126Y211792D01*
X253335Y212570D01*
Y213375D01*
X253126Y214153D01*
X252723Y214851D01*
X252154Y215420D01*
X251456Y215823D01*
X250678Y216032D01*
X249873D01*
X249095Y215823D01*
X248397Y215420D01*
X247828Y214851D01*
X247425Y214153D01*
X247217Y213375D01*
Y212570D01*
X247425Y211792D01*
X247828Y211094D01*
X247877Y211045D01*
Y199213D01*
Y190019D01*
X246834Y188976D01*
X118110D01*
Y240158D01*
X275590D01*
Y218993D01*
D02*
G37*
G36*
X341539Y239657D02*
X340004Y238876D01*
X338437Y237737D01*
X337066Y236367D01*
X335927Y234799D01*
X335048Y233072D01*
X334449Y231229D01*
X334146Y229315D01*
Y227378D01*
X334449Y225464D01*
X335048Y223621D01*
X335927Y221894D01*
X337066Y220326D01*
X338437Y218956D01*
X340004Y217817D01*
X341731Y216937D01*
X343574Y216339D01*
X345488Y216035D01*
X347426D01*
X349340Y216339D01*
X351183Y216937D01*
X352909Y217817D01*
X354477Y218956D01*
X355847Y220326D01*
X356986Y221894D01*
X357768Y223428D01*
X358268Y223308D01*
Y220472D01*
X358310Y219185D01*
X358646Y216632D01*
X359312Y214145D01*
X360298Y211766D01*
X361585Y209536D01*
X363153Y207493D01*
X364973Y205672D01*
X367016Y204105D01*
X369246Y202818D01*
X371625Y201832D01*
X374112Y201166D01*
X376665Y200830D01*
X377953Y200787D01*
X390539D01*
X392060Y200485D01*
X393494Y199891D01*
X394783Y199030D01*
X395880Y197933D01*
X396742Y196643D01*
X397335Y195210D01*
X397638Y193689D01*
Y192913D01*
Y47244D01*
Y46469D01*
X397335Y44947D01*
X396742Y43514D01*
X395880Y42225D01*
X394783Y41128D01*
X393494Y40266D01*
X392060Y39673D01*
X390539Y39370D01*
X377953D01*
X376665Y39328D01*
X374112Y38992D01*
X371625Y38325D01*
X369246Y37340D01*
X367016Y36053D01*
X364973Y34485D01*
X363153Y32664D01*
X361585Y30621D01*
X360298Y28392D01*
X359312Y26013D01*
X358646Y23525D01*
X358310Y20973D01*
X358268Y19685D01*
Y16849D01*
X357768Y16729D01*
X356986Y18263D01*
X355847Y19831D01*
X354477Y21201D01*
X352909Y22340D01*
X351183Y23220D01*
X349340Y23819D01*
X347426Y24122D01*
X345488D01*
X343574Y23819D01*
X341731Y23220D01*
X340004Y22340D01*
X338437Y21201D01*
X337066Y19831D01*
X335927Y18263D01*
X335048Y16537D01*
X334449Y14694D01*
X334146Y12780D01*
Y10842D01*
X334449Y8928D01*
X335048Y7085D01*
X335927Y5359D01*
X337066Y3791D01*
X338437Y2421D01*
X340004Y1282D01*
X341539Y500D01*
X341418Y0D01*
X56219D01*
X56099Y500D01*
X57634Y1282D01*
X59201Y2421D01*
X60571Y3791D01*
X61710Y5359D01*
X62590Y7085D01*
X63189Y8928D01*
X63492Y10842D01*
Y12780D01*
X63189Y14694D01*
X62590Y16537D01*
X61710Y18263D01*
X60571Y19831D01*
X59201Y21201D01*
X57634Y22340D01*
X55907Y23220D01*
X54064Y23819D01*
X52150Y24122D01*
X50212D01*
X48298Y23819D01*
X46455Y23220D01*
X44729Y22340D01*
X43161Y21201D01*
X41791Y19831D01*
X40652Y18263D01*
X39870Y16729D01*
X39370Y16849D01*
Y19685D01*
X39328Y20973D01*
X38992Y23525D01*
X38325Y26013D01*
X37340Y28392D01*
X36053Y30621D01*
X34485Y32664D01*
X32664Y34485D01*
X30621Y36053D01*
X28392Y37340D01*
X26013Y38325D01*
X23525Y38992D01*
X20973Y39328D01*
X19685Y39370D01*
X7098D01*
X5577Y39673D01*
X4144Y40266D01*
X2855Y41128D01*
X1758Y42225D01*
X896Y43514D01*
X303Y44947D01*
X0Y46469D01*
Y47244D01*
X0Y47244D01*
Y192913D01*
X0Y193689D01*
X303Y195210D01*
X896Y196643D01*
X1758Y197933D01*
X2855Y199030D01*
X4144Y199891D01*
X5577Y200485D01*
X7098Y200787D01*
X19685D01*
X20973Y200830D01*
X23525Y201166D01*
X26013Y201832D01*
X28392Y202818D01*
X30621Y204105D01*
X32664Y205672D01*
X34485Y207493D01*
X36053Y209536D01*
X37340Y211766D01*
X38325Y214145D01*
X38992Y216632D01*
X39328Y219185D01*
X39370Y220472D01*
Y223308D01*
X39870Y223428D01*
X40652Y221894D01*
X41791Y220326D01*
X43161Y218956D01*
X44729Y217817D01*
X46455Y216937D01*
X48298Y216339D01*
X50212Y216035D01*
X52150D01*
X54064Y216339D01*
X55907Y216937D01*
X57634Y217817D01*
X59201Y218956D01*
X60571Y220326D01*
X61710Y221894D01*
X62590Y223621D01*
X63189Y225464D01*
X63492Y227378D01*
Y229315D01*
X63189Y231229D01*
X62590Y233072D01*
X61710Y234799D01*
X60571Y236367D01*
X59201Y237737D01*
X57634Y238876D01*
X56099Y239657D01*
X56219Y240158D01*
X117569D01*
Y188976D01*
X117727Y188594D01*
X118110Y188435D01*
X245640D01*
X245831Y187973D01*
X237540Y179682D01*
X185827D01*
X184864Y179491D01*
X184047Y178945D01*
X183502Y178129D01*
X183310Y177165D01*
X183502Y176202D01*
X184047Y175386D01*
X184864Y174840D01*
X185827Y174648D01*
X186917D01*
X187125Y174148D01*
X184047Y171071D01*
X183502Y170255D01*
X183310Y169291D01*
X183502Y168328D01*
X184047Y167512D01*
X184864Y166966D01*
X185827Y166774D01*
X186790Y166966D01*
X187607Y167512D01*
X190306Y170212D01*
X240421D01*
X241384Y170403D01*
X242200Y170949D01*
X258866Y187615D01*
X259263Y188209D01*
X259419Y188431D01*
X259861Y188438D01*
X259872Y188441D01*
X259914Y188435D01*
X275590D01*
X275973Y188594D01*
X276132Y188976D01*
Y204176D01*
X276554Y204368D01*
X277370Y204913D01*
X293365Y220908D01*
X318839D01*
X321463Y218285D01*
X321271Y217823D01*
X311862D01*
Y207374D01*
X322311D01*
Y216783D01*
X322773Y216975D01*
X323271Y216477D01*
Y191003D01*
X321055Y188788D01*
X320509Y187971D01*
X320318Y187008D01*
X320509Y186045D01*
X321055Y185228D01*
X321121Y185184D01*
Y181089D01*
X321112Y181078D01*
X320987Y180971D01*
X320621Y180803D01*
X320480Y180855D01*
X320373Y180852D01*
X320272Y180889D01*
X319999Y180880D01*
X319901Y180836D01*
X319794Y180832D01*
X319544Y180719D01*
X319471Y180641D01*
X319373Y180596D01*
X319280Y180497D01*
X319280Y180497D01*
X318846Y180034D01*
X318818Y179959D01*
X318757Y179906D01*
X318192Y178772D01*
X318186Y178691D01*
X318143Y178623D01*
X317926Y177375D01*
X317944Y177296D01*
X317922Y177218D01*
X318072Y175960D01*
X318111Y175890D01*
X318113Y175809D01*
X318616Y174647D01*
X318674Y174591D01*
X318699Y174514D01*
X319514Y173544D01*
X319586Y173507D01*
X319632Y173440D01*
X320690Y172745D01*
X320770Y172730D01*
X320832Y172679D01*
X321490Y172482D01*
X321572Y172360D01*
X321835Y172184D01*
X322146Y172122D01*
X322244D01*
Y172835D01*
X322201D01*
X320988Y173197D01*
X319929Y173893D01*
X319113Y174862D01*
X318609Y176024D01*
X318459Y177282D01*
X318676Y178530D01*
X319241Y179664D01*
X319674Y180126D01*
X319768Y180226D01*
X320017Y180339D01*
X320291Y180349D01*
X320547Y180253D01*
X320747Y180066D01*
X320861Y179817D01*
X320871Y179543D01*
X320775Y179287D01*
X320682Y179187D01*
X320412Y178854D01*
X320030Y178089D01*
X319883Y177246D01*
X319984Y176397D01*
X320323Y175613D01*
X320873Y174958D01*
X321588Y174489D01*
X322407Y174244D01*
X323262D01*
X324081Y174489D01*
X324796Y174958D01*
X325346Y175613D01*
X325686Y176397D01*
X325786Y177246D01*
X325639Y178089D01*
X325257Y178854D01*
X324987Y179187D01*
X324894Y179287D01*
X324799Y179543D01*
X324809Y179817D01*
X324922Y180066D01*
X325122Y180253D01*
X325379Y180349D01*
X325652Y180339D01*
X325901Y180226D01*
X325995Y180126D01*
X326428Y179664D01*
X326993Y178530D01*
X327210Y177282D01*
X327060Y176024D01*
X326556Y174862D01*
X325741Y173893D01*
X324682Y173197D01*
X323468Y172835D01*
X323425D01*
Y172122D01*
X323524D01*
X323834Y172184D01*
X324097Y172360D01*
X324179Y172482D01*
X324837Y172679D01*
X324899Y172730D01*
X324979Y172745D01*
X326038Y173440D01*
X326083Y173507D01*
X326155Y173544D01*
X326971Y174514D01*
X326995Y174591D01*
X327053Y174647D01*
X327557Y175809D01*
X327558Y175890D01*
X327597Y175960D01*
X327747Y177218D01*
X327725Y177296D01*
X327743Y177375D01*
X327526Y178623D01*
X327483Y178691D01*
X327478Y178772D01*
X326912Y179906D01*
X326851Y179959D01*
X326823Y180034D01*
X326390Y180496D01*
X326296Y180596D01*
X326198Y180641D01*
X326125Y180719D01*
X325876Y180832D01*
X325768Y180836D01*
X325670Y180880D01*
X325397Y180889D01*
X325296Y180852D01*
X325189Y180855D01*
X325049Y180803D01*
X324683Y180971D01*
X324557Y181078D01*
X324549Y181089D01*
Y185184D01*
X324614Y185228D01*
X327567Y188181D01*
X328113Y188997D01*
X328304Y189961D01*
Y196957D01*
X328804Y197164D01*
X340740Y185228D01*
X340806Y185184D01*
Y181089D01*
X340797Y181078D01*
X340672Y180971D01*
X340305Y180803D01*
X340165Y180855D01*
X340058Y180852D01*
X339957Y180889D01*
X339684Y180880D01*
X339586Y180836D01*
X339479Y180832D01*
X339229Y180719D01*
X339156Y180641D01*
X339058Y180596D01*
X338965Y180497D01*
X338965Y180497D01*
X338531Y180034D01*
X338503Y179959D01*
X338442Y179906D01*
X337877Y178772D01*
X337871Y178691D01*
X337828Y178623D01*
X337611Y177375D01*
X337629Y177296D01*
X337607Y177218D01*
X337757Y175960D01*
X337796Y175890D01*
X337798Y175809D01*
X338301Y174647D01*
X338359Y174591D01*
X338384Y174514D01*
X339199Y173544D01*
X339271Y173507D01*
X339317Y173440D01*
X340375Y172745D01*
X340455Y172730D01*
X340517Y172679D01*
X341176Y172482D01*
X341257Y172360D01*
X341520Y172184D01*
X341831Y172122D01*
X341929D01*
Y172835D01*
X341886D01*
X340672Y173197D01*
X339614Y173893D01*
X338798Y174862D01*
X338294Y176024D01*
X338144Y177282D01*
X338361Y178530D01*
X338926Y179664D01*
X339359Y180126D01*
X339453Y180226D01*
X339702Y180339D01*
X339976Y180349D01*
X340232Y180253D01*
X340432Y180066D01*
X340546Y179817D01*
X340556Y179543D01*
X340460Y179287D01*
X340367Y179187D01*
X340097Y178854D01*
X339715Y178089D01*
X339568Y177246D01*
X339668Y176397D01*
X340008Y175613D01*
X340558Y174958D01*
X341273Y174489D01*
X342092Y174244D01*
X342947D01*
X343766Y174489D01*
X344481Y174958D01*
X345031Y175613D01*
X345371Y176397D01*
X345471Y177246D01*
X345324Y178089D01*
X344942Y178854D01*
X344672Y179187D01*
X344579Y179287D01*
X344484Y179543D01*
X344494Y179817D01*
X344607Y180066D01*
X344807Y180253D01*
X345064Y180349D01*
X345337Y180339D01*
X345586Y180226D01*
X345680Y180126D01*
X346113Y179664D01*
X346678Y178530D01*
X346895Y177282D01*
X346745Y176024D01*
X346241Y174862D01*
X345426Y173893D01*
X344367Y173197D01*
X343153Y172835D01*
X343110D01*
Y172122D01*
X343209D01*
X343519Y172184D01*
X343782Y172360D01*
X343864Y172482D01*
X344522Y172679D01*
X344584Y172730D01*
X344664Y172745D01*
X345723Y173440D01*
X345768Y173507D01*
X345840Y173544D01*
X346656Y174514D01*
X346680Y174591D01*
X346738Y174647D01*
X347242Y175809D01*
X347243Y175890D01*
X347283Y175960D01*
X347432Y177218D01*
X347410Y177296D01*
X347428Y177375D01*
X347211Y178623D01*
X347168Y178691D01*
X347163Y178772D01*
X346597Y179906D01*
X346536Y179959D01*
X346508Y180034D01*
X346075Y180496D01*
X345981Y180596D01*
X345883Y180641D01*
X345810Y180719D01*
X345561Y180832D01*
X345453Y180836D01*
X345355Y180880D01*
X345082Y180889D01*
X344981Y180852D01*
X344874Y180855D01*
X344734Y180803D01*
X344368Y180971D01*
X344242Y181077D01*
X344234Y181089D01*
Y185184D01*
X344299Y185228D01*
X344845Y186045D01*
X345037Y187008D01*
X344845Y187971D01*
X344299Y188788D01*
X332741Y200346D01*
Y219357D01*
X332550Y220321D01*
X332004Y221137D01*
X323499Y229642D01*
X322683Y230188D01*
X321720Y230379D01*
X290485D01*
X289522Y230188D01*
X288705Y229642D01*
X278057Y218993D01*
X276132D01*
Y240158D01*
X341418D01*
X341539Y239657D01*
D02*
G37*
G36*
X343077Y181354D02*
X343354Y181078D01*
X343504Y180716D01*
Y180520D01*
X343504D01*
Y178870D01*
X343882Y178652D01*
X344383Y177937D01*
X344534Y177077D01*
X344308Y176234D01*
X343747Y175566D01*
X342956Y175197D01*
X342083D01*
X341292Y175566D01*
X340731Y176234D01*
X340505Y177077D01*
X340657Y177937D01*
X341158Y178652D01*
X341535Y178870D01*
X341535Y180520D01*
Y180716D01*
X341685Y181078D01*
X341962Y181354D01*
X342324Y181504D01*
X342715D01*
X343077Y181354D01*
D02*
G37*
G36*
X323392D02*
X323669Y181078D01*
X323819Y180716D01*
Y180520D01*
X323819D01*
Y178870D01*
X324197Y178652D01*
X324697Y177937D01*
X324849Y177077D01*
X324623Y176234D01*
X324062Y175566D01*
X323271Y175197D01*
X322398D01*
X321607Y175566D01*
X321046Y176234D01*
X320820Y177077D01*
X320972Y177937D01*
X321473Y178652D01*
X321850Y178870D01*
X321850Y180520D01*
Y180716D01*
X322000Y181078D01*
X322277Y181354D01*
X322639Y181504D01*
X323030D01*
X323392Y181354D01*
D02*
G37*
%LPC*%
G36*
X261900Y236878D02*
X260541D01*
X259208Y236613D01*
X257953Y236093D01*
X256823Y235338D01*
X255863Y234377D01*
X255108Y233248D01*
X254588Y231992D01*
X254323Y230660D01*
Y229301D01*
X254588Y227968D01*
X255108Y226713D01*
X255863Y225583D01*
X256823Y224623D01*
X257953Y223868D01*
X259208Y223348D01*
X260541Y223083D01*
X261900D01*
X263232Y223348D01*
X264488Y223868D01*
X265617Y224623D01*
X266578Y225583D01*
X267333Y226713D01*
X267853Y227968D01*
X268118Y229301D01*
Y230660D01*
X267853Y231992D01*
X267333Y233248D01*
X266578Y234377D01*
X265617Y235338D01*
X264488Y236093D01*
X263232Y236613D01*
X261900Y236878D01*
D02*
G37*
G36*
X183160D02*
X181801D01*
X180468Y236613D01*
X179213Y236093D01*
X178083Y235338D01*
X177123Y234377D01*
X176368Y233248D01*
X175848Y231992D01*
X175583Y230660D01*
Y229301D01*
X175848Y227968D01*
X176368Y226713D01*
X177123Y225583D01*
X178083Y224623D01*
X179213Y223868D01*
X180468Y223348D01*
X181801Y223083D01*
X183160D01*
X184492Y223348D01*
X185748Y223868D01*
X186877Y224623D01*
X187838Y225583D01*
X188593Y226713D01*
X189113Y227968D01*
X189378Y229301D01*
Y230660D01*
X189113Y231992D01*
X188593Y233248D01*
X187838Y234377D01*
X186877Y235338D01*
X185748Y236093D01*
X184492Y236613D01*
X183160Y236878D01*
D02*
G37*
G36*
X133160D02*
X131801D01*
X130468Y236613D01*
X129213Y236093D01*
X128083Y235338D01*
X127123Y234377D01*
X126368Y233248D01*
X125848Y231992D01*
X125583Y230660D01*
Y229301D01*
X125848Y227968D01*
X126368Y226713D01*
X127123Y225583D01*
X128083Y224623D01*
X129213Y223868D01*
X130468Y223348D01*
X131801Y223083D01*
X133160D01*
X134492Y223348D01*
X135748Y223868D01*
X136877Y224623D01*
X137838Y225583D01*
X138593Y226713D01*
X139113Y227968D01*
X139378Y229301D01*
Y230660D01*
X139113Y231992D01*
X138593Y233248D01*
X137838Y234377D01*
X136877Y235338D01*
X135748Y236093D01*
X134492Y236613D01*
X133160Y236878D01*
D02*
G37*
G36*
X204920Y221701D02*
X204823D01*
Y217067D01*
X209457D01*
Y217164D01*
X209101Y218493D01*
X208413Y219684D01*
X207440Y220657D01*
X206249Y221345D01*
X204920Y221701D01*
D02*
G37*
G36*
X126180D02*
X126083D01*
Y217067D01*
X130717D01*
Y217164D01*
X130360Y218493D01*
X129673Y219684D01*
X128700Y220657D01*
X127509Y221345D01*
X126180Y221701D01*
D02*
G37*
G36*
X267618D02*
X267521D01*
X266192Y221345D01*
X265001Y220657D01*
X264028Y219684D01*
X263340Y218493D01*
X262984Y217164D01*
Y217067D01*
X267618D01*
Y221701D01*
D02*
G37*
G36*
X188878D02*
X188781D01*
X187452Y221345D01*
X186261Y220657D01*
X185288Y219684D01*
X184600Y218493D01*
X184244Y217164D01*
Y217067D01*
X188878D01*
Y221701D01*
D02*
G37*
G36*
X124902D02*
X124804D01*
X123476Y221345D01*
X122284Y220657D01*
X121312Y219684D01*
X120624Y218493D01*
X120268Y217164D01*
Y217067D01*
X124902D01*
Y221701D01*
D02*
G37*
G36*
X246663Y223039D02*
X245857D01*
X245079Y222831D01*
X244381Y222428D01*
X243812Y221859D01*
X243409Y221161D01*
X243201Y220383D01*
Y219578D01*
X243409Y218800D01*
X243812Y218102D01*
X244381Y217532D01*
X245079Y217130D01*
X245857Y216921D01*
X246663D01*
X247441Y217130D01*
X248138Y217532D01*
X248708Y218102D01*
X249110Y218800D01*
X249319Y219578D01*
Y220383D01*
X249110Y221161D01*
X248708Y221859D01*
X248138Y222428D01*
X247441Y222831D01*
X246663Y223039D01*
D02*
G37*
G36*
X238631D02*
X237826D01*
X237048Y222831D01*
X236350Y222428D01*
X235781Y221859D01*
X235378Y221161D01*
X235169Y220383D01*
Y219578D01*
X235378Y218800D01*
X235781Y218102D01*
X236350Y217532D01*
X237048Y217130D01*
X237826Y216921D01*
X238631D01*
X239409Y217130D01*
X240107Y217532D01*
X240676Y218102D01*
X241079Y218800D01*
X241287Y219578D01*
Y220383D01*
X241079Y221161D01*
X240676Y221859D01*
X240107Y222428D01*
X239409Y222831D01*
X238631Y223039D01*
D02*
G37*
G36*
X267618Y215886D02*
X262984D01*
Y215789D01*
X263340Y214460D01*
X264028Y213269D01*
X265001Y212296D01*
X266192Y211608D01*
X267521Y211252D01*
X267618D01*
Y215886D01*
D02*
G37*
G36*
X130717D02*
X126083D01*
Y211252D01*
X126180D01*
X127509Y211608D01*
X128700Y212296D01*
X129673Y213269D01*
X130360Y214460D01*
X130717Y215789D01*
Y215886D01*
D02*
G37*
G36*
X124902D02*
X120268D01*
Y215789D01*
X120624Y214460D01*
X121312Y213269D01*
X122284Y212296D01*
X123476Y211608D01*
X124804Y211252D01*
X124902D01*
Y215886D01*
D02*
G37*
G36*
X171938Y216032D02*
X171133D01*
X170355Y215823D01*
X169657Y215420D01*
X169088Y214851D01*
X168685Y214153D01*
X168476Y213375D01*
Y212570D01*
X168685Y211792D01*
X169088Y211094D01*
X169657Y210525D01*
X170355Y210122D01*
X171133Y209913D01*
X171938D01*
X172716Y210122D01*
X173414Y210525D01*
X173983Y211094D01*
X174386Y211792D01*
X174594Y212570D01*
Y213375D01*
X174386Y214153D01*
X173983Y214851D01*
X173414Y215420D01*
X172716Y215823D01*
X171938Y216032D01*
D02*
G37*
G36*
X163907D02*
X163101D01*
X162323Y215823D01*
X161626Y215420D01*
X161056Y214851D01*
X160653Y214153D01*
X160445Y213375D01*
Y212570D01*
X160653Y211792D01*
X161056Y211094D01*
X161626Y210525D01*
X162323Y210122D01*
X163101Y209913D01*
X163907D01*
X164685Y210122D01*
X165382Y210525D01*
X165952Y211094D01*
X166355Y211792D01*
X166563Y212570D01*
Y213375D01*
X166355Y214153D01*
X165952Y214851D01*
X165382Y215420D01*
X164685Y215823D01*
X163907Y216032D01*
D02*
G37*
G36*
X155875D02*
X155070D01*
X154292Y215823D01*
X153594Y215420D01*
X153025Y214851D01*
X152622Y214153D01*
X152413Y213375D01*
Y212570D01*
X152622Y211792D01*
X153025Y211094D01*
X153594Y210525D01*
X154292Y210122D01*
X155070Y209913D01*
X155875D01*
X156653Y210122D01*
X157351Y210525D01*
X157920Y211094D01*
X158323Y211792D01*
X158531Y212570D01*
Y213375D01*
X158323Y214153D01*
X157920Y214851D01*
X157351Y215420D01*
X156653Y215823D01*
X155875Y216032D01*
D02*
G37*
G36*
X147844D02*
X147038D01*
X146260Y215823D01*
X145563Y215420D01*
X144993Y214851D01*
X144590Y214153D01*
X144382Y213375D01*
Y212570D01*
X144590Y211792D01*
X144993Y211094D01*
X145563Y210525D01*
X146260Y210122D01*
X147038Y209913D01*
X147844D01*
X148622Y210122D01*
X149319Y210525D01*
X149889Y211094D01*
X150292Y211792D01*
X150500Y212570D01*
Y213375D01*
X150292Y214153D01*
X149889Y214851D01*
X149319Y215420D01*
X148622Y215823D01*
X147844Y216032D01*
D02*
G37*
G36*
X242647D02*
X241841D01*
X241063Y215823D01*
X240366Y215420D01*
X239796Y214851D01*
X239393Y214153D01*
X239185Y213375D01*
Y212570D01*
X239393Y211792D01*
X239609Y211418D01*
Y194882D01*
X239801Y193919D01*
X240346Y193102D01*
X241163Y192557D01*
X242126Y192365D01*
X243089Y192557D01*
X243906Y193102D01*
X244451Y193919D01*
X244643Y194882D01*
Y211045D01*
X244692Y211094D01*
X245095Y211792D01*
X245303Y212570D01*
Y213375D01*
X245095Y214153D01*
X244692Y214851D01*
X244122Y215420D01*
X243425Y215823D01*
X242647Y216032D01*
D02*
G37*
G36*
X297774Y217823D02*
X297677D01*
Y213189D01*
X302311D01*
Y213286D01*
X301955Y214615D01*
X301267Y215806D01*
X300294Y216779D01*
X299103Y217467D01*
X297774Y217823D01*
D02*
G37*
G36*
X296496D02*
X296399D01*
X295070Y217467D01*
X293879Y216779D01*
X292906Y215806D01*
X292218Y214615D01*
X291862Y213286D01*
Y213189D01*
X296496D01*
Y217823D01*
D02*
G37*
G36*
X302311Y212008D02*
X297677D01*
Y207374D01*
X297774D01*
X299103Y207730D01*
X300294Y208418D01*
X301267Y209391D01*
X301955Y210582D01*
X302311Y211911D01*
Y212008D01*
D02*
G37*
G36*
X296496D02*
X291862D01*
Y211911D01*
X292218Y210582D01*
X292906Y209391D01*
X293879Y208418D01*
X295070Y207730D01*
X296399Y207374D01*
X296496D01*
Y212008D01*
D02*
G37*
G36*
X70709Y195380D02*
Y191535D01*
X74553D01*
X74253Y192657D01*
X73669Y193669D01*
X72843Y194495D01*
X71831Y195080D01*
X70709Y195380D01*
D02*
G37*
G36*
X69528Y195380D02*
X68405Y195080D01*
X67394Y194495D01*
X66568Y193669D01*
X65983Y192657D01*
X65683Y191535D01*
X69528D01*
Y195380D01*
D02*
G37*
G36*
Y190354D02*
X65683D01*
X65983Y189232D01*
X66568Y188221D01*
X67394Y187394D01*
X68405Y186810D01*
X69528Y186510D01*
Y190354D01*
D02*
G37*
G36*
X74553D02*
X70709D01*
Y186510D01*
X71831Y186810D01*
X72843Y187394D01*
X73669Y188221D01*
X74253Y189232D01*
X74553Y190354D01*
D02*
G37*
G36*
X60702Y195382D02*
X59534D01*
X58406Y195080D01*
X57394Y194495D01*
X56568Y193669D01*
X55984Y192657D01*
X55681Y191529D01*
Y190361D01*
X55984Y189232D01*
X56568Y188221D01*
X57394Y187394D01*
X58406Y186810D01*
X59534Y186508D01*
X60702D01*
X61831Y186810D01*
X62843Y187394D01*
X63669Y188221D01*
X64253Y189232D01*
X64555Y190361D01*
Y191529D01*
X64253Y192657D01*
X63669Y193669D01*
X62843Y194495D01*
X61831Y195080D01*
X60702Y195382D01*
D02*
G37*
G36*
X50702D02*
X49534D01*
X48406Y195080D01*
X47394Y194495D01*
X46568Y193669D01*
X45983Y192657D01*
X45681Y191529D01*
Y190361D01*
X45983Y189232D01*
X46568Y188221D01*
X47394Y187394D01*
X48406Y186810D01*
X49534Y186508D01*
X50702D01*
X51831Y186810D01*
X52842Y187394D01*
X53669Y188221D01*
X54253Y189232D01*
X54555Y190361D01*
Y191529D01*
X54253Y192657D01*
X53669Y193669D01*
X52842Y194495D01*
X51831Y195080D01*
X50702Y195382D01*
D02*
G37*
G36*
X40702D02*
X39534D01*
X38405Y195080D01*
X37394Y194495D01*
X36568Y193669D01*
X35983Y192657D01*
X35681Y191529D01*
Y190361D01*
X35983Y189232D01*
X36568Y188221D01*
X37394Y187394D01*
X38405Y186810D01*
X39534Y186508D01*
X40702D01*
X41831Y186810D01*
X42843Y187394D01*
X43669Y188221D01*
X44253Y189232D01*
X44555Y190361D01*
Y191529D01*
X44253Y192657D01*
X43669Y193669D01*
X42843Y194495D01*
X41831Y195080D01*
X40702Y195382D01*
D02*
G37*
G36*
X298228Y197399D02*
X297265Y197207D01*
X296449Y196662D01*
X295903Y195845D01*
X295711Y194882D01*
Y189961D01*
X295903Y188997D01*
X296449Y188181D01*
X301370Y183260D01*
X301436Y183216D01*
Y181089D01*
X301427Y181078D01*
X301302Y180971D01*
X300936Y180803D01*
X300795Y180855D01*
X300688Y180852D01*
X300587Y180889D01*
X300314Y180880D01*
X300216Y180836D01*
X300109Y180832D01*
X299859Y180719D01*
X299786Y180641D01*
X299688Y180596D01*
X299594Y180497D01*
X299594Y180497D01*
X299161Y180034D01*
X299133Y179959D01*
X299072Y179906D01*
X298507Y178772D01*
X298501Y178691D01*
X298458Y178623D01*
X298241Y177375D01*
X298259Y177296D01*
X298237Y177218D01*
X298387Y175960D01*
X298426Y175890D01*
X298428Y175809D01*
X298931Y174647D01*
X298989Y174591D01*
X299014Y174514D01*
X299829Y173544D01*
X299901Y173507D01*
X299946Y173440D01*
X301006Y172745D01*
X301085Y172730D01*
X301148Y172679D01*
X301436Y172593D01*
Y162974D01*
X301272Y162578D01*
Y161831D01*
X301558Y161141D01*
X302086Y160613D01*
X302776Y160327D01*
X303523D01*
X304213Y160613D01*
X304742Y161141D01*
X305028Y161831D01*
Y162578D01*
X304864Y162974D01*
Y172593D01*
X305152Y172679D01*
X305214Y172730D01*
X305294Y172745D01*
X306353Y173440D01*
X306398Y173507D01*
X306470Y173544D01*
X307285Y174514D01*
X307310Y174591D01*
X307368Y174647D01*
X307872Y175809D01*
X307873Y175890D01*
X307912Y175960D01*
X308062Y177218D01*
X308040Y177296D01*
X308058Y177375D01*
X307841Y178623D01*
X307798Y178691D01*
X307792Y178772D01*
X307227Y179906D01*
X307166Y179959D01*
X307138Y180034D01*
X306705Y180496D01*
X306611Y180596D01*
X306513Y180641D01*
X306440Y180719D01*
X306191Y180832D01*
X306083Y180836D01*
X305985Y180880D01*
X305712Y180889D01*
X305611Y180852D01*
X305504Y180855D01*
X305364Y180803D01*
X304998Y180971D01*
X304872Y181078D01*
X304864Y181089D01*
Y183216D01*
X304929Y183260D01*
X305475Y184076D01*
X305666Y185039D01*
X305475Y186003D01*
X304929Y186819D01*
X300745Y191003D01*
Y194882D01*
X300554Y195845D01*
X300008Y196662D01*
X299191Y197207D01*
X298228Y197399D01*
D02*
G37*
G36*
X95302Y195382D02*
X93674D01*
X92066Y195127D01*
X90518Y194624D01*
X89068Y193885D01*
X87751Y192928D01*
X86599Y191777D01*
X85642Y190460D01*
X84903Y189009D01*
X84400Y187461D01*
X84146Y185853D01*
Y184225D01*
X84400Y182617D01*
X84903Y181069D01*
X85642Y179619D01*
X86599Y178302D01*
X87751Y177150D01*
X89068Y176194D01*
X90518Y175455D01*
X92066Y174952D01*
X93674Y174697D01*
X95302D01*
X96910Y174952D01*
X98458Y175455D01*
X99909Y176194D01*
X101226Y177150D01*
X102377Y178302D01*
X103334Y179619D01*
X104073Y181069D01*
X104576Y182617D01*
X104831Y184225D01*
Y185853D01*
X104576Y187461D01*
X104073Y189009D01*
X103334Y190460D01*
X102377Y191777D01*
X101226Y192928D01*
X99909Y193885D01*
X98458Y194624D01*
X96910Y195127D01*
X95302Y195382D01*
D02*
G37*
G36*
X16562D02*
X14934D01*
X13326Y195127D01*
X11778Y194624D01*
X10327Y193885D01*
X9010Y192928D01*
X7859Y191777D01*
X6902Y190460D01*
X6163Y189009D01*
X5660Y187461D01*
X5406Y185853D01*
Y184225D01*
X5660Y182617D01*
X6163Y181069D01*
X6902Y179619D01*
X7859Y178302D01*
X9010Y177150D01*
X10327Y176194D01*
X11778Y175455D01*
X13326Y174952D01*
X14934Y174697D01*
X16562D01*
X18170Y174952D01*
X19718Y175455D01*
X21169Y176194D01*
X22486Y177150D01*
X23637Y178302D01*
X24594Y179619D01*
X25333Y181069D01*
X25836Y182617D01*
X26091Y184225D01*
Y185853D01*
X25836Y187461D01*
X25333Y189009D01*
X24594Y190460D01*
X23637Y191777D01*
X22486Y192928D01*
X21169Y193885D01*
X19718Y194624D01*
X18170Y195127D01*
X16562Y195382D01*
D02*
G37*
G36*
X249980Y153453D02*
X249233D01*
X248542Y153167D01*
X248014Y152639D01*
X247728Y151948D01*
Y151201D01*
X248014Y150511D01*
X248542Y149983D01*
X249233Y149697D01*
X249980D01*
X250165Y149773D01*
X259227Y140711D01*
X259146Y140515D01*
Y139768D01*
X259432Y139078D01*
X259960Y138550D01*
X260650Y138264D01*
X261397D01*
X262087Y138550D01*
X262616Y139078D01*
X262902Y139768D01*
Y140515D01*
X262662Y141093D01*
Y141414D01*
X262532Y142070D01*
X262160Y142626D01*
X252075Y152711D01*
X251519Y153083D01*
X250863Y153214D01*
X250557D01*
X249980Y153453D01*
D02*
G37*
G36*
X281082Y149516D02*
X280335D01*
X279645Y149230D01*
X279117Y148702D01*
X278831Y148011D01*
Y147264D01*
X278995Y146869D01*
Y138455D01*
X278883Y138343D01*
X278597Y137653D01*
Y136906D01*
X278883Y136216D01*
X279411Y135687D01*
X280101Y135402D01*
X280848D01*
X281539Y135687D01*
X282067Y136216D01*
X282353Y136906D01*
Y137268D01*
X282423Y137620D01*
Y146869D01*
X282587Y147264D01*
Y148011D01*
X282301Y148702D01*
X281772Y149230D01*
X281082Y149516D01*
D02*
G37*
G36*
X174783Y129437D02*
X174036D01*
X173640Y129273D01*
X160236D01*
X159580Y129143D01*
X159024Y128771D01*
X150757Y120503D01*
X150385Y119947D01*
X150254Y119291D01*
Y119273D01*
X150091Y118877D01*
Y118130D01*
X150376Y117440D01*
X150905Y116912D01*
X151595Y116626D01*
X152342D01*
X153032Y116912D01*
X153560Y117440D01*
X153847Y118130D01*
Y118745D01*
X160946Y125845D01*
X173640D01*
X174036Y125681D01*
X174783D01*
X175473Y125967D01*
X176002Y126495D01*
X176287Y127185D01*
Y127933D01*
X176002Y128623D01*
X175473Y129151D01*
X174783Y129437D01*
D02*
G37*
G36*
X229901Y132980D02*
X229154D01*
X228464Y132694D01*
X227936Y132166D01*
X227650Y131476D01*
Y130729D01*
X227936Y130039D01*
X228464Y129510D01*
X229154Y129224D01*
X229901D01*
X230297Y129388D01*
X233148D01*
X238008Y124529D01*
X238172Y124133D01*
X238700Y123605D01*
X239390Y123319D01*
X240137D01*
X240828Y123605D01*
X241356Y124133D01*
X241642Y124823D01*
Y125570D01*
X241356Y126261D01*
X240828Y126789D01*
X240432Y126953D01*
X235070Y132314D01*
X234514Y132686D01*
X233858Y132816D01*
X230297D01*
X229901Y132980D01*
D02*
G37*
G36*
X72815Y131012D02*
X72067D01*
X71377Y130726D01*
X70849Y130198D01*
X70563Y129507D01*
Y128760D01*
X70849Y128070D01*
X71377Y127542D01*
X71773Y127378D01*
X77528Y121623D01*
X78016Y121297D01*
X78070Y121243D01*
X78760Y120957D01*
X79507D01*
X80198Y121243D01*
X80726Y121771D01*
X81012Y122461D01*
Y123208D01*
X80726Y123898D01*
X80198Y124427D01*
X79507Y124713D01*
X79286D01*
X74197Y129802D01*
X74033Y130198D01*
X73505Y130726D01*
X72815Y131012D01*
D02*
G37*
G36*
X241712Y95972D02*
X240965D01*
X240275Y95687D01*
X239746Y95158D01*
X239461Y94468D01*
Y93721D01*
X239625Y93325D01*
Y74726D01*
X237915Y73016D01*
X237519Y72852D01*
X236991Y72324D01*
X236705Y71633D01*
Y70886D01*
X236991Y70196D01*
X237519Y69668D01*
X238209Y69382D01*
X238956D01*
X239647Y69668D01*
X240175Y70196D01*
X240339Y70592D01*
X242551Y72804D01*
X242922Y73360D01*
X243053Y74016D01*
Y93325D01*
X243216Y93721D01*
Y94468D01*
X242931Y95158D01*
X242402Y95687D01*
X241712Y95972D01*
D02*
G37*
G36*
X45709Y69396D02*
Y65551D01*
X49553D01*
X49253Y66673D01*
X48669Y67685D01*
X47842Y68511D01*
X46831Y69095D01*
X45709Y69396D01*
D02*
G37*
G36*
X44528Y69396D02*
X43406Y69095D01*
X42394Y68511D01*
X41568Y67685D01*
X40984Y66673D01*
X40683Y65551D01*
X44528D01*
Y69396D01*
D02*
G37*
G36*
Y64370D02*
X40683D01*
X40984Y63248D01*
X41568Y62236D01*
X42394Y61410D01*
X43406Y60826D01*
X44528Y60525D01*
Y64370D01*
D02*
G37*
G36*
X49553D02*
X45709D01*
Y60525D01*
X46831Y60826D01*
X47842Y61410D01*
X48669Y62236D01*
X49253Y63248D01*
X49553Y64370D01*
D02*
G37*
G36*
X75702Y69398D02*
X74534D01*
X73405Y69095D01*
X72394Y68511D01*
X71568Y67685D01*
X70983Y66673D01*
X70681Y65545D01*
Y64376D01*
X70983Y63248D01*
X71568Y62236D01*
X72394Y61410D01*
X73405Y60826D01*
X74534Y60524D01*
X75702D01*
X76831Y60826D01*
X77842Y61410D01*
X78669Y62236D01*
X79253Y63248D01*
X79555Y64376D01*
Y65545D01*
X79253Y66673D01*
X78669Y67685D01*
X77842Y68511D01*
X76831Y69095D01*
X75702Y69398D01*
D02*
G37*
G36*
X65702D02*
X64534D01*
X63406Y69095D01*
X62394Y68511D01*
X61568Y67685D01*
X60984Y66673D01*
X60681Y65545D01*
Y64376D01*
X60984Y63248D01*
X61568Y62236D01*
X62394Y61410D01*
X63406Y60826D01*
X64534Y60524D01*
X65702D01*
X66831Y60826D01*
X67843Y61410D01*
X68669Y62236D01*
X69253Y63248D01*
X69555Y64376D01*
Y65545D01*
X69253Y66673D01*
X68669Y67685D01*
X67843Y68511D01*
X66831Y69095D01*
X65702Y69398D01*
D02*
G37*
G36*
X55702D02*
X54534D01*
X53405Y69095D01*
X52394Y68511D01*
X51568Y67685D01*
X50984Y66673D01*
X50681Y65545D01*
Y64376D01*
X50984Y63248D01*
X51568Y62236D01*
X52394Y61410D01*
X53405Y60826D01*
X54534Y60524D01*
X55702D01*
X56831Y60826D01*
X57842Y61410D01*
X58669Y62236D01*
X59253Y63248D01*
X59555Y64376D01*
Y65545D01*
X59253Y66673D01*
X58669Y67685D01*
X57842Y68511D01*
X56831Y69095D01*
X55702Y69398D01*
D02*
G37*
G36*
X35702D02*
X34534D01*
X33406Y69095D01*
X32394Y68511D01*
X31568Y67685D01*
X30983Y66673D01*
X30681Y65545D01*
Y64376D01*
X30983Y63248D01*
X31568Y62236D01*
X32394Y61410D01*
X33406Y60826D01*
X34534Y60524D01*
X35702D01*
X36831Y60826D01*
X37843Y61410D01*
X38669Y62236D01*
X39253Y63248D01*
X39555Y64376D01*
Y65545D01*
X39253Y66673D01*
X38669Y67685D01*
X37843Y68511D01*
X36831Y69095D01*
X35702Y69398D01*
D02*
G37*
G36*
X95302Y77272D02*
X93674D01*
X92066Y77017D01*
X90518Y76514D01*
X89068Y75775D01*
X87751Y74818D01*
X86599Y73667D01*
X85642Y72350D01*
X84903Y70899D01*
X84400Y69351D01*
X84146Y67743D01*
Y66115D01*
X84400Y64507D01*
X84903Y62959D01*
X85642Y61509D01*
X86599Y60191D01*
X87751Y59040D01*
X89068Y58083D01*
X90518Y57344D01*
X92066Y56841D01*
X93674Y56587D01*
X95302D01*
X96910Y56841D01*
X98458Y57344D01*
X99909Y58083D01*
X101226Y59040D01*
X102377Y60191D01*
X103334Y61509D01*
X104073Y62959D01*
X104576Y64507D01*
X104831Y66115D01*
Y67743D01*
X104576Y69351D01*
X104073Y70899D01*
X103334Y72350D01*
X102377Y73667D01*
X101226Y74818D01*
X99909Y75775D01*
X98458Y76514D01*
X96910Y77017D01*
X95302Y77272D01*
D02*
G37*
G36*
X16562D02*
X14934D01*
X13326Y77017D01*
X11778Y76514D01*
X10327Y75775D01*
X9010Y74818D01*
X7859Y73667D01*
X6902Y72350D01*
X6163Y70899D01*
X5660Y69351D01*
X5406Y67743D01*
Y66115D01*
X5660Y64507D01*
X6163Y62959D01*
X6902Y61509D01*
X7859Y60191D01*
X9010Y59040D01*
X10327Y58083D01*
X11778Y57344D01*
X13326Y56841D01*
X14934Y56587D01*
X16562D01*
X18170Y56841D01*
X19718Y57344D01*
X21169Y58083D01*
X22486Y59040D01*
X23637Y60191D01*
X24594Y61509D01*
X25333Y62959D01*
X25836Y64507D01*
X26091Y66115D01*
Y67743D01*
X25836Y69351D01*
X25333Y70899D01*
X24594Y72350D01*
X23637Y73667D01*
X22486Y74818D01*
X21169Y75775D01*
X19718Y76514D01*
X18170Y77017D01*
X16562Y77272D01*
D02*
G37*
G36*
X185807Y72744D02*
X185059D01*
X184369Y72458D01*
X183841Y71930D01*
X183555Y71240D01*
Y70493D01*
X183841Y69802D01*
X184121Y69523D01*
Y50556D01*
X183841Y50276D01*
X183555Y49586D01*
Y48839D01*
X183841Y48149D01*
X184369Y47620D01*
X185059Y47335D01*
X185807D01*
X186497Y47620D01*
X187025Y48149D01*
X187311Y48839D01*
Y49586D01*
X187025Y50276D01*
X186746Y50556D01*
Y69523D01*
X187025Y69802D01*
X187311Y70493D01*
Y71240D01*
X187025Y71930D01*
X186497Y72458D01*
X185807Y72744D01*
D02*
G37*
G36*
X278720Y70776D02*
X277973D01*
X277283Y70490D01*
X276754Y69961D01*
X276590Y69566D01*
X254014Y46990D01*
X240927D01*
X240531Y47153D01*
X239784D01*
X239094Y46868D01*
X238565Y46339D01*
X238280Y45649D01*
Y44902D01*
X238565Y44212D01*
X239094Y43683D01*
X239784Y43398D01*
X240531D01*
X240927Y43562D01*
X254724D01*
X255380Y43692D01*
X255936Y44064D01*
X279014Y67142D01*
X279410Y67306D01*
X279939Y67834D01*
X280224Y68524D01*
Y69271D01*
X279939Y69961D01*
X279410Y70490D01*
X278720Y70776D01*
D02*
G37*
G36*
X219665Y54634D02*
X218918D01*
X218522Y54470D01*
X209449D01*
X208793Y54339D01*
X208237Y53968D01*
X200119Y45851D01*
X199724Y45687D01*
X199195Y45158D01*
X198909Y44468D01*
Y43853D01*
X197819Y42763D01*
X185629D01*
X174984Y53408D01*
X174820Y53804D01*
X174292Y54332D01*
X173602Y54618D01*
X172855D01*
X172165Y54332D01*
X171636Y53804D01*
X171350Y53114D01*
Y52367D01*
X171636Y51676D01*
X172165Y51148D01*
X172560Y50984D01*
X183707Y39837D01*
X184263Y39466D01*
X184919Y39335D01*
X198530D01*
X199185Y39466D01*
X199741Y39837D01*
X201924Y42020D01*
X202296Y42576D01*
X202392Y43062D01*
X202543Y43426D01*
X210156Y51039D01*
X210640Y50996D01*
X210847Y50542D01*
X210614Y49980D01*
Y49233D01*
X210900Y48542D01*
X211428Y48014D01*
X212119Y47728D01*
X212514D01*
X216927Y43316D01*
X216712Y42823D01*
X216162D01*
X215472Y42537D01*
X214943Y42009D01*
X214657Y41318D01*
Y40571D01*
X214943Y39881D01*
X215223Y39602D01*
Y33104D01*
X197282Y15163D01*
X197196Y15212D01*
X196267Y15461D01*
X195307D01*
X194378Y15212D01*
X193546Y14732D01*
X192867Y14052D01*
X192386Y13220D01*
X192137Y12292D01*
Y11331D01*
X192386Y10403D01*
X192867Y9571D01*
X193546Y8891D01*
X194378Y8411D01*
X195307Y8162D01*
X196267D01*
X197196Y8411D01*
X198028Y8891D01*
X198707Y9571D01*
X199188Y10403D01*
X199437Y11331D01*
Y12292D01*
X199188Y13220D01*
X199138Y13306D01*
X217464Y31632D01*
X217748Y32058D01*
X217848Y32560D01*
Y39095D01*
X217872Y39111D01*
X218372Y38844D01*
Y26253D01*
X207282Y15163D01*
X207196Y15212D01*
X206267Y15461D01*
X205307D01*
X204378Y15212D01*
X203546Y14732D01*
X202867Y14052D01*
X202386Y13220D01*
X202137Y12292D01*
Y11331D01*
X202386Y10403D01*
X202867Y9571D01*
X203546Y8891D01*
X204378Y8411D01*
X205307Y8162D01*
X206267D01*
X207196Y8411D01*
X208028Y8891D01*
X208707Y9571D01*
X209188Y10403D01*
X209437Y11331D01*
Y12292D01*
X209188Y13220D01*
X209138Y13306D01*
X220403Y24572D01*
X220861Y24652D01*
X221059Y24548D01*
X224073Y21534D01*
Y15036D01*
X223546Y14732D01*
X222867Y14052D01*
X222386Y13220D01*
X222137Y12292D01*
Y11331D01*
X222386Y10403D01*
X222867Y9571D01*
X223546Y8891D01*
X224378Y8411D01*
X225307Y8162D01*
X226268D01*
X227196Y8411D01*
X228028Y8891D01*
X228708Y9571D01*
X229188Y10403D01*
X229437Y11331D01*
Y12292D01*
X229188Y13220D01*
X228708Y14052D01*
X228028Y14732D01*
X227501Y15036D01*
Y22244D01*
X227371Y22900D01*
X226999Y23456D01*
X223868Y26588D01*
Y43436D01*
X223737Y44092D01*
X223365Y44648D01*
X221005Y47008D01*
Y51987D01*
X221169Y52382D01*
Y53130D01*
X220883Y53820D01*
X220355Y54348D01*
X219665Y54634D01*
D02*
G37*
G36*
X148092Y23236D02*
X147183D01*
X146305Y23001D01*
X145518Y22546D01*
X144875Y21903D01*
X144420Y21116D01*
X144185Y20238D01*
Y19329D01*
X144420Y18451D01*
X144875Y17663D01*
X145518Y17021D01*
X146305Y16566D01*
X147183Y16331D01*
X148092D01*
X148970Y16566D01*
X149758Y17021D01*
X150401Y17663D01*
X150855Y18451D01*
X151091Y19329D01*
Y20238D01*
X150855Y21116D01*
X150401Y21903D01*
X149758Y22546D01*
X148970Y23001D01*
X148092Y23236D01*
D02*
G37*
G36*
X120533D02*
X119624D01*
X118746Y23001D01*
X117959Y22546D01*
X117316Y21903D01*
X116861Y21116D01*
X116626Y20238D01*
Y19329D01*
X116861Y18451D01*
X117316Y17663D01*
X117959Y17021D01*
X118746Y16566D01*
X119624Y16331D01*
X120533D01*
X121412Y16566D01*
X122199Y17021D01*
X122842Y17663D01*
X123296Y18451D01*
X123531Y19329D01*
Y20238D01*
X123296Y21116D01*
X122842Y21903D01*
X122199Y22546D01*
X121412Y23001D01*
X120533Y23236D01*
D02*
G37*
G36*
X216378Y15432D02*
Y12402D01*
X219407D01*
X219188Y13220D01*
X218707Y14052D01*
X218028Y14732D01*
X217196Y15212D01*
X216378Y15432D01*
D02*
G37*
G36*
X215196D02*
X214378Y15212D01*
X213546Y14732D01*
X212867Y14052D01*
X212386Y13220D01*
X212167Y12402D01*
X215196D01*
Y15432D01*
D02*
G37*
G36*
X143307Y13357D02*
Y10531D01*
X146133D01*
X145934Y11274D01*
X145479Y12061D01*
X144837Y12704D01*
X144049Y13158D01*
X143307Y13357D01*
D02*
G37*
G36*
X142126D02*
X141384Y13158D01*
X140596Y12704D01*
X139954Y12061D01*
X139499Y11274D01*
X139300Y10531D01*
X142126D01*
Y13357D01*
D02*
G37*
G36*
X219407Y11221D02*
X216378D01*
Y8191D01*
X217196Y8411D01*
X218028Y8891D01*
X218707Y9571D01*
X219188Y10403D01*
X219407Y11221D01*
D02*
G37*
G36*
X215196D02*
X212167D01*
X212386Y10403D01*
X212867Y9571D01*
X213546Y8891D01*
X214378Y8411D01*
X215196Y8191D01*
Y11221D01*
D02*
G37*
G36*
X239437Y15461D02*
X232137D01*
Y8162D01*
X239437D01*
Y15461D01*
D02*
G37*
G36*
X186267D02*
X185307D01*
X184378Y15212D01*
X183546Y14732D01*
X182867Y14052D01*
X182386Y13220D01*
X182137Y12292D01*
Y11331D01*
X182386Y10403D01*
X182867Y9571D01*
X183546Y8891D01*
X184378Y8411D01*
X185307Y8162D01*
X186267D01*
X187196Y8411D01*
X188028Y8891D01*
X188707Y9571D01*
X189188Y10403D01*
X189437Y11331D01*
Y12292D01*
X189188Y13220D01*
X188707Y14052D01*
X188028Y14732D01*
X187196Y15212D01*
X186267Y15461D01*
D02*
G37*
G36*
X176268D02*
X175307D01*
X174378Y15212D01*
X173546Y14732D01*
X172867Y14052D01*
X172386Y13220D01*
X172137Y12292D01*
Y11331D01*
X172386Y10403D01*
X172867Y9571D01*
X173546Y8891D01*
X174378Y8411D01*
X175307Y8162D01*
X176268D01*
X177196Y8411D01*
X178028Y8891D01*
X178708Y9571D01*
X179188Y10403D01*
X179437Y11331D01*
Y12292D01*
X179188Y13220D01*
X178708Y14052D01*
X178028Y14732D01*
X177196Y15212D01*
X176268Y15461D01*
D02*
G37*
G36*
X166268D02*
X165307D01*
X164378Y15212D01*
X163546Y14732D01*
X162867Y14052D01*
X162386Y13220D01*
X162137Y12292D01*
Y11331D01*
X162386Y10403D01*
X162867Y9571D01*
X163546Y8891D01*
X164378Y8411D01*
X165307Y8162D01*
X166268D01*
X167196Y8411D01*
X168028Y8891D01*
X168708Y9571D01*
X169188Y10403D01*
X169437Y11331D01*
Y12292D01*
X169188Y13220D01*
X168708Y14052D01*
X168028Y14732D01*
X167196Y15212D01*
X166268Y15461D01*
D02*
G37*
G36*
X146133Y9350D02*
X143307D01*
Y6525D01*
X144049Y6724D01*
X144837Y7178D01*
X145479Y7821D01*
X145934Y8608D01*
X146133Y9350D01*
D02*
G37*
G36*
X142126D02*
X139300D01*
X139499Y8608D01*
X139954Y7821D01*
X140596Y7178D01*
X141384Y6724D01*
X142126Y6525D01*
Y9350D01*
D02*
G37*
G36*
X125455Y13394D02*
X124546D01*
X123667Y13158D01*
X122880Y12704D01*
X122237Y12061D01*
X121783Y11274D01*
X121547Y10396D01*
Y9486D01*
X121783Y8608D01*
X122237Y7821D01*
X122880Y7178D01*
X123667Y6724D01*
X124546Y6488D01*
X125455D01*
X126333Y6724D01*
X127120Y7178D01*
X127763Y7821D01*
X128217Y8608D01*
X128453Y9486D01*
Y10396D01*
X128217Y11274D01*
X127763Y12061D01*
X127120Y12704D01*
X126333Y13158D01*
X125455Y13394D01*
D02*
G37*
%LPD*%
G36*
X303707Y181354D02*
X303984Y181078D01*
X304134Y180716D01*
Y180520D01*
X304134D01*
Y178870D01*
X304512Y178652D01*
X305012Y177937D01*
X305164Y177077D01*
X304938Y176234D01*
X304377Y175566D01*
X303586Y175197D01*
X302713D01*
X301922Y175566D01*
X301361Y176234D01*
X301135Y177077D01*
X301287Y177937D01*
X301787Y178652D01*
X302165Y178870D01*
X302165Y180520D01*
Y180716D01*
X302315Y181078D01*
X302592Y181354D01*
X302954Y181504D01*
X303345D01*
X303707Y181354D01*
D02*
G37*
G36*
X305967Y180339D02*
X306216Y180226D01*
X306310Y180126D01*
X306743Y179664D01*
X307308Y178530D01*
X307525Y177282D01*
X307375Y176024D01*
X306871Y174862D01*
X306056Y173893D01*
X304997Y173197D01*
X303783Y172835D01*
X302516D01*
X301302Y173197D01*
X300243Y173893D01*
X299428Y174862D01*
X298924Y176024D01*
X298774Y177282D01*
X298991Y178530D01*
X299556Y179664D01*
X299989Y180126D01*
X300083Y180226D01*
X300332Y180339D01*
X300606Y180349D01*
X300862Y180253D01*
X301062Y180066D01*
X301176Y179817D01*
X301186Y179543D01*
X301090Y179287D01*
X300997Y179187D01*
X300727Y178854D01*
X300345Y178089D01*
X300198Y177246D01*
X300299Y176397D01*
X300638Y175613D01*
X301188Y174958D01*
X301903Y174489D01*
X302722Y174244D01*
X303577D01*
X304396Y174489D01*
X305111Y174958D01*
X305661Y175613D01*
X306001Y176397D01*
X306101Y177246D01*
X305954Y178089D01*
X305572Y178854D01*
X305302Y179187D01*
X305209Y179287D01*
X305114Y179543D01*
X305123Y179817D01*
X305237Y180066D01*
X305437Y180253D01*
X305694Y180349D01*
X305967Y180339D01*
D02*
G37*
D11*
X342519Y180709D02*
Y187008D01*
X342520Y187008D01*
X322835Y180709D02*
Y187008D01*
X229528Y131102D02*
X233858D01*
X239764Y125197D01*
X238583Y71260D02*
X241339Y74016D01*
Y94095D01*
X260948Y140217D02*
Y141414D01*
X250863Y151499D02*
X260948Y141414D01*
Y140217D02*
X261024Y140142D01*
X249682Y151499D02*
X250863D01*
X198530Y41049D02*
X200712Y43232D01*
X173228Y52740D02*
X184919Y41049D01*
X198530D01*
X200712Y44019D02*
X209449Y52756D01*
X200712Y43232D02*
Y44019D01*
X342519Y180709D02*
X342520Y180709D01*
X303150Y162205D02*
Y173228D01*
Y180709D02*
Y185039D01*
X219291Y46298D02*
Y52756D01*
Y46298D02*
X222153Y43436D01*
Y25878D02*
X225787Y22244D01*
X222153Y25878D02*
Y43436D01*
X225787Y11812D02*
Y22244D01*
X209449Y52756D02*
X219291D01*
X151969Y118504D02*
Y119291D01*
X160236Y127559D01*
X174409D01*
X78740Y122835D02*
X79134D01*
X72441Y129134D02*
X78740Y122835D01*
X254724Y45276D02*
X278346Y68898D01*
X240158Y45276D02*
X254724D01*
X280475Y137279D02*
Y137386D01*
X280709Y137620D01*
Y147638D01*
X249606Y151575D02*
X249682Y151499D01*
D15*
X185433Y49213D02*
Y70866D01*
X205787Y11812D02*
X219685Y25710D01*
X212492Y49606D02*
X219685Y42413D01*
Y25710D02*
Y42413D01*
X216535Y32560D02*
Y40945D01*
X195787Y11812D02*
X216535Y32560D01*
D78*
X298228Y189961D02*
Y194882D01*
Y189961D02*
X303150Y185039D01*
X330224Y199303D02*
X342520Y187008D01*
X321720Y227862D02*
X330224Y219357D01*
Y199303D02*
Y219357D01*
X290485Y227862D02*
X321720D01*
X279099Y216476D02*
X290485Y227862D01*
X268209Y216476D02*
X279099D01*
X325787Y189961D02*
Y217520D01*
X322835Y187008D02*
X325787Y189961D01*
X319882Y223425D02*
X325787Y217520D01*
X292323Y223425D02*
X319882D01*
X275590Y206693D02*
X292323Y223425D01*
X264764Y206693D02*
X275590D01*
X257874Y213583D02*
X264764Y206693D01*
X257874Y213583D02*
Y217520D01*
X248031Y227362D02*
X257874Y217520D01*
X233482Y227362D02*
X248031D01*
X230028Y223909D02*
X233482Y227362D01*
X189469Y216476D02*
X204232D01*
X185827Y169291D02*
X189264Y172728D01*
X240421D01*
X257087Y189394D02*
Y204331D01*
X240421Y172728D02*
X257087Y189394D01*
X185827Y177165D02*
X238583D01*
X250394Y188976D02*
Y199213D01*
X238583Y177165D02*
X250394Y188976D01*
X224604Y195076D02*
X234213Y204685D01*
X173816Y195076D02*
X224604D01*
X223441Y209710D02*
Y210076D01*
X213518Y199787D02*
X223441Y209710D01*
X226181Y212816D02*
Y212972D01*
X223441Y210076D02*
X226181Y212816D01*
X164354Y199787D02*
X213518D01*
X162598Y198031D02*
X164354Y199787D01*
X234213Y204685D02*
Y212972D01*
X242126Y212854D02*
X242244Y212972D01*
X242126Y194882D02*
Y212854D01*
X250276Y212972D02*
X250394Y212854D01*
Y199213D02*
Y212854D01*
X138976Y209055D02*
X143807Y204224D01*
X211680D01*
X219004Y211548D02*
Y216819D01*
X211680Y204224D02*
X219004Y211548D01*
Y216819D02*
X222165Y219980D01*
X209842Y208661D02*
X214567Y213386D01*
X181046Y208661D02*
X209842D01*
X214567Y213386D02*
Y220788D01*
X178740Y210968D02*
Y216843D01*
Y210968D02*
X181046Y208661D01*
X214567Y220788D02*
X220944Y227165D01*
X226772D01*
X230028Y223909D01*
X169599Y225984D02*
X178740Y216843D01*
X151457Y219980D02*
X157461Y225984D01*
X169599D01*
X138976Y215532D02*
X143425Y219980D01*
X138976Y209055D02*
Y215532D01*
D80*
X165787Y11812D02*
D03*
X175787D02*
D03*
X195787D02*
D03*
X215787D02*
D03*
X225787D02*
D03*
X205787D02*
D03*
X185787D02*
D03*
D81*
X235787D02*
D03*
D82*
X297087Y212598D02*
D03*
X268209Y216476D02*
D03*
X204232D02*
D03*
X189469D02*
D03*
X125492D02*
D03*
D83*
X317087Y212598D02*
D03*
D84*
X15748Y66929D02*
D03*
X94488D02*
D03*
Y185039D02*
D03*
X15748D02*
D03*
D85*
X70118Y190945D02*
D03*
X60118D02*
D03*
X50118D02*
D03*
X40118D02*
D03*
X35118Y64961D02*
D03*
X65118D02*
D03*
X55118D02*
D03*
X45118D02*
D03*
X75118D02*
D03*
D86*
X261221Y229980D02*
D03*
X211221D02*
D03*
X182480D02*
D03*
X132480D02*
D03*
D87*
X238228Y219980D02*
D03*
X234213Y212972D02*
D03*
X242244D02*
D03*
X230197Y219980D02*
D03*
X246260D02*
D03*
X226181Y212972D02*
D03*
X250276D02*
D03*
X159488Y219980D02*
D03*
X155472Y212972D02*
D03*
X163504D02*
D03*
X151457Y219980D02*
D03*
X167520D02*
D03*
X147441Y212972D02*
D03*
X171535D02*
D03*
D88*
X222165Y219980D02*
D03*
X143425D02*
D03*
D89*
X51181Y11811D02*
D03*
X346457D02*
D03*
Y228346D02*
D03*
X51181D02*
D03*
D90*
X142717Y9941D02*
D03*
X125000D02*
D03*
X147638Y19783D02*
D03*
X120079D02*
D03*
D91*
X298228Y194882D02*
D03*
X313484Y153543D02*
D03*
X319809D02*
D03*
X254921Y136811D02*
D03*
X308071Y116142D02*
D03*
Y120079D02*
D03*
Y124016D02*
D03*
X297244Y122047D02*
D03*
X299213Y102362D02*
D03*
X295276D02*
D03*
X291339D02*
D03*
X229528Y131102D02*
D03*
X239764Y125197D02*
D03*
X238583Y71260D02*
D03*
X241339Y94095D02*
D03*
X261024Y140142D02*
D03*
X236221Y114173D02*
D03*
X232283D02*
D03*
X195290Y37349D02*
D03*
X161417Y43307D02*
D03*
X173228Y52740D02*
D03*
X244094Y19685D02*
D03*
Y27559D02*
D03*
X314961Y31496D02*
D03*
Y35433D02*
D03*
X322835Y102362D02*
D03*
Y43307D02*
D03*
X350394D02*
D03*
X346457D02*
D03*
X354331Y59055D02*
D03*
Y55118D02*
D03*
Y51181D02*
D03*
X330709Y90551D02*
D03*
X326772D02*
D03*
X322835D02*
D03*
X354331Y94488D02*
D03*
X362205D02*
D03*
X370079D02*
D03*
X377953D02*
D03*
Y110236D02*
D03*
Y118110D02*
D03*
Y125984D02*
D03*
X354331Y114173D02*
D03*
Y122047D02*
D03*
X352329Y106116D02*
D03*
X347915Y106168D02*
D03*
X354331Y118110D02*
D03*
X326772Y153543D02*
D03*
X346457D02*
D03*
X358268D02*
D03*
X366142D02*
D03*
X374016D02*
D03*
X381890D02*
D03*
X393701Y192913D02*
D03*
X389764Y196850D02*
D03*
X393701Y47244D02*
D03*
X389764Y43307D02*
D03*
X314961Y3937D02*
D03*
Y7874D02*
D03*
X244094Y23622D02*
D03*
X236221Y43307D02*
D03*
X232283Y39370D02*
D03*
X224410Y47244D02*
D03*
X228346Y35433D02*
D03*
X181102Y39370D02*
D03*
X192868Y45086D02*
D03*
X153543Y31496D02*
D03*
X141732D02*
D03*
X74803Y15748D02*
D03*
Y7874D02*
D03*
X7874Y196850D02*
D03*
X3937Y192913D02*
D03*
X7874Y43307D02*
D03*
X3937Y47244D02*
D03*
X47244Y208661D02*
D03*
X114173Y212598D02*
D03*
X62992Y204724D02*
D03*
Y208661D02*
D03*
X94488Y204724D02*
D03*
Y208661D02*
D03*
X190885Y164594D02*
D03*
X185039Y185039D02*
D03*
X242918Y164154D02*
D03*
X236616Y163715D02*
D03*
X267717Y181102D02*
D03*
X275590D02*
D03*
X283465D02*
D03*
X285131Y148178D02*
D03*
X290408D02*
D03*
X258455Y153015D02*
D03*
X240158Y161417D02*
D03*
X169291Y181102D02*
D03*
X165354D02*
D03*
X114173Y141732D02*
D03*
X133858Y149606D02*
D03*
X125984D02*
D03*
X183071Y139764D02*
D03*
Y149606D02*
D03*
X228346Y137795D02*
D03*
Y145669D02*
D03*
X212598Y122047D02*
D03*
Y118110D02*
D03*
Y114173D02*
D03*
X157890Y116581D02*
D03*
X181102Y98425D02*
D03*
X196850Y78740D02*
D03*
X204724D02*
D03*
Y98425D02*
D03*
X196850D02*
D03*
X181102Y86614D02*
D03*
X161417Y78740D02*
D03*
X173228Y62992D02*
D03*
X165354D02*
D03*
X157480D02*
D03*
X149606D02*
D03*
X133858D02*
D03*
X125984D02*
D03*
X118110D02*
D03*
X110236D02*
D03*
Y70866D02*
D03*
Y78740D02*
D03*
Y86614D02*
D03*
Y94488D02*
D03*
Y102362D02*
D03*
Y110236D02*
D03*
X118110Y114173D02*
D03*
X125984D02*
D03*
X133858D02*
D03*
X141732D02*
D03*
X303150Y162205D02*
D03*
X200787Y44094D02*
D03*
X219291Y52756D02*
D03*
X151969Y118504D02*
D03*
X174409Y127559D02*
D03*
X185433Y49213D02*
D03*
Y70866D02*
D03*
X212492Y49606D02*
D03*
X216535Y40945D02*
D03*
X79134Y122835D02*
D03*
X72441Y129134D02*
D03*
X240158Y45276D02*
D03*
X278346Y68898D02*
D03*
X280475Y137279D02*
D03*
X280709Y147638D02*
D03*
X249606Y151575D02*
D03*
X185827Y169291D02*
D03*
Y177165D02*
D03*
X162598Y198031D02*
D03*
X173816Y195076D02*
D03*
X242126Y194882D02*
D03*
X250394Y199213D02*
D03*
X257087Y204331D02*
D03*
D92*
X303150Y180709D02*
D03*
X322835D02*
D03*
X342520D02*
D03*
D93*
X303150Y173228D02*
D03*
X322835D02*
D03*
X342520D02*
D03*
M02*
