G04*
G04 #@! TF.GenerationSoftware,Altium Limited,Altium Designer,21.0.9 (235)*
G04*
G04 Layer_Color=32896*
%FSLAX25Y25*%
%MOIN*%
G70*
G04*
G04 #@! TF.SameCoordinates,F72C6517-AC7E-470F-A1BB-FE126D2DAEF1*
G04*
G04*
G04 #@! TF.FilePolarity,Positive*
G04*
G01*
G75*
%ADD12C,0.00787*%
D12*
X47244Y240158D02*
G03*
X39370Y232283I0J-7874D01*
G01*
X19685Y200787D02*
G03*
X39370Y220472I0J19685D01*
G01*
X7874Y200787D02*
G03*
X0Y192913I0J-7874D01*
G01*
X358268Y232283D02*
G03*
X350394Y240158I-7874J0D01*
G01*
X358268Y220472D02*
G03*
X377953Y200787I19685J0D01*
G01*
X397638Y192913D02*
G03*
X389764Y200787I-7874J0D01*
G01*
X350394Y0D02*
G03*
X358268Y7874I0J7874D01*
G01*
X377953Y39370D02*
G03*
X358268Y19685I0J-19685D01*
G01*
X389764Y39370D02*
G03*
X397638Y47244I0J7874D01*
G01*
X0D02*
G03*
X7874Y39370I7874J0D01*
G01*
X39370Y19685D02*
G03*
X19685Y39370I-19685J0D01*
G01*
X39370Y7874D02*
G03*
X47244Y0I7874J0D01*
G01*
Y240158D02*
X350394D01*
X397638Y47244D02*
Y192913D01*
X47244Y0D02*
X350394D01*
X0Y47244D02*
Y192913D01*
X7874Y200787D02*
X19685D01*
X39370Y220472D02*
Y232283D01*
X377953Y200787D02*
X389764D01*
X358268Y220472D02*
Y232283D01*
X377953Y39370D02*
X389764D01*
X358268Y7874D02*
Y19685D01*
X39370Y7874D02*
Y19685D01*
X7874Y39370D02*
X19685D01*
M02*
