G04*
G04 #@! TF.GenerationSoftware,Altium Limited,Altium Designer,20.0.11 (256)*
G04*
G04 Layer_Physical_Order=1*
G04 Layer_Color=255*
%FSLAX25Y25*%
%MOIN*%
G70*
G01*
G75*
%ADD21R,0.06102X0.10039*%
%ADD22R,0.11024X0.05315*%
%ADD23R,0.03347X0.03543*%
%ADD24R,0.03347X0.03150*%
%ADD25R,0.02362X0.01378*%
%ADD26R,0.03543X0.04724*%
%ADD27R,0.11024X0.22047*%
%ADD28R,0.05315X0.22047*%
%ADD29R,0.04724X0.03937*%
%ADD30R,0.03937X0.05512*%
%ADD31R,0.04331X0.05512*%
%ADD32O,0.06299X0.02165*%
%ADD33O,0.02165X0.06299*%
%ADD34R,0.05512X0.04528*%
%ADD35O,0.08661X0.02362*%
%ADD36R,0.10630X0.04921*%
%ADD37R,0.05512X0.11811*%
%ADD38R,0.10039X0.06102*%
%ADD39R,0.04528X0.05512*%
%ADD40R,0.05315X0.04724*%
%ADD41R,0.03150X0.03347*%
%ADD42R,0.17323X0.07874*%
%ADD43R,0.05906X0.05512*%
%ADD44R,0.05709X0.02362*%
%ADD45R,0.03543X0.03347*%
%ADD46R,0.04921X0.10630*%
%ADD47R,0.07874X0.04724*%
%ADD48R,0.11811X0.05512*%
%ADD49R,0.03937X0.02362*%
%ADD91C,0.01181*%
%ADD92C,0.01968*%
%ADD93C,0.03937*%
%ADD94C,0.01575*%
%ADD95C,0.09843*%
%ADD96R,0.09843X0.09843*%
%ADD97C,0.07874*%
%ADD98C,0.19685*%
%ADD99C,0.06000*%
%ADD100C,0.11811*%
%ADD101C,0.06890*%
%ADD102R,0.06890X0.06890*%
%ADD103R,0.07874X0.07874*%
%ADD104C,0.07087*%
%ADD105C,0.23622*%
%ADD106C,0.02362*%
G36*
X341518Y239626D02*
X340850Y239350D01*
X339198Y238337D01*
X337725Y237079D01*
X336466Y235605D01*
X335454Y233953D01*
X334712Y232162D01*
X334260Y230278D01*
X334108Y228346D01*
X334260Y226415D01*
X334712Y224530D01*
X335454Y222740D01*
X336466Y221088D01*
X337725Y219614D01*
X339198Y218356D01*
X340850Y217343D01*
X342641Y216602D01*
X344525Y216149D01*
X346457Y215997D01*
X348389Y216149D01*
X350273Y216602D01*
X352063Y217343D01*
X353715Y218356D01*
X355189Y219614D01*
X356447Y221088D01*
X357460Y222740D01*
X357768Y223483D01*
X358268Y223384D01*
Y220472D01*
X358310Y219185D01*
X358646Y216632D01*
X359312Y214145D01*
X360298Y211766D01*
X361585Y209536D01*
X363153Y207493D01*
X364973Y205672D01*
X367016Y204105D01*
X369246Y202818D01*
X371625Y201832D01*
X374112Y201166D01*
X376665Y200830D01*
X377953Y200787D01*
X390539D01*
X392060Y200485D01*
X393494Y199891D01*
X394783Y199030D01*
X395880Y197933D01*
X396742Y196643D01*
X397335Y195210D01*
X397638Y193689D01*
Y192913D01*
X397638D01*
Y156704D01*
X397138Y156655D01*
X397067Y157009D01*
X396739Y157500D01*
X396739Y157500D01*
X394094Y160145D01*
X393603Y160473D01*
X393024Y160588D01*
X393024Y160588D01*
X383438D01*
X383333Y160658D01*
X382677Y160789D01*
X376378D01*
X375722Y160658D01*
X375166Y160287D01*
X374794Y159731D01*
X374664Y159075D01*
X374794Y158419D01*
X375166Y157863D01*
X375722Y157491D01*
X376378Y157361D01*
X382677D01*
X383333Y157491D01*
X383438Y157562D01*
X386508D01*
Y155807D01*
X393020D01*
Y156286D01*
X393482Y156477D01*
X394156Y155803D01*
Y130586D01*
X393694Y130395D01*
X393020Y131069D01*
Y134949D01*
X386508D01*
Y129421D01*
X390413D01*
X390465Y129343D01*
X391687Y128121D01*
Y127359D01*
X391642Y126878D01*
X386417D01*
Y123917D01*
X385827D01*
Y123327D01*
X380012D01*
Y122009D01*
X379512Y121742D01*
X379466Y121773D01*
Y124016D01*
X379351Y124595D01*
X379023Y125086D01*
X379023Y125086D01*
X377054Y127054D01*
X376563Y127382D01*
X375984Y127498D01*
X375984Y127498D01*
X366375D01*
X365391Y128481D01*
Y129823D01*
X365391Y129823D01*
X365362Y129969D01*
Y135441D01*
X362143D01*
Y142361D01*
X363779D01*
X364436Y142491D01*
X364991Y142863D01*
X365363Y143419D01*
X365494Y144075D01*
X365363Y144731D01*
X364991Y145287D01*
X364436Y145658D01*
X363779Y145789D01*
X357480D01*
X357252Y145744D01*
X357006Y146204D01*
X358162Y147361D01*
X363779D01*
X364436Y147491D01*
X364991Y147863D01*
X365363Y148419D01*
X365494Y149075D01*
X365363Y149731D01*
X364991Y150287D01*
X364436Y150658D01*
X363779Y150789D01*
X357480D01*
X356824Y150658D01*
X356268Y150287D01*
X355897Y149731D01*
X355809Y149287D01*
X353261Y146739D01*
X352933Y146248D01*
X352817Y145669D01*
X352817Y145669D01*
Y143540D01*
X352220Y142943D01*
X350894D01*
Y145079D01*
X348130D01*
X345366D01*
Y143943D01*
X344904Y143752D01*
X343688Y144968D01*
X343610Y145020D01*
Y148925D01*
X342360D01*
Y150681D01*
X350303D01*
Y156602D01*
X341305D01*
X338127Y159780D01*
Y169157D01*
X339534Y170563D01*
X343709D01*
Y176287D01*
X339829D01*
X338535Y177581D01*
X338726Y178043D01*
X343709D01*
Y179392D01*
X345268D01*
Y178043D01*
X349147D01*
X350441Y176749D01*
X350250Y176287D01*
X349016D01*
Y174016D01*
X351583D01*
Y174955D01*
X352045Y175146D01*
X359117Y168074D01*
Y160789D01*
X357480D01*
X356824Y160658D01*
X356268Y160287D01*
X355897Y159731D01*
X355766Y159075D01*
X355897Y158419D01*
X356268Y157863D01*
X356824Y157491D01*
X357480Y157361D01*
X363779D01*
X364436Y157491D01*
X364991Y157863D01*
X365363Y158419D01*
X365494Y159075D01*
X365363Y159731D01*
X364991Y160287D01*
X364436Y160658D01*
X363779Y160789D01*
X362143D01*
Y168701D01*
X362143Y168701D01*
X362028Y169280D01*
X361700Y169771D01*
X361700Y169771D01*
X355268Y176203D01*
X355459Y176665D01*
X372744D01*
Y185539D01*
X366100D01*
Y188976D01*
X365908Y189939D01*
X365362Y190756D01*
X361819Y194299D01*
X361002Y194845D01*
X360039Y195037D01*
X348039D01*
Y198039D01*
X340937D01*
Y189998D01*
X338717D01*
X334752Y193963D01*
Y197744D01*
X322728D01*
Y194378D01*
X322395Y194311D01*
X321904Y193983D01*
X321904Y193983D01*
X315859Y187938D01*
X315531Y187447D01*
X315416Y186868D01*
X315416Y186868D01*
Y181799D01*
X313772D01*
Y177014D01*
X313310Y176823D01*
X312213Y177920D01*
Y181799D01*
X305898D01*
Y177920D01*
X304688Y176710D01*
X303227D01*
X303059Y176878D01*
Y177256D01*
X303059Y177378D01*
Y178346D01*
X300591D01*
X298122D01*
Y177378D01*
X298122Y177256D01*
Y176878D01*
X298122Y176756D01*
Y173638D01*
X298122Y173516D01*
Y173138D01*
X297690Y172851D01*
X297322D01*
X297322Y172851D01*
X296742Y172735D01*
X296251Y172407D01*
X292680Y168836D01*
X284653D01*
Y169496D01*
X284092D01*
Y171055D01*
X284653D01*
Y175402D01*
X284092D01*
Y176862D01*
X284850D01*
Y181405D01*
X280504D01*
Y176862D01*
X281065D01*
Y175402D01*
X280504D01*
Y171055D01*
X281065D01*
Y169496D01*
X280504D01*
Y165150D01*
X284653D01*
Y165810D01*
X293307D01*
X293307Y165810D01*
X293886Y165925D01*
X294377Y166253D01*
X297704Y169579D01*
X298122Y169776D01*
X303059D01*
Y173016D01*
X303059Y173138D01*
Y173516D01*
X303227Y173684D01*
X305315D01*
X305315Y173684D01*
X305398Y173700D01*
X305897Y173291D01*
X305898Y173290D01*
Y172047D01*
X312213D01*
Y172986D01*
X312674Y173177D01*
X313772Y172080D01*
Y168595D01*
X320087D01*
Y174319D01*
X315813D01*
X314519Y175613D01*
X314711Y176075D01*
X320087D01*
Y181799D01*
X318443D01*
Y186241D01*
X323601Y191400D01*
X327067D01*
X327067Y191400D01*
X327213Y191429D01*
X330267D01*
X330413Y191400D01*
X333035D01*
X335950Y188484D01*
X335206Y187740D01*
X334878Y187249D01*
X334763Y186670D01*
X334305Y186524D01*
X322728D01*
Y180209D01*
X327227D01*
Y177173D01*
X325189D01*
Y166134D01*
X332291D01*
Y177173D01*
X330254D01*
Y180209D01*
X334752Y180209D01*
X334763Y179713D01*
Y177700D01*
X334763Y177700D01*
X334878Y177121D01*
X335206Y176630D01*
X337394Y174443D01*
Y172703D01*
X335544Y170853D01*
X335216Y170363D01*
X335101Y169783D01*
X335101Y169783D01*
Y159154D01*
X335101Y159153D01*
X335216Y158574D01*
X335544Y158083D01*
X338673Y154954D01*
Y150681D01*
X339333D01*
Y148925D01*
X338083D01*
Y142413D01*
X341962D01*
X344017Y140359D01*
X344017Y140359D01*
X344508Y140031D01*
X345087Y139916D01*
X345087Y139916D01*
X352846D01*
X352847Y139916D01*
X353426Y140031D01*
X353917Y140359D01*
X355401Y141843D01*
X355729Y142334D01*
X355796Y142670D01*
X356021Y142762D01*
X356334Y142819D01*
X356824Y142491D01*
X357480Y142361D01*
X359117D01*
Y135441D01*
X354323D01*
Y128339D01*
X362365D01*
Y127854D01*
X362365Y127854D01*
X362480Y127275D01*
X362808Y126784D01*
X363608Y125984D01*
X362709Y125086D01*
X362381Y124595D01*
X362266Y124016D01*
X362266Y124016D01*
Y122547D01*
X360524D01*
Y109736D01*
X367035D01*
Y110236D01*
X369185D01*
Y109736D01*
X370928D01*
Y93540D01*
X362533Y85146D01*
X355799D01*
Y82222D01*
X351021D01*
X321366Y111876D01*
Y118610D01*
X318443D01*
Y155118D01*
X318443Y155118D01*
X318327Y155697D01*
X317999Y156188D01*
X317999Y156188D01*
X311700Y162487D01*
X311209Y162815D01*
X310630Y162931D01*
X310630Y162931D01*
X276352D01*
X276247Y163001D01*
X275590Y163131D01*
X274935Y163001D01*
X274378Y162629D01*
X274007Y162073D01*
X273877Y161417D01*
X274007Y160761D01*
X274378Y160205D01*
X274560Y160084D01*
X274408Y159584D01*
X270964D01*
X270772Y160046D01*
X275876Y165150D01*
X278551D01*
Y169496D01*
X275144D01*
X274953Y169958D01*
X276050Y171055D01*
X278551D01*
Y175402D01*
X274402D01*
Y173662D01*
X274324Y173609D01*
X274324Y173609D01*
X269645Y168931D01*
X269521Y168906D01*
X268965Y168535D01*
X268594Y167979D01*
X268463Y167323D01*
X268594Y166667D01*
X268965Y166111D01*
X269521Y165739D01*
X270177Y165609D01*
X270833Y165739D01*
X271389Y166111D01*
X271761Y166667D01*
X271785Y166791D01*
X273940Y168945D01*
X274402Y168754D01*
Y166821D01*
X249851Y142269D01*
X245948D01*
X244992Y143226D01*
X245183Y143687D01*
X245594D01*
X245595Y143687D01*
X245595Y143687D01*
X245971D01*
X246550Y143803D01*
X247041Y144131D01*
X247376Y144086D01*
X248031Y143955D01*
X248687Y144086D01*
X249243Y144457D01*
X249615Y145013D01*
X249745Y145669D01*
X249615Y146325D01*
X249243Y146881D01*
X248687Y147253D01*
X248031Y147383D01*
X247376Y147253D01*
X247270Y147183D01*
X246063D01*
X245484Y147067D01*
X244993Y146739D01*
X244993Y146739D01*
X244968Y146714D01*
X201118D01*
X199383Y148449D01*
X198892Y148777D01*
X198313Y148892D01*
X198313Y148892D01*
X192093D01*
X191600Y149221D01*
X190945Y149352D01*
X190289Y149221D01*
X189797Y148892D01*
X174016D01*
X169410Y153498D01*
X169617Y153998D01*
X184350D01*
X184350Y153998D01*
X184930Y154114D01*
X185421Y154442D01*
X187536Y156558D01*
X226968D01*
X226969Y156558D01*
X227548Y156673D01*
X228039Y157001D01*
X232910Y161872D01*
X266955D01*
X267061Y161802D01*
X267717Y161672D01*
X268373Y161802D01*
X268929Y162174D01*
X269300Y162730D01*
X269431Y163386D01*
X269300Y164042D01*
X268929Y164598D01*
X268373Y164969D01*
X267717Y165100D01*
X267061Y164969D01*
X266955Y164899D01*
X232283D01*
X232283Y164899D01*
X231704Y164784D01*
X231213Y164456D01*
X231213Y164456D01*
X226342Y159584D01*
X186909D01*
X186909Y159584D01*
X186824Y159567D01*
X186578Y160028D01*
X188871Y162322D01*
X190465D01*
X190683Y162176D01*
X191339Y162046D01*
X197638D01*
X198294Y162176D01*
X198850Y162548D01*
X199221Y163104D01*
X199352Y163760D01*
X199221Y164416D01*
X198850Y164972D01*
X198294Y165343D01*
X197638Y165474D01*
X191339D01*
X190708Y165348D01*
X188245D01*
X188245Y165348D01*
X187665Y165233D01*
X187174Y164905D01*
X187174Y164905D01*
X183231Y160962D01*
X170695D01*
X169170Y162487D01*
X168679Y162815D01*
X168100Y162931D01*
X168100Y162931D01*
X166740D01*
Y163689D01*
X162394D01*
Y159146D01*
X163054D01*
Y154421D01*
X163054Y154421D01*
X163169Y153842D01*
X163497Y153351D01*
X165072Y151776D01*
X165072Y151776D01*
X165563Y151448D01*
X166142Y151333D01*
X167295D01*
X171249Y147379D01*
X166157Y142287D01*
X165657Y142494D01*
Y143239D01*
X163976D01*
Y141065D01*
Y138892D01*
X165278D01*
Y136939D01*
X161114D01*
Y133977D01*
X160875Y133788D01*
X160376Y134011D01*
Y148413D01*
X160376Y148413D01*
X160292Y148838D01*
X160050Y149199D01*
X160050Y149199D01*
X154671Y154579D01*
Y157149D01*
X154671Y157149D01*
X154655Y157228D01*
Y162233D01*
X155589Y163168D01*
X156095D01*
Y162008D01*
X158268D01*
X160441D01*
Y163187D01*
X160768Y163252D01*
X161129Y163493D01*
X162204Y164568D01*
X162204Y164568D01*
X162445Y164929D01*
X162488Y165150D01*
X166543D01*
Y165724D01*
X167043Y165931D01*
X169921Y163054D01*
X170282Y162813D01*
X170707Y162728D01*
X171109D01*
X171229Y162548D01*
X171785Y162176D01*
X172441Y162046D01*
X178740D01*
X179396Y162176D01*
X179952Y162548D01*
X180324Y163104D01*
X180454Y163760D01*
X180324Y164416D01*
X179952Y164972D01*
X179396Y165343D01*
X178740Y165474D01*
X172441D01*
X171785Y165343D01*
X171229Y164972D01*
X170847Y165272D01*
X168011Y168109D01*
X167650Y168350D01*
X167224Y168435D01*
X167224Y168435D01*
X166543D01*
Y169496D01*
X162529D01*
Y170957D01*
X166740D01*
X167147Y170732D01*
X167407Y170343D01*
X167963Y169972D01*
X168524Y169860D01*
X170619Y167765D01*
X170619Y167765D01*
X171110Y167437D01*
X171516Y167356D01*
X171785Y167176D01*
X172441Y167046D01*
X178740D01*
X179396Y167176D01*
X179952Y167548D01*
X180324Y168104D01*
X180454Y168760D01*
X180324Y169416D01*
X179952Y169972D01*
X179396Y170343D01*
X178740Y170474D01*
X172441D01*
X172232Y170432D01*
X168366Y174298D01*
X167875Y174627D01*
X167296Y174742D01*
X167296Y174742D01*
X166740D01*
Y175500D01*
X162529D01*
Y176961D01*
X166543D01*
Y177648D01*
X171162D01*
X171229Y177548D01*
X171785Y177176D01*
X172441Y177046D01*
X178740D01*
X179396Y177176D01*
X179952Y177548D01*
X180324Y178104D01*
X180454Y178760D01*
X180324Y179416D01*
X179952Y179972D01*
X179396Y180343D01*
X178740Y180474D01*
X172441D01*
X171785Y180343D01*
X171229Y179972D01*
X171162Y179872D01*
X166543D01*
Y181307D01*
X162394D01*
Y178469D01*
X161894Y178261D01*
X161318Y178837D01*
X160957Y179078D01*
X160531Y179163D01*
X160441Y179652D01*
Y181307D01*
X156291D01*
Y176961D01*
X159243D01*
X159350Y176939D01*
X160071D01*
X160305Y176705D01*
Y175500D01*
X158858D01*
Y173228D01*
Y170957D01*
X160305D01*
Y169496D01*
X156291D01*
Y167677D01*
X155037D01*
X154611Y167592D01*
X154250Y167351D01*
X154250Y167351D01*
X151582Y164682D01*
X151120Y164874D01*
Y173150D01*
X151120Y173150D01*
X151004Y173729D01*
X150676Y174220D01*
X150676Y174220D01*
X141911Y182985D01*
X141420Y183313D01*
X140841Y183429D01*
X140841Y183429D01*
X124420D01*
X116899Y190950D01*
Y205295D01*
X116899Y205295D01*
X116784Y205874D01*
X116456Y206365D01*
X116456Y206365D01*
X105397Y217424D01*
X104906Y217753D01*
X104327Y217868D01*
X104327Y217868D01*
X77984D01*
X77405Y217753D01*
X76914Y217424D01*
X76914Y217424D01*
X70239Y210750D01*
X40085D01*
X40085Y210750D01*
X39506Y210634D01*
X39015Y210306D01*
X39015Y210306D01*
X32534Y203826D01*
X32206Y203335D01*
X32091Y202756D01*
X32091Y202756D01*
Y185648D01*
X32091Y185647D01*
X32206Y185068D01*
X32534Y184577D01*
X34127Y182985D01*
X33827Y182261D01*
X33674Y181102D01*
X33827Y179944D01*
X34274Y178865D01*
X34985Y177938D01*
X35912Y177227D01*
X36636Y176927D01*
Y60745D01*
X35032Y59141D01*
X34308Y59441D01*
X33150Y59593D01*
X31991Y59441D01*
X30912Y58994D01*
X29985Y58283D01*
X29274Y57356D01*
X28827Y56276D01*
X28674Y55118D01*
X28827Y53960D01*
X29274Y52881D01*
X29985Y51954D01*
X30912Y51242D01*
X31991Y50795D01*
X33150Y50643D01*
X34308Y50795D01*
X35387Y51242D01*
X36314Y51954D01*
X37025Y52881D01*
X37472Y53960D01*
X37625Y55118D01*
X37472Y56276D01*
X37172Y57001D01*
X39220Y59048D01*
X39220Y59048D01*
X39548Y59539D01*
X39663Y60118D01*
X39663Y60118D01*
Y73685D01*
X40125Y73877D01*
X48142Y65859D01*
X48142Y65859D01*
X48634Y65531D01*
X49213Y65416D01*
X55672D01*
X61213Y59875D01*
Y59119D01*
X60912Y58994D01*
X59985Y58283D01*
X59274Y57356D01*
X58827Y56276D01*
X58674Y55118D01*
X58827Y53960D01*
X59274Y52881D01*
X59985Y51954D01*
X60912Y51242D01*
X61991Y50795D01*
X63150Y50643D01*
X64308Y50795D01*
X65387Y51242D01*
X66314Y51954D01*
X67025Y52881D01*
X67472Y53960D01*
X67625Y55118D01*
X67472Y56276D01*
X67025Y57356D01*
X66314Y58283D01*
X65387Y58994D01*
X64308Y59441D01*
X64240Y59450D01*
Y60502D01*
X64240Y60502D01*
X64125Y61081D01*
X63797Y61572D01*
X57369Y67999D01*
X56878Y68327D01*
X56299Y68442D01*
X56299Y68442D01*
X49839D01*
X42131Y76151D01*
Y77122D01*
X42593Y77314D01*
X49573Y70334D01*
X49597Y70210D01*
X49969Y69654D01*
X50525Y69283D01*
X51181Y69152D01*
X51837Y69283D01*
X52393Y69654D01*
X52765Y70210D01*
X52895Y70866D01*
X52765Y71522D01*
X52393Y72078D01*
X51837Y72450D01*
X51713Y72474D01*
X44600Y79588D01*
Y165412D01*
X56267Y177080D01*
X56991Y176779D01*
X58150Y176627D01*
X59308Y176779D01*
X60387Y177227D01*
X61314Y177938D01*
X62025Y178865D01*
X62472Y179944D01*
X62625Y181102D01*
X62472Y182261D01*
X62172Y182985D01*
X64682Y185494D01*
X65852D01*
X65952Y184994D01*
X65912Y184978D01*
X64985Y184267D01*
X64274Y183340D01*
X63827Y182261D01*
X63752Y181693D01*
X68150D01*
X72547D01*
X72472Y182261D01*
X72025Y183340D01*
X71314Y184267D01*
X70387Y184978D01*
X70347Y184994D01*
X70447Y185494D01*
X89048D01*
X89147Y184994D01*
X87810Y184441D01*
X86422Y183590D01*
X85184Y182533D01*
X84127Y181295D01*
X83276Y179907D01*
X82653Y178403D01*
X82273Y176820D01*
X82145Y175197D01*
X82273Y173574D01*
X82653Y171991D01*
X83276Y170487D01*
X84127Y169099D01*
X85184Y167861D01*
X86422Y166804D01*
X87810Y165953D01*
X89314Y165330D01*
X90897Y164950D01*
X92520Y164822D01*
X94143Y164950D01*
X95726Y165330D01*
X97230Y165953D01*
X98618Y166804D01*
X99856Y167861D01*
X100913Y169099D01*
X101763Y170487D01*
X102386Y171991D01*
X102767Y173574D01*
X102894Y175197D01*
X102767Y176820D01*
X102386Y178403D01*
X101763Y179907D01*
X100913Y181295D01*
X99856Y182533D01*
X98618Y183590D01*
X97230Y184441D01*
X95726Y185064D01*
X94143Y185444D01*
X92520Y185571D01*
X91899Y185522D01*
X91756Y185737D01*
X91691Y186008D01*
X95558Y189875D01*
X95558Y189875D01*
X95886Y190366D01*
X96001Y190945D01*
Y197630D01*
X96661D01*
Y201780D01*
X92315D01*
Y197630D01*
X92975D01*
Y191572D01*
X89924Y188521D01*
X88138D01*
X87946Y188983D01*
X89653Y190690D01*
X89981Y191181D01*
X90096Y191760D01*
X90096Y191760D01*
Y197630D01*
X90756D01*
Y201780D01*
X86409D01*
Y197630D01*
X87069D01*
Y192387D01*
X85672Y190990D01*
X82547D01*
X82356Y191452D01*
X83747Y192843D01*
X83747Y192843D01*
X84075Y193334D01*
X84190Y193913D01*
Y197630D01*
X84850D01*
Y201780D01*
X80504D01*
Y199260D01*
X80475Y199114D01*
X80504Y198968D01*
Y197630D01*
X81164D01*
Y194540D01*
X80082Y193458D01*
X76641D01*
X76450Y193920D01*
X77790Y195260D01*
X77790Y195260D01*
X78118Y195751D01*
X78233Y196330D01*
X78233Y196330D01*
Y197630D01*
X78945D01*
Y201780D01*
X74598D01*
Y197630D01*
X75207D01*
Y196957D01*
X74176Y195927D01*
X64087D01*
X63000Y197014D01*
Y202764D01*
X55110D01*
Y195557D01*
X54648Y195366D01*
X52701Y197313D01*
X52899Y197789D01*
X53034Y198819D01*
X52899Y199849D01*
X52501Y200808D01*
X51869Y201632D01*
X51045Y202265D01*
X50085Y202662D01*
X49055Y202798D01*
X48025Y202662D01*
X47066Y202265D01*
X46242Y201632D01*
X45609Y200808D01*
X45212Y199849D01*
X45076Y198819D01*
X45212Y197789D01*
X45609Y196829D01*
X46242Y196005D01*
X47066Y195373D01*
X48025Y194976D01*
X49055Y194840D01*
X50085Y194976D01*
X50561Y195173D01*
X54859Y190875D01*
X54859Y190875D01*
X54988Y190788D01*
X55090Y190288D01*
X55052Y190145D01*
X50032Y185125D01*
X49308Y185425D01*
X48150Y185578D01*
X46991Y185425D01*
X45912Y184978D01*
X44985Y184267D01*
X44274Y183340D01*
X43827Y182261D01*
X43674Y181102D01*
X43827Y179944D01*
X44127Y179220D01*
X40125Y175218D01*
X39663Y175409D01*
Y176927D01*
X40387Y177227D01*
X41314Y177938D01*
X42025Y178865D01*
X42472Y179944D01*
X42625Y181102D01*
X42472Y182261D01*
X42025Y183340D01*
X41314Y184267D01*
X40387Y184978D01*
X39308Y185425D01*
X38150Y185578D01*
X36991Y185425D01*
X36267Y185125D01*
X35118Y186274D01*
Y196709D01*
X35582Y196823D01*
X35618Y196818D01*
X36242Y196005D01*
X37066Y195373D01*
X38025Y194976D01*
X38465Y194918D01*
Y198819D01*
Y202720D01*
X38025Y202662D01*
X37066Y202265D01*
X36242Y201632D01*
X35618Y200819D01*
X35582Y200815D01*
X35118Y200928D01*
Y202129D01*
X40712Y207723D01*
X68594D01*
Y203732D01*
X73138D01*
Y208079D01*
X72379D01*
Y208609D01*
X75200Y211430D01*
X75661Y211184D01*
X75608Y210917D01*
X75608Y210917D01*
Y207882D01*
X74598D01*
Y203732D01*
X78945D01*
Y206684D01*
X78966Y206791D01*
X78945Y206899D01*
Y207882D01*
X77962D01*
X77854Y207903D01*
X77832Y207922D01*
Y210457D01*
X80543Y213168D01*
X83197D01*
X83389Y212706D01*
X81891Y211208D01*
X81650Y210847D01*
X81565Y210422D01*
X81565Y210421D01*
Y207882D01*
X80504D01*
Y203732D01*
X84850D01*
Y206684D01*
X84872Y206791D01*
X84850Y206899D01*
Y207882D01*
X83867D01*
X83789Y207897D01*
Y209961D01*
X85315Y211487D01*
X88895D01*
X89086Y211025D01*
X87796Y209735D01*
X87555Y209374D01*
X87471Y208949D01*
X87471Y208949D01*
Y207882D01*
X86409D01*
Y203732D01*
X90756D01*
Y207882D01*
X89695D01*
Y208488D01*
X91012Y209805D01*
X94027D01*
X94219Y209344D01*
X93702Y208827D01*
X93461Y208466D01*
X93376Y208040D01*
X92927Y207882D01*
X92315D01*
Y203732D01*
X96661D01*
Y207882D01*
X97061Y208124D01*
X100918D01*
X107156Y201886D01*
Y171028D01*
X92272Y156145D01*
X92031Y155784D01*
X91947Y155359D01*
X91947Y155359D01*
Y115603D01*
X91947Y115603D01*
X92031Y115177D01*
X92272Y114817D01*
X105119Y101970D01*
X105119Y101970D01*
X105480Y101729D01*
X105905Y101644D01*
X119213D01*
X119233Y101615D01*
X119432Y101482D01*
Y100880D01*
X119233Y100747D01*
X118883Y100224D01*
X118760Y99606D01*
X118883Y98989D01*
X119233Y98465D01*
X119432Y98332D01*
Y97731D01*
X119233Y97598D01*
X118883Y97074D01*
X118878Y97047D01*
X122441D01*
X126004D01*
X125999Y97074D01*
X125649Y97598D01*
X125450Y97731D01*
Y98332D01*
X125649Y98465D01*
X125999Y98989D01*
X126122Y99606D01*
X125999Y100224D01*
X125649Y100747D01*
X125450Y100880D01*
Y101482D01*
X125649Y101615D01*
X125999Y102138D01*
X126122Y102756D01*
X125999Y103373D01*
X125649Y103897D01*
X125450Y104030D01*
Y104631D01*
X125649Y104764D01*
X125999Y105288D01*
X126122Y105905D01*
X125999Y106523D01*
X125649Y107047D01*
X125450Y107180D01*
Y107781D01*
X125649Y107914D01*
X125999Y108438D01*
X126122Y109055D01*
X125999Y109673D01*
X125649Y110196D01*
X125450Y110329D01*
Y110931D01*
X125649Y111064D01*
X125999Y111587D01*
X126122Y112205D01*
X125999Y112822D01*
X125649Y113346D01*
X125125Y113696D01*
X124508Y113818D01*
X120374D01*
X119756Y113696D01*
X119337Y113415D01*
X103951D01*
X99214Y118152D01*
Y152809D01*
X114097Y167693D01*
X114097Y167693D01*
X114338Y168053D01*
X114423Y168479D01*
Y188492D01*
X114885Y188684D01*
X122723Y180845D01*
X122723Y180845D01*
X123214Y180517D01*
X123793Y180402D01*
X140214D01*
X148093Y172523D01*
Y156273D01*
X148023Y156168D01*
X147892Y155512D01*
X148023Y154856D01*
X148394Y154300D01*
X148950Y153928D01*
X149606Y153798D01*
X150250Y153926D01*
X150340Y153942D01*
X150750Y153654D01*
Y153438D01*
X150750Y153437D01*
X150835Y153012D01*
X151076Y152651D01*
X156471Y147256D01*
Y133987D01*
X149797Y127313D01*
X145197D01*
X144772Y127228D01*
X144411Y126988D01*
X144411Y126988D01*
X143031Y125608D01*
X142913Y125631D01*
X142257Y125501D01*
X141701Y125129D01*
X141330Y124573D01*
X141199Y123917D01*
X141330Y123261D01*
X141595Y122864D01*
X141584Y122770D01*
X141407Y122379D01*
X141383Y122351D01*
X140918Y122259D01*
X140394Y121909D01*
X140261Y121710D01*
X139660D01*
X139527Y121909D01*
X139003Y122259D01*
X138976Y122264D01*
Y118701D01*
Y115138D01*
X139003Y115143D01*
X139527Y115493D01*
X139571Y115558D01*
X140111Y115590D01*
X140424Y115259D01*
Y114469D01*
X140424Y114469D01*
X140508Y114043D01*
X140749Y113682D01*
X142589Y111843D01*
Y106601D01*
X130407Y94419D01*
X125668D01*
X125649Y94448D01*
X125450Y94581D01*
Y95183D01*
X125649Y95316D01*
X125999Y95839D01*
X126004Y95866D01*
X122441D01*
X118878D01*
X118883Y95839D01*
X119233Y95316D01*
X119432Y95183D01*
Y94581D01*
X119233Y94448D01*
X118883Y93925D01*
X118871Y93863D01*
X118767Y93842D01*
X118407Y93601D01*
X118407Y93601D01*
X115287Y90482D01*
X114476D01*
Y91543D01*
X109933D01*
Y87197D01*
X114476D01*
Y88258D01*
X115748D01*
X115748Y88258D01*
X116174Y88343D01*
X116534Y88584D01*
X118286Y90336D01*
X118601Y90217D01*
X118769Y90112D01*
X118883Y89540D01*
X119233Y89016D01*
X119432Y88883D01*
Y88282D01*
X119233Y88149D01*
X118883Y87625D01*
X118760Y87008D01*
X118883Y86390D01*
X119233Y85867D01*
X119432Y85734D01*
Y85132D01*
X119233Y84999D01*
X118883Y84476D01*
X118760Y83858D01*
X118883Y83241D01*
X119233Y82717D01*
X119432Y82584D01*
Y81983D01*
X119233Y81850D01*
X118883Y81326D01*
X118760Y80709D01*
X118883Y80091D01*
X119233Y79568D01*
X119756Y79218D01*
X120374Y79095D01*
X121329D01*
Y77543D01*
X111411Y67624D01*
X111170Y67264D01*
X111085Y66838D01*
X111085Y66838D01*
Y50370D01*
X107611Y46895D01*
X99926D01*
X99926Y46895D01*
X99501Y46811D01*
X99140Y46570D01*
X96407Y43836D01*
X83591D01*
X83165Y43752D01*
X82804Y43511D01*
X82804Y43511D01*
X78207Y38913D01*
X77329Y39276D01*
X76299Y39412D01*
X75269Y39276D01*
X74310Y38879D01*
X73486Y38247D01*
X72853Y37422D01*
X72456Y36463D01*
X72320Y35433D01*
X72456Y34403D01*
X72853Y33444D01*
X73486Y32620D01*
X74310Y31987D01*
X75269Y31590D01*
X76299Y31454D01*
X77329Y31590D01*
X78289Y31987D01*
X79113Y32620D01*
X79687Y33367D01*
X79977Y33332D01*
X80187Y33232D01*
Y31798D01*
X79028Y30639D01*
X71327D01*
X69214Y32752D01*
X69745Y33444D01*
X70143Y34403D01*
X70278Y35433D01*
X70143Y36463D01*
X69745Y37422D01*
X69113Y38247D01*
X68289Y38879D01*
X67329Y39276D01*
X66299Y39412D01*
X65269Y39276D01*
X64310Y38879D01*
X63486Y38247D01*
X62853Y37422D01*
X62456Y36463D01*
X62320Y35433D01*
X62456Y34403D01*
X62853Y33444D01*
X63486Y32620D01*
X64310Y31987D01*
X65269Y31590D01*
X66299Y31454D01*
X67243Y31578D01*
X70080Y28741D01*
X70080Y28741D01*
X70441Y28500D01*
X70866Y28416D01*
X79488D01*
X79488Y28416D01*
X79914Y28500D01*
X80274Y28741D01*
X82085Y30552D01*
X82085Y30552D01*
X82326Y30912D01*
X82411Y31338D01*
Y33233D01*
X82628Y33337D01*
X82911Y33369D01*
X83486Y32620D01*
X84310Y31987D01*
X85269Y31590D01*
X85709Y31532D01*
Y35433D01*
Y39334D01*
X85286Y39279D01*
X85244Y39313D01*
X84979Y39697D01*
X85163Y39931D01*
X96055D01*
X96313Y39431D01*
X96300Y39413D01*
X96278Y39409D01*
X95269Y39276D01*
X94310Y38879D01*
X93486Y38247D01*
X92853Y37422D01*
X92456Y36463D01*
X92320Y35433D01*
X92456Y34403D01*
X92853Y33444D01*
X93486Y32620D01*
X94310Y31987D01*
X95269Y31590D01*
X96299Y31454D01*
X97329Y31590D01*
X98289Y31987D01*
X99113Y32620D01*
X99745Y33444D01*
X100143Y34403D01*
X100278Y35433D01*
X100143Y36463D01*
X99745Y37422D01*
X99113Y38247D01*
X99088Y38618D01*
X101779Y41309D01*
X119874D01*
Y40347D01*
X124221D01*
Y44496D01*
X123159D01*
Y45602D01*
X128543Y50986D01*
X140198D01*
X140389Y50524D01*
X134361Y44496D01*
X131685D01*
Y40347D01*
X136031D01*
Y43022D01*
X137091Y44081D01*
X137591Y43874D01*
Y40347D01*
X141937D01*
Y44496D01*
X141937D01*
X142010Y44966D01*
X144078Y47034D01*
X148056D01*
X148247Y46572D01*
X146172Y44496D01*
X143496D01*
Y40347D01*
X147843D01*
Y43022D01*
X148902Y44081D01*
X149402Y43874D01*
Y40347D01*
X153748D01*
Y44496D01*
X153075D01*
X152868Y44996D01*
X155806Y47934D01*
X156348Y47770D01*
X156404Y47490D01*
X156776Y46933D01*
X157332Y46562D01*
X157988Y46431D01*
X158644Y46562D01*
X159200Y46933D01*
X159571Y47490D01*
X159702Y48145D01*
X159698Y48163D01*
X159937Y48380D01*
X160323Y48184D01*
X160404Y48128D01*
X160531Y47490D01*
X160902Y46933D01*
X161458Y46562D01*
X162114Y46431D01*
X162770Y46562D01*
X163326Y46933D01*
X163393Y47034D01*
X165961D01*
X167998Y44996D01*
X167791Y44496D01*
X167118D01*
Y43533D01*
X165559D01*
Y44496D01*
X161213D01*
Y40347D01*
X165559D01*
Y41309D01*
X167118D01*
Y40347D01*
X171465D01*
Y44496D01*
X170403D01*
Y45276D01*
X170403Y45276D01*
X170319Y45701D01*
X170078Y46062D01*
X167911Y48228D01*
X170078Y50395D01*
X170078Y50395D01*
X170319Y50756D01*
X170403Y51181D01*
Y72872D01*
X170403Y72872D01*
X170319Y73298D01*
X170078Y73658D01*
X170078Y73658D01*
X165141Y78595D01*
X165348Y79095D01*
X168996D01*
X169614Y79218D01*
X170137Y79568D01*
X170157Y79597D01*
X178673D01*
X181959Y76311D01*
Y50756D01*
X175699Y44496D01*
X173024D01*
Y40347D01*
X177370D01*
Y43022D01*
X183857Y49509D01*
X183857Y49509D01*
X184098Y49870D01*
X184183Y50295D01*
X184183Y50295D01*
Y76772D01*
X184098Y77197D01*
X183857Y77558D01*
X183857Y77558D01*
X179920Y81495D01*
X179559Y81736D01*
X179134Y81821D01*
X179134Y81821D01*
X170157D01*
X170137Y81850D01*
X170072Y81893D01*
X170040Y82433D01*
X170371Y82746D01*
X182283D01*
X182283Y82746D01*
X182709Y82831D01*
X183070Y83072D01*
X185826Y85828D01*
X186067Y86189D01*
X186151Y86614D01*
Y118898D01*
X186067Y119323D01*
X185826Y119684D01*
X185826Y119684D01*
X181132Y124378D01*
Y125779D01*
X182095D01*
Y130126D01*
X178384D01*
Y130650D01*
X179419Y131685D01*
X182095D01*
Y134361D01*
X183521Y135787D01*
X184047D01*
Y131685D01*
X185010D01*
Y130126D01*
X184047D01*
Y125779D01*
X185010D01*
Y125118D01*
X185010Y125118D01*
X185095Y124693D01*
X185336Y124332D01*
X188407Y121261D01*
X188407Y121261D01*
X188767Y121020D01*
X189193Y120935D01*
X189193Y120935D01*
X192638D01*
X192984Y120579D01*
Y114067D01*
X197921D01*
Y120579D01*
X196489D01*
Y121159D01*
X196404Y121584D01*
X196163Y121945D01*
X196163Y121945D01*
X195274Y122834D01*
X194914Y123074D01*
X194488Y123159D01*
X194488Y123159D01*
X189654D01*
X187533Y125279D01*
X187740Y125779D01*
X188197D01*
Y130126D01*
X187234D01*
Y131685D01*
X188197D01*
Y135787D01*
X190298D01*
X191374Y134711D01*
X191407Y134631D01*
X191353Y134025D01*
X190039Y132711D01*
X189915Y132686D01*
X189359Y132314D01*
X188987Y131758D01*
X188857Y131102D01*
X188987Y130446D01*
X189359Y129890D01*
X189915Y129519D01*
X190137Y129475D01*
X191724Y127887D01*
Y125779D01*
X195874D01*
Y129701D01*
X196374Y129908D01*
X197827Y128455D01*
Y125779D01*
X201976D01*
Y128928D01*
X201998Y129035D01*
Y129559D01*
X203217Y130778D01*
X205209D01*
Y130512D01*
X206890D01*
X208571D01*
Y132457D01*
X209071Y132664D01*
X209518Y132217D01*
Y129035D01*
X209518Y129035D01*
X209603Y128610D01*
X209844Y128249D01*
X210926Y127166D01*
X210926Y127166D01*
X211287Y126926D01*
X211713Y126841D01*
X212689D01*
Y126764D01*
X216051D01*
X216211Y126330D01*
Y124127D01*
X216211Y124126D01*
X216296Y123701D01*
X216537Y123340D01*
X217718Y122159D01*
X217718Y122159D01*
X218078Y121918D01*
X218504Y121833D01*
X226496D01*
X226742Y121587D01*
Y120579D01*
X225189D01*
Y114067D01*
X230520D01*
Y120579D01*
X228966D01*
Y122047D01*
X228966Y122047D01*
X228882Y122473D01*
X228641Y122834D01*
X228641Y122834D01*
X227743Y123732D01*
X227382Y123973D01*
X226956Y124057D01*
X226956Y124057D01*
X225980D01*
X225500Y124106D01*
X225500Y124557D01*
Y129331D01*
X222539D01*
X219579D01*
Y124557D01*
X219579Y124106D01*
X219099Y124057D01*
X218965D01*
X218435Y124587D01*
Y131102D01*
X218350Y131528D01*
X218109Y131889D01*
X218109Y131889D01*
X217322Y132676D01*
X216961Y132917D01*
X216535Y133002D01*
X216535Y133002D01*
X216051D01*
Y133079D01*
X212689D01*
Y130512D01*
X214370D01*
Y129331D01*
X212689D01*
Y129065D01*
X212173D01*
X211742Y129496D01*
Y132677D01*
X211742Y132677D01*
X211657Y133103D01*
X211416Y133463D01*
X209448Y135432D01*
X209087Y135673D01*
X208661Y135758D01*
X208661Y135758D01*
X201976D01*
Y136031D01*
X200251D01*
Y136487D01*
X200166Y136912D01*
X199925Y137273D01*
X199925Y137273D01*
X199008Y138190D01*
X199199Y138652D01*
X241665D01*
X243824Y136493D01*
X243633Y136031D01*
X240937D01*
Y131685D01*
X241498D01*
Y130126D01*
X240937D01*
Y127508D01*
X240908Y127362D01*
X240908Y127362D01*
Y126808D01*
X240158Y126058D01*
X239231Y126984D01*
X238740Y127312D01*
X238161Y127427D01*
X238161Y127427D01*
X237114D01*
Y135736D01*
X231193D01*
Y124106D01*
X237114D01*
Y124207D01*
X237614Y124320D01*
X238017Y123917D01*
X237048Y122949D01*
X236720Y122458D01*
X236605Y121878D01*
X236605Y121878D01*
Y120579D01*
X235032D01*
Y114067D01*
X240362D01*
Y120579D01*
X239632D01*
Y121251D01*
X240689Y122309D01*
X240813Y122334D01*
X241370Y122705D01*
X241741Y123261D01*
X241766Y123385D01*
X243491Y125111D01*
X243491Y125111D01*
X243819Y125602D01*
X243855Y125779D01*
X245087D01*
Y129701D01*
X245587Y129908D01*
X247039Y128455D01*
Y125779D01*
X251189D01*
Y128928D01*
X251210Y129035D01*
Y129559D01*
X252429Y130778D01*
X254421D01*
Y130512D01*
X256102D01*
X257784D01*
Y132457D01*
X258283Y132664D01*
X258731Y132217D01*
Y129035D01*
X258731Y129035D01*
X258815Y128610D01*
X259056Y128249D01*
X260139Y127166D01*
X260500Y126926D01*
X260925Y126841D01*
X261902D01*
Y126764D01*
X265264D01*
Y129331D01*
X263583D01*
X261902D01*
Y129065D01*
X261386D01*
X260954Y129496D01*
Y132677D01*
X260954Y132677D01*
X260870Y133103D01*
X260629Y133463D01*
X260629Y133463D01*
X258685Y135407D01*
X258324Y135648D01*
X257899Y135733D01*
X257898Y135733D01*
X251189D01*
Y136031D01*
X249727D01*
X249242Y136137D01*
X249157Y136563D01*
X248916Y136924D01*
X248916Y136924D01*
X246256Y139584D01*
X246447Y140046D01*
X250311D01*
X250311Y140046D01*
X250736Y140130D01*
X251097Y140371D01*
X253930Y143204D01*
X254392Y143013D01*
Y140525D01*
X254322Y140420D01*
X254191Y139764D01*
X254322Y139108D01*
X254694Y138552D01*
X255250Y138180D01*
X255906Y138050D01*
X256561Y138180D01*
X257118Y138552D01*
X257489Y139108D01*
X257620Y139764D01*
X257489Y140420D01*
X257419Y140525D01*
Y143191D01*
X270785Y156558D01*
X277782D01*
X277887Y156487D01*
X278543Y156357D01*
X279199Y156487D01*
X279755Y156859D01*
X280127Y157415D01*
X280131Y157436D01*
X308981D01*
X312947Y153469D01*
Y128481D01*
X307275Y122809D01*
X306947Y122318D01*
X306832Y121739D01*
X306832Y121739D01*
Y73335D01*
X303240D01*
Y64461D01*
X305152D01*
Y63788D01*
X301440Y60076D01*
X301112Y59585D01*
X300996Y59006D01*
X300996Y59006D01*
Y14420D01*
X300996Y14420D01*
X301112Y13840D01*
X301440Y13349D01*
X304618Y10171D01*
Y6193D01*
X316948D01*
X317184Y5906D01*
X317314Y5250D01*
X317686Y4693D01*
X318242Y4322D01*
X318898Y4191D01*
X319554Y4322D01*
X320110Y4693D01*
X320457Y5213D01*
X320493Y5217D01*
X320957Y5012D01*
Y5012D01*
X332587D01*
Y5906D01*
X335637D01*
X336466Y4552D01*
X337725Y3079D01*
X339198Y1820D01*
X340850Y808D01*
X341594Y500D01*
X341494Y0D01*
X56144D01*
X56044Y500D01*
X56788Y808D01*
X58440Y1820D01*
X59913Y3079D01*
X61172Y4552D01*
X62184Y6205D01*
X62926Y7995D01*
X63378Y9879D01*
X63530Y11811D01*
X63378Y13743D01*
X62926Y15627D01*
X62184Y17417D01*
X61172Y19070D01*
X59913Y20543D01*
X58440Y21802D01*
X56788Y22814D01*
X54997Y23556D01*
X53113Y24008D01*
X51181Y24160D01*
X49249Y24008D01*
X47365Y23556D01*
X45575Y22814D01*
X43922Y21802D01*
X42449Y20543D01*
X41190Y19070D01*
X40178Y17417D01*
X39870Y16674D01*
X39370Y16773D01*
Y19685D01*
X39328Y20973D01*
X38992Y23525D01*
X38325Y26013D01*
X37340Y28392D01*
X36053Y30621D01*
X34485Y32664D01*
X32664Y34485D01*
X30621Y36053D01*
X28392Y37340D01*
X26013Y38325D01*
X23525Y38992D01*
X20973Y39328D01*
X19685Y39370D01*
X7098D01*
X5577Y39673D01*
X4144Y40266D01*
X2855Y41128D01*
X1758Y42225D01*
X896Y43514D01*
X303Y44947D01*
X0Y46469D01*
Y47244D01*
X-0D01*
X0Y192913D01*
X0Y193689D01*
X303Y195210D01*
X896Y196643D01*
X1758Y197933D01*
X2855Y199030D01*
X4144Y199891D01*
X5577Y200485D01*
X7098Y200787D01*
X19685D01*
X20973Y200830D01*
X23525Y201166D01*
X26013Y201832D01*
X28392Y202818D01*
X30621Y204105D01*
X32664Y205672D01*
X34485Y207493D01*
X36053Y209536D01*
X37340Y211766D01*
X38325Y214145D01*
X38992Y216632D01*
X39328Y219185D01*
X39370Y220472D01*
Y223384D01*
X39870Y223483D01*
X40178Y222740D01*
X41190Y221088D01*
X42449Y219614D01*
X43922Y218356D01*
X45575Y217343D01*
X47365Y216602D01*
X49249Y216149D01*
X51181Y215997D01*
X53113Y216149D01*
X54997Y216602D01*
X56788Y217343D01*
X58440Y218356D01*
X59913Y219614D01*
X61172Y221088D01*
X62184Y222740D01*
X62926Y224530D01*
X63378Y226415D01*
X63530Y228346D01*
X63378Y230278D01*
X62926Y232162D01*
X62184Y233953D01*
X61172Y235605D01*
X59913Y237079D01*
X58440Y238337D01*
X56788Y239350D01*
X56119Y239626D01*
X56219Y240126D01*
X341419D01*
X341518Y239626D01*
D02*
G37*
G36*
X172798Y131594D02*
Y115437D01*
X170677Y113317D01*
X170157D01*
X170137Y113346D01*
X169614Y113696D01*
X168996Y113818D01*
X164862D01*
X164245Y113696D01*
X163721Y113346D01*
X163371Y112822D01*
X163249Y112205D01*
X163371Y111587D01*
X163721Y111064D01*
X163920Y110931D01*
Y110329D01*
X163721Y110196D01*
X163371Y109673D01*
X163249Y109055D01*
X163371Y108438D01*
X163721Y107914D01*
X163920Y107781D01*
Y107180D01*
X163721Y107047D01*
X163371Y106523D01*
X163249Y105905D01*
X163371Y105288D01*
X163721Y104764D01*
X163920Y104631D01*
Y104030D01*
X163721Y103897D01*
X163371Y103373D01*
X163249Y102756D01*
X163371Y102138D01*
X163721Y101615D01*
X163787Y101571D01*
X163818Y101031D01*
X163488Y100718D01*
X162598D01*
X162173Y100634D01*
X161812Y100393D01*
X161812Y100392D01*
X158564Y97145D01*
X158323Y96784D01*
X158238Y96358D01*
X158238Y96358D01*
Y80436D01*
X158238Y80436D01*
X158323Y80010D01*
X158564Y79649D01*
X159964Y78250D01*
X159851Y77878D01*
X159768Y77738D01*
X159292Y77421D01*
X159159Y77221D01*
X158558D01*
X158424Y77421D01*
X157901Y77770D01*
X157283Y77893D01*
X156666Y77770D01*
X156142Y77421D01*
X156009Y77221D01*
X155408D01*
X155275Y77421D01*
X154751Y77770D01*
X154134Y77893D01*
X153516Y77770D01*
X152993Y77421D01*
X152860Y77221D01*
X152258D01*
X152125Y77421D01*
X151602Y77770D01*
X150984Y77893D01*
X150367Y77770D01*
X149843Y77421D01*
X149710Y77221D01*
X149109D01*
X148976Y77421D01*
X148452Y77770D01*
X147835Y77893D01*
X147217Y77770D01*
X146694Y77421D01*
X146561Y77221D01*
X145959D01*
X145826Y77421D01*
X145303Y77770D01*
X145276Y77776D01*
Y74213D01*
Y70649D01*
X145303Y70655D01*
X145826Y71005D01*
X145870Y71070D01*
X146410Y71102D01*
X146723Y70771D01*
Y66839D01*
X145760D01*
Y55209D01*
X149961D01*
X150266Y54745D01*
X150261Y54709D01*
X149742Y54362D01*
X149675Y54261D01*
X147343D01*
X147343Y54261D01*
X146917Y54177D01*
X146556Y53936D01*
X145831Y53210D01*
X128082D01*
X128082Y53210D01*
X127657Y53125D01*
X127296Y52884D01*
X127296Y52884D01*
X121261Y46849D01*
X121020Y46488D01*
X120935Y46063D01*
X120935Y46063D01*
Y44496D01*
X119874D01*
Y43533D01*
X110424D01*
X110233Y43995D01*
X114664Y48426D01*
X114905Y48787D01*
X114990Y49213D01*
Y65681D01*
X122409Y73101D01*
X127323D01*
Y72146D01*
X127446Y71528D01*
X127796Y71005D01*
X128320Y70655D01*
X128937Y70532D01*
X129554Y70655D01*
X130078Y71005D01*
X130211Y71204D01*
X130813D01*
X130946Y71005D01*
X131469Y70655D01*
X132087Y70532D01*
X132704Y70655D01*
X133228Y71005D01*
X133361Y71204D01*
X133962D01*
X134095Y71005D01*
X134619Y70655D01*
X135236Y70532D01*
X135854Y70655D01*
X136377Y71005D01*
X136510Y71204D01*
X137112D01*
X137245Y71005D01*
X137768Y70655D01*
X138386Y70532D01*
X139003Y70655D01*
X139527Y71005D01*
X139660Y71204D01*
X140261D01*
X140394Y71005D01*
X140918Y70655D01*
X141535Y70532D01*
X142153Y70655D01*
X142676Y71005D01*
X142810Y71204D01*
X143411D01*
X143544Y71005D01*
X144068Y70655D01*
X144095Y70649D01*
Y74213D01*
Y77776D01*
X144068Y77770D01*
X143544Y77421D01*
X143411Y77221D01*
X142810D01*
X142676Y77421D01*
X142153Y77770D01*
X141535Y77893D01*
X140918Y77770D01*
X140394Y77421D01*
X140261Y77221D01*
X139660D01*
X139527Y77421D01*
X139003Y77770D01*
X138386Y77893D01*
X137768Y77770D01*
X137245Y77421D01*
X137112Y77221D01*
X136510D01*
X136377Y77421D01*
X135854Y77770D01*
X135236Y77893D01*
X134619Y77770D01*
X134095Y77421D01*
X133962Y77221D01*
X133361D01*
X133228Y77421D01*
X132704Y77770D01*
X132087Y77893D01*
X131469Y77770D01*
X130946Y77421D01*
X130813Y77221D01*
X130211D01*
X130078Y77421D01*
X129554Y77770D01*
X128937Y77893D01*
X128320Y77770D01*
X127796Y77421D01*
X127446Y76897D01*
X127323Y76279D01*
Y75324D01*
X122909D01*
X122718Y75787D01*
X123227Y76296D01*
X123227Y76296D01*
X123468Y76657D01*
X123553Y77082D01*
X123553Y77082D01*
Y79095D01*
X124508D01*
X125125Y79218D01*
X125649Y79568D01*
X125999Y80091D01*
X126122Y80709D01*
X125999Y81326D01*
X125649Y81850D01*
X125450Y81983D01*
Y82584D01*
X125649Y82717D01*
X125999Y83241D01*
X126122Y83858D01*
X125999Y84476D01*
X125649Y84999D01*
X125450Y85132D01*
Y85734D01*
X125649Y85867D01*
X125999Y86390D01*
X126122Y87008D01*
X125999Y87625D01*
X125649Y88149D01*
X125450Y88282D01*
Y88883D01*
X125649Y89016D01*
X125999Y89540D01*
X126122Y90158D01*
X125999Y90775D01*
X125649Y91299D01*
X125583Y91342D01*
X125552Y91882D01*
X125883Y92195D01*
X130867D01*
X130867Y92195D01*
X131293Y92280D01*
X131653Y92521D01*
X144487Y105354D01*
X144487Y105354D01*
X144728Y105715D01*
X144813Y106141D01*
Y111191D01*
X147842D01*
X147842Y111191D01*
X148268Y111276D01*
X148628Y111517D01*
X151582Y114471D01*
X151582Y114471D01*
X151823Y114831D01*
X151908Y115257D01*
Y115348D01*
X152125Y115493D01*
X152258Y115692D01*
X152860D01*
X152993Y115493D01*
X153516Y115143D01*
X154134Y115020D01*
X154751Y115143D01*
X155275Y115493D01*
X155408Y115692D01*
X156009D01*
X156142Y115493D01*
X156666Y115143D01*
X157283Y115020D01*
X157901Y115143D01*
X158424Y115493D01*
X158558Y115692D01*
X159159D01*
X159292Y115493D01*
X159816Y115143D01*
X160433Y115020D01*
X161051Y115143D01*
X161574Y115493D01*
X161924Y116016D01*
X162047Y116634D01*
Y120768D01*
X161926Y121376D01*
X172336Y131786D01*
X172798Y131594D01*
D02*
G37*
G36*
X182246Y117741D02*
Y104587D01*
X181921Y104262D01*
X181405D01*
Y105323D01*
X176862D01*
Y103868D01*
X170157D01*
X170137Y103897D01*
X169938Y104030D01*
Y104631D01*
X170137Y104764D01*
X170487Y105288D01*
X170610Y105905D01*
X170487Y106523D01*
X170137Y107047D01*
X169938Y107180D01*
Y107728D01*
X170100Y107889D01*
X170137Y107914D01*
X170161Y107950D01*
X170308Y108096D01*
X170518D01*
X170518Y108096D01*
X170944Y108180D01*
X171304Y108421D01*
X176377Y113494D01*
X176377Y113494D01*
X176618Y113855D01*
X176702Y114280D01*
Y122631D01*
X177164Y122823D01*
X182246Y117741D01*
D02*
G37*
G36*
X175493Y92914D02*
X175854Y92673D01*
X176279Y92589D01*
X176280Y92589D01*
X176862D01*
Y91527D01*
X181405D01*
Y92589D01*
X182379D01*
X182379Y92589D01*
X182805Y92673D01*
X183166Y92914D01*
X183466Y93214D01*
X183927Y93023D01*
Y87075D01*
X181823Y84970D01*
X181799D01*
X181405Y85228D01*
X181405Y85470D01*
Y86811D01*
X179134D01*
X176862D01*
Y85470D01*
X176862Y85228D01*
X176469Y84970D01*
X170157D01*
X170137Y84999D01*
X169938Y85132D01*
Y85734D01*
X170137Y85867D01*
X170487Y86390D01*
X170610Y87008D01*
X170487Y87625D01*
X170137Y88149D01*
X169938Y88282D01*
Y88883D01*
X170137Y89016D01*
X170487Y89540D01*
X170610Y90158D01*
X170487Y90775D01*
X170137Y91299D01*
X169938Y91432D01*
Y92033D01*
X170137Y92166D01*
X170487Y92690D01*
X170492Y92716D01*
X166929D01*
Y93898D01*
X170492D01*
X170487Y93925D01*
X170137Y94448D01*
X170072Y94492D01*
X170040Y95032D01*
X170371Y95345D01*
X173063D01*
X175493Y92914D01*
D02*
G37*
G36*
X315416Y126016D02*
Y118610D01*
X312492D01*
Y109736D01*
X319226D01*
X349324Y79639D01*
X349815Y79311D01*
X350394Y79195D01*
X350394Y79195D01*
X355799D01*
Y76272D01*
X358329D01*
Y47744D01*
X357618D01*
X357566Y47822D01*
X357566Y47822D01*
X355105Y50283D01*
X354615Y50611D01*
X354035Y50726D01*
X354035Y50726D01*
X332677D01*
X332677Y50726D01*
X332098Y50611D01*
X331607Y50283D01*
X331607Y50283D01*
X329225Y47901D01*
X328897Y47410D01*
X328782Y46831D01*
X328370Y46616D01*
X324016D01*
X323360Y46485D01*
X322804Y46114D01*
X322432Y45557D01*
X322302Y44902D01*
X322432Y44246D01*
X322804Y43690D01*
X323360Y43318D01*
X324016Y43187D01*
X330315D01*
X330971Y43318D01*
X331527Y43690D01*
X331898Y44246D01*
X332029Y44902D01*
X331898Y45557D01*
X331808Y45692D01*
Y46204D01*
X333304Y47699D01*
X353409D01*
X355012Y46096D01*
Y42217D01*
X361524D01*
Y47744D01*
X361356D01*
Y76272D01*
X364673D01*
Y83005D01*
X373511Y91843D01*
X373511Y91843D01*
X373839Y92334D01*
X373954Y92913D01*
Y109736D01*
X375697D01*
Y110790D01*
X380012D01*
Y109343D01*
X391642D01*
Y112649D01*
X391732Y112709D01*
X396739Y117717D01*
X396739Y117717D01*
X397067Y118208D01*
X397138Y118561D01*
X397638Y118512D01*
Y47244D01*
Y46469D01*
X397335Y44947D01*
X396742Y43514D01*
X395880Y42225D01*
X394783Y41128D01*
X393494Y40266D01*
X392060Y39673D01*
X390539Y39370D01*
X377953D01*
X376665Y39328D01*
X374112Y38992D01*
X371625Y38325D01*
X369246Y37340D01*
X367016Y36053D01*
X364973Y34485D01*
X363153Y32664D01*
X361585Y30621D01*
X360298Y28392D01*
X359312Y26013D01*
X358646Y23525D01*
X358310Y20973D01*
X358268Y19685D01*
Y16773D01*
X357768Y16674D01*
X357460Y17417D01*
X356447Y19070D01*
X355189Y20543D01*
X353715Y21802D01*
X352063Y22814D01*
X350273Y23556D01*
X348389Y24008D01*
X346457Y24160D01*
X344525Y24008D01*
X342641Y23556D01*
X340850Y22814D01*
X339198Y21802D01*
X337725Y20543D01*
X336466Y19070D01*
X335454Y17417D01*
X334712Y15627D01*
X334260Y13743D01*
X334108Y11811D01*
X334223Y10343D01*
X333761Y9843D01*
X332587D01*
Y10933D01*
X320957D01*
Y9486D01*
X317429D01*
Y12705D01*
X316929D01*
Y14854D01*
X317429D01*
Y21366D01*
X308087D01*
Y22560D01*
X308087Y22560D01*
X307972Y23140D01*
X307644Y23630D01*
X307644Y23630D01*
X306491Y24782D01*
Y37029D01*
X307615Y38152D01*
X308957D01*
X308957Y38152D01*
X309103Y38181D01*
X314575D01*
Y38388D01*
X323255D01*
X323360Y38318D01*
X324016Y38188D01*
X330315D01*
X330971Y38318D01*
X331527Y38690D01*
X331898Y39246D01*
X332029Y39902D01*
X331898Y40558D01*
X331527Y41114D01*
X330971Y41485D01*
X330315Y41616D01*
X324016D01*
X323360Y41485D01*
X323255Y41415D01*
X314575D01*
Y49220D01*
X307472D01*
Y41179D01*
X306988D01*
X306988Y41179D01*
X306409Y41063D01*
X305918Y40735D01*
X304485Y39302D01*
X304023Y39494D01*
Y58379D01*
X307735Y62091D01*
X308063Y62582D01*
X308178Y63161D01*
X308178Y63161D01*
Y64461D01*
X321563D01*
Y73335D01*
X309858D01*
Y121112D01*
X314954Y126207D01*
X315416Y126016D01*
D02*
G37*
%LPC*%
G36*
X267248Y239206D02*
X205193D01*
X204230Y239015D01*
X203414Y238469D01*
X198819Y233874D01*
X194224Y238469D01*
X193408Y239015D01*
X192445Y239206D01*
X132359D01*
X131395Y239015D01*
X130579Y238469D01*
X126173Y234063D01*
X126019Y233832D01*
X125173Y232987D01*
X124628Y232171D01*
X124436Y231207D01*
Y220070D01*
X124628Y219107D01*
X124987Y218571D01*
X124752Y218378D01*
X123952Y217403D01*
X123357Y216290D01*
X122991Y215083D01*
X122867Y213827D01*
X122991Y212571D01*
X123357Y211364D01*
X123952Y210251D01*
X124752Y209276D01*
X125728Y208475D01*
X126840Y207880D01*
X128048Y207514D01*
X129304Y207391D01*
X130559Y207514D01*
X131767Y207880D01*
X132879Y208475D01*
X133855Y209276D01*
X134655Y210251D01*
X135250Y211364D01*
X135616Y212571D01*
X135740Y213827D01*
X135616Y215083D01*
X135250Y216290D01*
X134655Y217403D01*
X133855Y218378D01*
X132879Y219179D01*
X131767Y219774D01*
X130559Y220140D01*
X130124Y220183D01*
X130122Y220190D01*
X129577Y221006D01*
X129470Y221113D01*
Y223425D01*
X129955Y223547D01*
X130137Y223206D01*
X131061Y222080D01*
X132186Y221157D01*
X133470Y220471D01*
X134863Y220048D01*
X136311Y219905D01*
X137760Y220048D01*
X139153Y220471D01*
X140437Y221157D01*
X141562Y222080D01*
X142486Y223206D01*
X143172Y224489D01*
X143594Y225882D01*
X143737Y227331D01*
X143594Y228780D01*
X143172Y230173D01*
X142486Y231456D01*
X141562Y232582D01*
X140437Y233505D01*
X140096Y233687D01*
X140217Y234172D01*
X182406D01*
X182527Y233687D01*
X182186Y233505D01*
X181061Y232582D01*
X180137Y231456D01*
X179451Y230173D01*
X179029Y228780D01*
X178886Y227331D01*
X179029Y225882D01*
X179451Y224489D01*
X180137Y223206D01*
X181061Y222080D01*
X182186Y221157D01*
X183470Y220471D01*
X184863Y220048D01*
X186311Y219905D01*
X187760Y220048D01*
X189153Y220471D01*
X190437Y221157D01*
X191562Y222080D01*
X192486Y223206D01*
X193172Y224489D01*
X193594Y225882D01*
X193737Y227331D01*
X193594Y228780D01*
X193172Y230173D01*
X192486Y231456D01*
X191562Y232582D01*
X190437Y233505D01*
X190096Y233687D01*
X190217Y234172D01*
X191402D01*
X196302Y229272D01*
Y220369D01*
X195724Y219791D01*
X194575Y220140D01*
X193319Y220264D01*
X192064Y220140D01*
X190856Y219774D01*
X189743Y219179D01*
X188768Y218378D01*
X187968Y217403D01*
X187373Y216290D01*
X187006Y215083D01*
X186883Y213827D01*
X187006Y212571D01*
X187373Y211364D01*
X187968Y210251D01*
X188768Y209276D01*
X189743Y208475D01*
X190856Y207880D01*
X192064Y207514D01*
X193319Y207391D01*
X194575Y207514D01*
X195782Y207880D01*
X196895Y208475D01*
X197871Y209276D01*
X198390Y209908D01*
X199037D01*
X199556Y209276D01*
X200531Y208475D01*
X201644Y207880D01*
X202851Y207514D01*
X204107Y207391D01*
X205363Y207514D01*
X206570Y207880D01*
X207683Y208475D01*
X208658Y209276D01*
X209458Y210251D01*
X210053Y211364D01*
X210420Y212571D01*
X210543Y213827D01*
X210420Y215083D01*
X210053Y216290D01*
X209458Y217403D01*
X208658Y218378D01*
X207683Y219179D01*
X206570Y219774D01*
X205363Y220140D01*
X204107Y220264D01*
X202851Y220140D01*
X201696Y219790D01*
X201681Y219812D01*
X201336Y220158D01*
Y229272D01*
X206236Y234172D01*
X207209D01*
X207330Y233687D01*
X206989Y233505D01*
X205864Y232582D01*
X204941Y231456D01*
X204254Y230173D01*
X203832Y228780D01*
X203689Y227331D01*
X203832Y225882D01*
X204254Y224489D01*
X204941Y223206D01*
X205864Y222080D01*
X206989Y221157D01*
X208273Y220471D01*
X209666Y220048D01*
X211115Y219905D01*
X212563Y220048D01*
X213956Y220471D01*
X215240Y221157D01*
X216365Y222080D01*
X217289Y223206D01*
X217975Y224489D01*
X218397Y225882D01*
X218540Y227331D01*
X218397Y228780D01*
X217975Y230173D01*
X217289Y231456D01*
X216365Y232582D01*
X215240Y233505D01*
X214899Y233687D01*
X215020Y234172D01*
X257209D01*
X257330Y233687D01*
X256989Y233505D01*
X255864Y232582D01*
X254941Y231456D01*
X254254Y230173D01*
X253832Y228780D01*
X253689Y227331D01*
X253832Y225882D01*
X254254Y224489D01*
X254941Y223206D01*
X255864Y222080D01*
X256989Y221157D01*
X258273Y220471D01*
X259666Y220048D01*
X261115Y219905D01*
X262563Y220048D01*
X263956Y220471D01*
X265240Y221157D01*
X266365Y222080D01*
X267289Y223206D01*
X267975Y224489D01*
X268397Y225882D01*
X268540Y227331D01*
X268397Y228780D01*
X267975Y230173D01*
X267289Y231456D01*
X266365Y232582D01*
X265240Y233505D01*
X264899Y233687D01*
X265020Y234172D01*
X266205D01*
X269137Y231241D01*
Y220542D01*
X268774Y220199D01*
X268123Y220264D01*
X266867Y220140D01*
X265659Y219774D01*
X264547Y219179D01*
X263571Y218378D01*
X262771Y217403D01*
X262176Y216290D01*
X261810Y215083D01*
X261686Y213827D01*
X261810Y212571D01*
X262176Y211364D01*
X262771Y210251D01*
X263571Y209276D01*
X264547Y208475D01*
X265659Y207880D01*
X266867Y207514D01*
X268123Y207391D01*
X269378Y207514D01*
X270586Y207880D01*
X271698Y208475D01*
X272674Y209276D01*
X273474Y210251D01*
X274069Y211364D01*
X274435Y212571D01*
X274559Y213827D01*
X274435Y215083D01*
X274069Y216290D01*
X273474Y217403D01*
X273318Y217594D01*
X273433Y217709D01*
X273979Y218526D01*
X274170Y219489D01*
Y232283D01*
X273979Y233247D01*
X273433Y234063D01*
X269027Y238469D01*
X268211Y239015D01*
X267248Y239206D01*
D02*
G37*
G36*
X246115Y220861D02*
X245201Y220741D01*
X244350Y220388D01*
X243618Y219827D01*
X243057Y219096D01*
X242705Y218245D01*
X242584Y217331D01*
X242705Y216417D01*
X243057Y215566D01*
X243618Y214835D01*
X244350Y214274D01*
X245201Y213921D01*
X246115Y213801D01*
X247028Y213921D01*
X247880Y214274D01*
X248611Y214835D01*
X249172Y215566D01*
X249524Y216417D01*
X249645Y217331D01*
X249524Y218245D01*
X249172Y219096D01*
X248611Y219827D01*
X247880Y220388D01*
X247028Y220741D01*
X246115Y220861D01*
D02*
G37*
G36*
X238083D02*
X237170Y220741D01*
X236318Y220388D01*
X235587Y219827D01*
X235026Y219096D01*
X234673Y218245D01*
X234553Y217331D01*
X234673Y216417D01*
X235026Y215566D01*
X235587Y214835D01*
X236318Y214274D01*
X237170Y213921D01*
X238083Y213801D01*
X238997Y213921D01*
X239848Y214274D01*
X240579Y214835D01*
X241140Y215566D01*
X241493Y216417D01*
X241613Y217331D01*
X241493Y218245D01*
X241140Y219096D01*
X240579Y219827D01*
X239848Y220388D01*
X238997Y220741D01*
X238083Y220861D01*
D02*
G37*
G36*
X230052D02*
X229138Y220741D01*
X228287Y220388D01*
X227555Y219827D01*
X226994Y219096D01*
X226642Y218245D01*
X226521Y217331D01*
X226642Y216417D01*
X226994Y215566D01*
X227555Y214835D01*
X228287Y214274D01*
X229138Y213921D01*
X230052Y213801D01*
X230965Y213921D01*
X231817Y214274D01*
X232548Y214835D01*
X233109Y215566D01*
X233462Y216417D01*
X233582Y217331D01*
X233462Y218245D01*
X233109Y219096D01*
X232548Y219827D01*
X231817Y220388D01*
X230965Y220741D01*
X230052Y220861D01*
D02*
G37*
G36*
X222020D02*
X221107Y220741D01*
X220255Y220388D01*
X219524Y219827D01*
X218963Y219096D01*
X218610Y218245D01*
X218490Y217331D01*
X218610Y216417D01*
X218963Y215566D01*
X219524Y214835D01*
X220255Y214274D01*
X221107Y213921D01*
X222020Y213801D01*
X222934Y213921D01*
X223785Y214274D01*
X224516Y214835D01*
X225077Y215566D01*
X225430Y216417D01*
X225550Y217331D01*
X225430Y218245D01*
X225077Y219096D01*
X224516Y219827D01*
X223785Y220388D01*
X222934Y220741D01*
X222020Y220861D01*
D02*
G37*
G36*
X174910Y223754D02*
X168390D01*
X167888Y223654D01*
X167462Y223369D01*
X164646Y220553D01*
X164194Y220741D01*
X163280Y220861D01*
X162366Y220741D01*
X161515Y220388D01*
X160784Y219827D01*
X160223Y219096D01*
X159870Y218245D01*
X159750Y217331D01*
X159870Y216417D01*
X160223Y215566D01*
X160784Y214835D01*
X161515Y214274D01*
X162366Y213921D01*
X163280Y213801D01*
X164194Y213921D01*
X165045Y214274D01*
X165776Y214835D01*
X166337Y215566D01*
X166690Y216417D01*
X166810Y217331D01*
X166690Y218245D01*
X166502Y218697D01*
X168934Y221128D01*
X170027D01*
X170126Y220628D01*
X169546Y220388D01*
X168815Y219827D01*
X168254Y219096D01*
X167902Y218245D01*
X167781Y217331D01*
X167902Y216417D01*
X168254Y215566D01*
X168815Y214835D01*
X169546Y214274D01*
X170398Y213921D01*
X171311Y213801D01*
X172225Y213921D01*
X173077Y214274D01*
X173808Y214835D01*
X174369Y215566D01*
X174556Y216018D01*
X176542D01*
X179683Y212877D01*
Y209074D01*
X179783Y208572D01*
X180068Y208146D01*
X181321Y206893D01*
X181130Y206431D01*
X176793D01*
X176640Y206584D01*
Y207079D01*
X177092Y207266D01*
X177823Y207827D01*
X178384Y208558D01*
X178737Y209409D01*
X178857Y210323D01*
X178737Y211237D01*
X178384Y212088D01*
X177823Y212819D01*
X177092Y213380D01*
X176241Y213733D01*
X175327Y213853D01*
X174414Y213733D01*
X173562Y213380D01*
X172831Y212819D01*
X172270Y212088D01*
X171917Y211237D01*
X171797Y210323D01*
X171917Y209409D01*
X172270Y208558D01*
X172831Y207827D01*
X173562Y207266D01*
X174015Y207079D01*
Y206168D01*
X173704Y205983D01*
X173526Y205950D01*
X170518Y208957D01*
X170706Y209409D01*
X170826Y210323D01*
X170706Y211237D01*
X170353Y212088D01*
X169792Y212819D01*
X169061Y213380D01*
X168209Y213733D01*
X167296Y213853D01*
X166382Y213733D01*
X165531Y213380D01*
X164799Y212819D01*
X164239Y212088D01*
X163886Y211237D01*
X163766Y210323D01*
X163886Y209409D01*
X164239Y208558D01*
X164799Y207827D01*
X165531Y207266D01*
X166382Y206913D01*
X167296Y206793D01*
X168209Y206913D01*
X168662Y207101D01*
X173020Y202743D01*
X172828Y202281D01*
X169163D01*
X162487Y208957D01*
X162674Y209409D01*
X162794Y210323D01*
X162674Y211237D01*
X162321Y212088D01*
X161760Y212819D01*
X161029Y213380D01*
X160178Y213733D01*
X159264Y213853D01*
X158351Y213733D01*
X157499Y213380D01*
X156768Y212819D01*
X156207Y212088D01*
X155854Y211237D01*
X155734Y210323D01*
X155854Y209409D01*
X156207Y208558D01*
X156768Y207827D01*
X157499Y207266D01*
X158351Y206913D01*
X159264Y206793D01*
X160178Y206913D01*
X160630Y207101D01*
X167063Y200668D01*
X166871Y200206D01*
X163206D01*
X154455Y208957D01*
X154643Y209409D01*
X154763Y210323D01*
X154643Y211237D01*
X154290Y212088D01*
X153729Y212819D01*
X152998Y213380D01*
X152146Y213733D01*
X151233Y213853D01*
X150319Y213733D01*
X149468Y213380D01*
X148737Y212819D01*
X148176Y212088D01*
X147823Y211237D01*
X147703Y210323D01*
X147823Y209409D01*
X148176Y208558D01*
X148737Y207827D01*
X149468Y207266D01*
X150319Y206913D01*
X151233Y206793D01*
X152146Y206913D01*
X152599Y207101D01*
X161106Y198593D01*
X160915Y198132D01*
X157434D01*
X146982Y208584D01*
Y213595D01*
X147217Y213801D01*
X148131Y213921D01*
X148982Y214274D01*
X149713Y214835D01*
X150274Y215566D01*
X150627Y216417D01*
X150747Y217331D01*
X150627Y218245D01*
X150274Y219096D01*
X149713Y219827D01*
X148982Y220388D01*
X148403Y220628D01*
X148502Y221128D01*
X152953D01*
X153300Y220753D01*
X153228Y220193D01*
X152752Y219827D01*
X152191Y219096D01*
X151839Y218245D01*
X151718Y217331D01*
X151839Y216417D01*
X152191Y215566D01*
X152752Y214835D01*
X153483Y214274D01*
X154335Y213921D01*
X155248Y213801D01*
X156162Y213921D01*
X157014Y214274D01*
X157745Y214835D01*
X158306Y215566D01*
X158658Y216417D01*
X158779Y217331D01*
X158658Y218245D01*
X158306Y219096D01*
X157745Y219827D01*
X157014Y220388D01*
X156561Y220576D01*
Y220736D01*
X156461Y221238D01*
X156177Y221664D01*
X154472Y223369D01*
X154046Y223654D01*
X153543Y223754D01*
X144685D01*
X144183Y223654D01*
X143757Y223369D01*
X140804Y220416D01*
X140520Y219990D01*
X140420Y219488D01*
Y209043D01*
X140520Y208541D01*
X140804Y208115D01*
X155103Y193816D01*
X155529Y193531D01*
X156031Y193431D01*
X177177D01*
X180592Y190017D01*
X181018Y189732D01*
X181520Y189632D01*
X214023D01*
X214857Y188799D01*
X214952Y188321D01*
X215323Y187764D01*
X215880Y187393D01*
X216535Y187262D01*
X217191Y187393D01*
X217747Y187764D01*
X218119Y188321D01*
X218250Y188976D01*
X218119Y189632D01*
X217747Y190188D01*
X217191Y190560D01*
X216713Y190655D01*
X216123Y191245D01*
X216314Y191707D01*
X219557D01*
X219824Y191308D01*
X220380Y190936D01*
X221036Y190806D01*
X221692Y190936D01*
X222248Y191308D01*
X222620Y191864D01*
X222750Y192520D01*
X222620Y193176D01*
X222549Y193282D01*
X222816Y193782D01*
X224894D01*
X225166Y193375D01*
X225722Y193003D01*
X226378Y192873D01*
X227034Y193003D01*
X227590Y193375D01*
X227961Y193931D01*
X228092Y194587D01*
X227961Y195243D01*
X227885Y195357D01*
X228152Y195857D01*
X232208D01*
X232475Y195590D01*
X232570Y195112D01*
X232942Y194556D01*
X233498Y194184D01*
X234154Y194054D01*
X234809Y194184D01*
X235366Y194556D01*
X235737Y195112D01*
X235868Y195768D01*
X235737Y196424D01*
X235366Y196980D01*
X234809Y197351D01*
X234680Y197377D01*
X234661Y197431D01*
X235019Y197932D01*
X240670D01*
X240887Y197607D01*
X241443Y197235D01*
X242099Y197105D01*
X242755Y197235D01*
X243311Y197607D01*
X243683Y198163D01*
X243813Y198819D01*
X243683Y199475D01*
X243622Y199565D01*
X243858Y200006D01*
X248377D01*
X248665Y199575D01*
X249221Y199204D01*
X249877Y199073D01*
X250533Y199204D01*
X251089Y199575D01*
X251461Y200132D01*
X251591Y200787D01*
X251461Y201443D01*
X251369Y201581D01*
X251636Y202081D01*
X252178D01*
X252446Y201581D01*
X252354Y201443D01*
X252223Y200787D01*
X252354Y200132D01*
X252624Y199726D01*
Y197169D01*
X252724Y196667D01*
X253009Y196241D01*
X256069Y193181D01*
Y178650D01*
X254028D01*
Y178281D01*
X251780D01*
Y180815D01*
X244874D01*
Y174303D01*
X251780D01*
Y175656D01*
X254028D01*
Y175287D01*
X260498D01*
Y171803D01*
X259889Y171195D01*
X257776D01*
X257649Y171169D01*
X254028D01*
Y170801D01*
X251780D01*
Y172153D01*
X244874D01*
Y165642D01*
X251780D01*
Y168176D01*
X254028D01*
Y167807D01*
X260736D01*
Y168630D01*
X260935Y168669D01*
X261361Y168954D01*
X262739Y170332D01*
X263024Y170757D01*
X263124Y171260D01*
Y171547D01*
X265650D01*
Y173228D01*
Y174909D01*
X263124D01*
Y188976D01*
X263024Y189479D01*
X262739Y189904D01*
X261155Y191489D01*
Y199899D01*
X261163Y199938D01*
Y201991D01*
X261155Y202031D01*
Y204724D01*
X261055Y205227D01*
X260771Y205653D01*
X255332Y211091D01*
X254906Y211376D01*
X254404Y211476D01*
X253441D01*
X253188Y212088D01*
X252627Y212819D01*
X251895Y213380D01*
X251044Y213733D01*
X250130Y213853D01*
X249217Y213733D01*
X248365Y213380D01*
X247634Y212819D01*
X247073Y212088D01*
X246721Y211237D01*
X246600Y210323D01*
X246721Y209409D01*
X247073Y208558D01*
X247634Y207827D01*
X248345Y207281D01*
X248350Y207231D01*
X248194Y206781D01*
X244035D01*
X243879Y207231D01*
X243884Y207281D01*
X244595Y207827D01*
X245156Y208558D01*
X245509Y209409D01*
X245629Y210323D01*
X245509Y211237D01*
X245156Y212088D01*
X244595Y212819D01*
X243864Y213380D01*
X243013Y213733D01*
X242099Y213853D01*
X241185Y213733D01*
X240334Y213380D01*
X239603Y212819D01*
X239042Y212088D01*
X238689Y211237D01*
X238569Y210323D01*
X238689Y209409D01*
X239042Y208558D01*
X239603Y207827D01*
X240314Y207281D01*
X240318Y207231D01*
X240163Y206781D01*
X236003D01*
X235848Y207231D01*
X235852Y207281D01*
X236564Y207827D01*
X237125Y208558D01*
X237477Y209409D01*
X237598Y210323D01*
X237477Y211237D01*
X237125Y212088D01*
X236564Y212819D01*
X235833Y213380D01*
X234981Y213733D01*
X234067Y213853D01*
X233154Y213733D01*
X232302Y213380D01*
X231571Y212819D01*
X231010Y212088D01*
X230658Y211237D01*
X230537Y210323D01*
X230658Y209409D01*
X231010Y208558D01*
X231571Y207827D01*
X232282Y207281D01*
X232287Y207231D01*
X232131Y206781D01*
X227972D01*
X227816Y207231D01*
X227821Y207281D01*
X228532Y207827D01*
X229093Y208558D01*
X229446Y209409D01*
X229566Y210323D01*
X229446Y211237D01*
X229093Y212088D01*
X228532Y212819D01*
X227801Y213380D01*
X226950Y213733D01*
X226036Y213853D01*
X225122Y213733D01*
X224271Y213380D01*
X223540Y212819D01*
X222979Y212088D01*
X222626Y211237D01*
X222506Y210323D01*
X222626Y209409D01*
X222979Y208558D01*
X223540Y207827D01*
X224251Y207281D01*
X224255Y207231D01*
X224100Y206781D01*
X188080D01*
X184383Y210477D01*
Y214280D01*
X184284Y214782D01*
X183999Y215208D01*
X175838Y223369D01*
X175412Y223654D01*
X174910Y223754D01*
D02*
G37*
G36*
X295551Y214052D02*
Y209252D01*
X300351D01*
X300242Y210077D01*
X299696Y211395D01*
X298827Y212528D01*
X297695Y213397D01*
X296376Y213943D01*
X295551Y214052D01*
D02*
G37*
G36*
X294370Y214052D02*
X293545Y213943D01*
X292227Y213397D01*
X291094Y212528D01*
X290225Y211395D01*
X289679Y210077D01*
X289570Y209252D01*
X294370D01*
Y214052D01*
D02*
G37*
G36*
X300351Y208071D02*
X295551D01*
Y203271D01*
X296376Y203380D01*
X297695Y203926D01*
X298827Y204795D01*
X299696Y205927D01*
X300242Y207246D01*
X300351Y208071D01*
D02*
G37*
G36*
X294370D02*
X289570D01*
X289679Y207246D01*
X290225Y205927D01*
X291094Y204795D01*
X292227Y203926D01*
X293545Y203380D01*
X294370Y203271D01*
Y208071D01*
D02*
G37*
G36*
X73138Y201780D02*
X71457D01*
Y200197D01*
X73138D01*
Y201780D01*
D02*
G37*
G36*
X70276D02*
X68594D01*
Y200197D01*
X70276D01*
Y201780D01*
D02*
G37*
G36*
X320382Y214083D02*
X309539D01*
Y203240D01*
X320382D01*
Y204570D01*
X340937D01*
Y199598D01*
X348039D01*
Y210638D01*
X340937D01*
Y209604D01*
X320382D01*
Y214083D01*
D02*
G37*
G36*
X39646Y202720D02*
Y199409D01*
X42956D01*
X42898Y199849D01*
X42501Y200808D01*
X41869Y201632D01*
X41045Y202265D01*
X40085Y202662D01*
X39646Y202720D01*
D02*
G37*
G36*
X73138Y199016D02*
X71457D01*
Y197433D01*
X73138D01*
Y199016D01*
D02*
G37*
G36*
X70276D02*
X68594D01*
Y197433D01*
X70276D01*
Y199016D01*
D02*
G37*
G36*
X42956Y198228D02*
X39646D01*
Y194918D01*
X40085Y194976D01*
X41045Y195373D01*
X41869Y196005D01*
X42501Y196829D01*
X42898Y197789D01*
X42956Y198228D01*
D02*
G37*
G36*
X222466Y184183D02*
X222466Y184183D01*
X212868D01*
X212868Y184183D01*
X212443Y184098D01*
X212082Y183857D01*
X212082Y183857D01*
X211713Y183488D01*
X211343Y183857D01*
X210982Y184098D01*
X210557Y184183D01*
X210557Y184183D01*
X202756D01*
X202756Y184183D01*
X202330Y184098D01*
X201970Y183857D01*
X201970Y183857D01*
X200814Y182702D01*
X200573Y182341D01*
X200488Y181915D01*
X200488Y181915D01*
Y176354D01*
X199313Y175179D01*
X198850Y174972D01*
X198294Y175343D01*
X197638Y175474D01*
X191339D01*
X190683Y175343D01*
X190127Y174972D01*
X189755Y174416D01*
X189625Y173760D01*
X189755Y173104D01*
X190127Y172548D01*
X190683Y172176D01*
X191339Y172046D01*
X197638D01*
X198294Y172176D01*
X198850Y172548D01*
X198917Y172648D01*
X199467D01*
X199467Y172648D01*
X199892Y172733D01*
X200253Y172974D01*
X202386Y175107D01*
X202386Y175107D01*
X202628Y175468D01*
X202712Y175893D01*
Y181455D01*
X203217Y181959D01*
X209770D01*
X209873Y181807D01*
X209638Y181307D01*
X209638D01*
Y176961D01*
X213787D01*
Y181307D01*
X213787D01*
X213552Y181807D01*
X213655Y181959D01*
X221540D01*
X221576Y181905D01*
X221449Y181405D01*
X221449D01*
Y176862D01*
X225795D01*
Y178022D01*
X228535D01*
Y174303D01*
X235441D01*
Y180815D01*
X228535D01*
Y180246D01*
X225795D01*
Y181405D01*
X224734D01*
Y181915D01*
X224734Y181915D01*
X224649Y182341D01*
X224408Y182702D01*
X224408Y182702D01*
X223253Y183857D01*
X222892Y184098D01*
X222466Y184183D01*
D02*
G37*
G36*
X393610Y185539D02*
X385039D01*
Y181693D01*
X393610D01*
Y185539D01*
D02*
G37*
G36*
X383858D02*
X375287D01*
Y181693D01*
X383858D01*
Y185539D01*
D02*
G37*
G36*
X219496Y181405D02*
X217913D01*
Y179724D01*
X219496D01*
Y181405D01*
D02*
G37*
G36*
X278551Y181405D02*
X276969D01*
Y179724D01*
X278551D01*
Y181405D01*
D02*
G37*
G36*
X275787D02*
X274205D01*
Y179724D01*
X275787D01*
Y181405D01*
D02*
G37*
G36*
X216732Y181405D02*
X215150D01*
Y179724D01*
X216732D01*
Y181405D01*
D02*
G37*
G36*
X303059Y180618D02*
X301181D01*
Y179527D01*
X303059D01*
Y180618D01*
D02*
G37*
G36*
X300000D02*
X298122D01*
Y179527D01*
X300000D01*
Y180618D01*
D02*
G37*
G36*
X197638Y180474D02*
X195079D01*
Y179350D01*
X199234D01*
X199221Y179416D01*
X198850Y179972D01*
X198294Y180343D01*
X197638Y180474D01*
D02*
G37*
G36*
X193898D02*
X191339D01*
X190683Y180343D01*
X190127Y179972D01*
X189755Y179416D01*
X189742Y179350D01*
X193898D01*
Y180474D01*
D02*
G37*
G36*
X292429Y180618D02*
X287492D01*
Y177256D01*
X292429D01*
Y180618D01*
D02*
G37*
G36*
X199234Y178169D02*
X195079D01*
Y177046D01*
X197638D01*
X198294Y177176D01*
X198850Y177548D01*
X199221Y178104D01*
X199234Y178169D01*
D02*
G37*
G36*
X193898D02*
X189742D01*
X189755Y178104D01*
X190127Y177548D01*
X190683Y177176D01*
X191339Y177046D01*
X193898D01*
Y178169D01*
D02*
G37*
G36*
X219496Y178543D02*
X217913D01*
Y176862D01*
X219496D01*
Y178543D01*
D02*
G37*
G36*
X216732D02*
X215150D01*
Y176862D01*
X216732D01*
Y178543D01*
D02*
G37*
G36*
X278551D02*
X276969D01*
Y176862D01*
X278551D01*
Y178543D01*
D02*
G37*
G36*
X275787D02*
X274205D01*
Y176862D01*
X275787D01*
Y178543D01*
D02*
G37*
G36*
X72547Y180512D02*
X68740D01*
Y176705D01*
X69308Y176779D01*
X70387Y177227D01*
X71314Y177938D01*
X72025Y178865D01*
X72472Y179944D01*
X72547Y180512D01*
D02*
G37*
G36*
X67559D02*
X63752D01*
X63827Y179944D01*
X64274Y178865D01*
X64985Y177938D01*
X65912Y177227D01*
X66991Y176779D01*
X67559Y176705D01*
Y180512D01*
D02*
G37*
G36*
X393610D02*
X385039D01*
Y176665D01*
X393610D01*
Y180512D01*
D02*
G37*
G36*
X383858D02*
X375287D01*
Y176665D01*
X383858D01*
Y180512D01*
D02*
G37*
G36*
X178740Y175474D02*
X176181D01*
Y174350D01*
X180337D01*
X180324Y174416D01*
X179952Y174972D01*
X179396Y175343D01*
X178740Y175474D01*
D02*
G37*
G36*
X175000D02*
X172441D01*
X171785Y175343D01*
X171229Y174972D01*
X170857Y174416D01*
X170844Y174350D01*
X175000D01*
Y175474D01*
D02*
G37*
G36*
X347835Y176287D02*
X345268D01*
Y174016D01*
X347835D01*
Y176287D01*
D02*
G37*
G36*
X213984Y175500D02*
X212402D01*
Y173819D01*
X213984D01*
Y175500D01*
D02*
G37*
G36*
X211221D02*
X209638D01*
Y173819D01*
X211221D01*
Y175500D01*
D02*
G37*
G36*
X269595Y174909D02*
X266831D01*
Y173819D01*
X269595D01*
Y174909D01*
D02*
G37*
G36*
X157677Y175500D02*
X156095D01*
Y173819D01*
X157677D01*
Y175500D01*
D02*
G37*
G36*
X180337Y173169D02*
X176181D01*
Y172046D01*
X178740D01*
X179396Y172176D01*
X179952Y172548D01*
X180324Y173104D01*
X180337Y173169D01*
D02*
G37*
G36*
X175000D02*
X170844D01*
X170857Y173104D01*
X171229Y172548D01*
X171785Y172176D01*
X172441Y172046D01*
X175000D01*
Y173169D01*
D02*
G37*
G36*
X269595Y172638D02*
X266831D01*
Y171547D01*
X269595D01*
Y172638D01*
D02*
G37*
G36*
X213984Y172638D02*
X212402D01*
Y170957D01*
X213984D01*
Y172638D01*
D02*
G37*
G36*
X211221D02*
X209638D01*
Y170957D01*
X211221D01*
Y172638D01*
D02*
G37*
G36*
X157677Y172638D02*
X156095D01*
Y170957D01*
X157677D01*
Y172638D01*
D02*
G37*
G36*
X351583Y172835D02*
X349016D01*
Y170563D01*
X351583D01*
Y172835D01*
D02*
G37*
G36*
X347835D02*
X345268D01*
Y170563D01*
X347835D01*
Y172835D01*
D02*
G37*
G36*
X292429Y173138D02*
X287492D01*
Y169776D01*
X292429D01*
Y173138D01*
D02*
G37*
G36*
X312213Y170866D02*
X309646D01*
Y168595D01*
X312213D01*
Y170866D01*
D02*
G37*
G36*
X308465D02*
X305898D01*
Y168595D01*
X308465D01*
Y170866D01*
D02*
G37*
G36*
X235441Y172153D02*
X228535D01*
Y168435D01*
X225795D01*
Y169595D01*
X221449D01*
Y165051D01*
X221571D01*
X221838Y164551D01*
X221802Y164498D01*
X213379D01*
X213255Y164650D01*
X213494Y165150D01*
X213787D01*
Y169496D01*
X209638D01*
Y165150D01*
X209931D01*
X210170Y164650D01*
X210047Y164498D01*
X202753D01*
X202712Y164538D01*
Y166240D01*
X202628Y166666D01*
X202386Y167026D01*
X202386Y167026D01*
X200052Y169361D01*
X199691Y169602D01*
X199266Y169686D01*
X199266Y169686D01*
X199041D01*
X198850Y169972D01*
X198294Y170343D01*
X197638Y170474D01*
X191339D01*
X190683Y170343D01*
X190127Y169972D01*
X189755Y169416D01*
X189625Y168760D01*
X189755Y168104D01*
X190127Y167548D01*
X190683Y167176D01*
X191339Y167046D01*
X197638D01*
X198294Y167176D01*
X198722Y167463D01*
X198805D01*
X200488Y165780D01*
Y164078D01*
X200488Y164078D01*
X200573Y163652D01*
X200814Y163292D01*
X201506Y162600D01*
X201506Y162600D01*
X201867Y162358D01*
X202292Y162274D01*
X202292Y162274D01*
X210819D01*
X210819Y162274D01*
X211244Y162358D01*
X211379Y162449D01*
X211820Y162600D01*
X212181Y162358D01*
X212606Y162274D01*
X222728D01*
X222728Y162274D01*
X223154Y162358D01*
X223515Y162600D01*
X224408Y163493D01*
X224408Y163493D01*
X224649Y163854D01*
X224734Y164279D01*
Y165051D01*
X225795D01*
Y166211D01*
X228535D01*
Y165642D01*
X235441D01*
Y172153D01*
D02*
G37*
G36*
X219496Y169595D02*
X217913D01*
Y167913D01*
X219496D01*
Y169595D01*
D02*
G37*
G36*
X216732D02*
X215150D01*
Y167913D01*
X216732D01*
Y169595D01*
D02*
G37*
G36*
X350303Y168217D02*
X345079D01*
Y165847D01*
X350303D01*
Y168217D01*
D02*
G37*
G36*
X343898D02*
X338673D01*
Y165847D01*
X343898D01*
Y168217D01*
D02*
G37*
G36*
X207685Y181307D02*
X203535D01*
Y176961D01*
X204498D01*
Y175500D01*
X203339D01*
Y170957D01*
X204498D01*
Y169496D01*
X203535D01*
Y165150D01*
X207685D01*
Y169496D01*
X206722D01*
Y170957D01*
X207685D01*
Y175500D01*
X206722D01*
Y176961D01*
X207685D01*
Y181307D01*
D02*
G37*
G36*
X219496Y166732D02*
X217913D01*
Y165051D01*
X219496D01*
Y166732D01*
D02*
G37*
G36*
X216732D02*
X215150D01*
Y165051D01*
X216732D01*
Y166732D01*
D02*
G37*
G36*
X13780Y185571D02*
X12157Y185444D01*
X10574Y185064D01*
X9070Y184441D01*
X7682Y183590D01*
X6444Y182533D01*
X5386Y181295D01*
X4536Y179907D01*
X3913Y178403D01*
X3533Y176820D01*
X3405Y175197D01*
X3533Y173574D01*
X3913Y171991D01*
X4536Y170487D01*
X5386Y169099D01*
X6444Y167861D01*
X7682Y166804D01*
X9070Y165953D01*
X10574Y165330D01*
X12157Y164950D01*
X13780Y164822D01*
X15403Y164950D01*
X16985Y165330D01*
X18489Y165953D01*
X19877Y166804D01*
X21115Y167861D01*
X22173Y169099D01*
X23023Y170487D01*
X23646Y171991D01*
X24026Y173574D01*
X24154Y175197D01*
X24026Y176820D01*
X23646Y178403D01*
X23023Y179907D01*
X22173Y181295D01*
X21115Y182533D01*
X19877Y183590D01*
X18489Y184441D01*
X16985Y185064D01*
X15403Y185444D01*
X13780Y185571D01*
D02*
G37*
G36*
X350303Y164665D02*
X345079D01*
Y162295D01*
X350303D01*
Y164665D01*
D02*
G37*
G36*
X343898D02*
X338673D01*
Y162295D01*
X343898D01*
Y164665D01*
D02*
G37*
G36*
X332291Y164575D02*
X325189D01*
Y160167D01*
X321720D01*
X320588Y161299D01*
X320612Y161417D01*
X320481Y162073D01*
X320110Y162629D01*
X319554Y163001D01*
X318898Y163131D01*
X318242Y163001D01*
X317686Y162629D01*
X317314Y162073D01*
X317184Y161417D01*
X317314Y160761D01*
X317686Y160205D01*
X318242Y159834D01*
X318898Y159703D01*
X319016Y159727D01*
X320474Y158269D01*
X320834Y158028D01*
X321260Y157943D01*
X321260Y157943D01*
X325189D01*
Y153535D01*
X332291D01*
Y164575D01*
D02*
G37*
G36*
X160441Y160827D02*
X158858D01*
Y159146D01*
X160441D01*
Y160827D01*
D02*
G37*
G36*
X157677D02*
X156095D01*
Y159146D01*
X157677D01*
Y160827D01*
D02*
G37*
G36*
X363779Y155789D02*
X361221D01*
Y154665D01*
X365376D01*
X365363Y154731D01*
X364991Y155287D01*
X364436Y155658D01*
X363779Y155789D01*
D02*
G37*
G36*
X360039D02*
X357480D01*
X356824Y155658D01*
X356268Y155287D01*
X355897Y154731D01*
X355884Y154665D01*
X360039D01*
Y155789D01*
D02*
G37*
G36*
X382677D02*
X380118D01*
Y154665D01*
X384274D01*
X384261Y154731D01*
X383889Y155287D01*
X383333Y155658D01*
X382677Y155789D01*
D02*
G37*
G36*
X378937D02*
X376378D01*
X375722Y155658D01*
X375166Y155287D01*
X374794Y154731D01*
X374781Y154665D01*
X378937D01*
Y155789D01*
D02*
G37*
G36*
X125106Y154831D02*
X121260D01*
Y152559D01*
X125106D01*
Y154831D01*
D02*
G37*
G36*
X120079D02*
X116232D01*
Y152559D01*
X120079D01*
Y154831D01*
D02*
G37*
G36*
X393020Y154626D02*
X390354D01*
Y152453D01*
X393020D01*
Y154626D01*
D02*
G37*
G36*
X389173D02*
X386508D01*
Y152453D01*
X389173D01*
Y154626D01*
D02*
G37*
G36*
X384274Y153484D02*
X380118D01*
Y152361D01*
X382677D01*
X383333Y152491D01*
X383889Y152863D01*
X384261Y153419D01*
X384274Y153484D01*
D02*
G37*
G36*
X378937D02*
X374781D01*
X374794Y153419D01*
X375166Y152863D01*
X375722Y152491D01*
X376378Y152361D01*
X378937D01*
Y153484D01*
D02*
G37*
G36*
X365376Y153484D02*
X361221D01*
Y152361D01*
X363779D01*
X364436Y152491D01*
X364991Y152863D01*
X365363Y153419D01*
X365376Y153484D01*
D02*
G37*
G36*
X360039D02*
X355884D01*
X355897Y153419D01*
X356268Y152863D01*
X356824Y152491D01*
X357480Y152361D01*
X360039D01*
Y153484D01*
D02*
G37*
G36*
X125106Y151378D02*
X121260D01*
Y149106D01*
X125106D01*
Y151378D01*
D02*
G37*
G36*
X120079D02*
X116232D01*
Y149106D01*
X120079D01*
Y151378D01*
D02*
G37*
G36*
X139673Y154831D02*
X130799D01*
Y150974D01*
X128517Y148692D01*
X128276Y148331D01*
X128192Y147906D01*
X128192Y147906D01*
Y139764D01*
X128192Y139764D01*
X128276Y139338D01*
X128517Y138978D01*
X128995Y138500D01*
X128929Y138000D01*
X128929D01*
Y134079D01*
X128429Y133872D01*
X126976Y135325D01*
Y138000D01*
X126014D01*
Y139075D01*
X125929Y139500D01*
X125688Y139861D01*
X125688Y139861D01*
X125437Y140112D01*
X125106Y140445D01*
X125106D01*
X125106Y140445D01*
Y146169D01*
X116232D01*
Y140445D01*
X122463D01*
X122779Y140086D01*
X122863Y139660D01*
X123104Y139300D01*
X123790Y138614D01*
Y138000D01*
X122827D01*
Y136939D01*
X121465D01*
Y138098D01*
X117118D01*
Y133555D01*
X121465D01*
Y134715D01*
X122827D01*
Y133653D01*
X125502D01*
X126841Y132315D01*
Y126201D01*
X126841Y126201D01*
X126926Y125776D01*
X127166Y125415D01*
X127825Y124756D01*
Y121928D01*
X127796Y121909D01*
X127446Y121385D01*
X127323Y120768D01*
Y116634D01*
X127446Y116016D01*
X127796Y115493D01*
X128320Y115143D01*
X128937Y115020D01*
X129554Y115143D01*
X130078Y115493D01*
X130211Y115692D01*
X130813D01*
X130946Y115493D01*
X131469Y115143D01*
X132087Y115020D01*
X132704Y115143D01*
X133228Y115493D01*
X133271Y115558D01*
X133811Y115590D01*
X134124Y115259D01*
Y113582D01*
X134024Y113515D01*
X133653Y112959D01*
X133522Y112303D01*
X133653Y111647D01*
X134024Y111091D01*
X134580Y110720D01*
X135236Y110589D01*
X135892Y110720D01*
X136448Y111091D01*
X136820Y111647D01*
X136950Y112303D01*
X136820Y112959D01*
X136448Y113515D01*
X136348Y113582D01*
Y115473D01*
X136377Y115493D01*
X136510Y115692D01*
X137112D01*
X137245Y115493D01*
X137768Y115143D01*
X137795Y115138D01*
Y118701D01*
Y122264D01*
X137768Y122259D01*
X137245Y121909D01*
X137112Y121710D01*
X136510D01*
X136377Y121909D01*
X135854Y122259D01*
X135236Y122381D01*
X134619Y122259D01*
X134095Y121909D01*
X134051Y121843D01*
X133511Y121812D01*
X133198Y122142D01*
Y126150D01*
X133198Y126150D01*
X133114Y126576D01*
X132873Y126936D01*
X132873Y126936D01*
X132116Y127693D01*
Y133653D01*
X133079D01*
Y134715D01*
X134441D01*
Y133555D01*
X138787D01*
Y138098D01*
X134441D01*
Y136939D01*
X133079D01*
Y138000D01*
X131599D01*
Y138580D01*
X131515Y139005D01*
X131274Y139366D01*
X131274Y139366D01*
X130621Y140019D01*
X130902Y140445D01*
X134646D01*
Y143307D01*
X135236D01*
D01*
X134646D01*
Y146169D01*
X130915D01*
X130799Y146169D01*
X130415Y146450D01*
Y147445D01*
X132055Y149085D01*
X133465D01*
X133465Y149085D01*
X133572Y149106D01*
X139673D01*
Y154831D01*
D02*
G37*
G36*
X350894Y148925D02*
X348721D01*
Y146260D01*
X350894D01*
Y148925D01*
D02*
G37*
G36*
X347539D02*
X345366D01*
Y146260D01*
X347539D01*
Y148925D01*
D02*
G37*
G36*
X382677Y150789D02*
X376378D01*
X375722Y150658D01*
X375166Y150287D01*
X374794Y149731D01*
X374664Y149075D01*
X374794Y148419D01*
X375166Y147863D01*
X375722Y147491D01*
X376378Y147361D01*
X382358D01*
X382855Y146863D01*
X383346Y146535D01*
X383925Y146420D01*
X383926Y146420D01*
X386508D01*
Y145169D01*
X393020D01*
Y150697D01*
X386508D01*
Y149446D01*
X384552D01*
X384246Y149752D01*
X383889Y150287D01*
X383333Y150658D01*
X382677Y150789D01*
D02*
G37*
G36*
X135827Y146169D02*
Y143898D01*
X139673D01*
Y146169D01*
X135827D01*
D02*
G37*
G36*
X162795Y143239D02*
X161114D01*
Y141656D01*
X162795D01*
Y143239D01*
D02*
G37*
G36*
X139673Y142717D02*
X135827D01*
Y140445D01*
X139673D01*
Y142717D01*
D02*
G37*
G36*
X162795Y140475D02*
X161114D01*
Y138892D01*
X162795D01*
Y140475D01*
D02*
G37*
G36*
X382677Y145789D02*
X376378D01*
X375722Y145658D01*
X375166Y145287D01*
X374794Y144731D01*
X374664Y144075D01*
X374794Y143419D01*
X375166Y142863D01*
X375722Y142491D01*
X376378Y142361D01*
X380544D01*
Y141545D01*
X380544Y141545D01*
X380659Y140966D01*
X380987Y140475D01*
X383064Y138398D01*
X383064Y138398D01*
X383555Y138070D01*
X384134Y137955D01*
X386508D01*
Y136705D01*
X393020D01*
Y142232D01*
X386508D01*
Y140982D01*
X384761D01*
X383570Y142172D01*
Y142650D01*
X383889Y142863D01*
X384261Y143419D01*
X384391Y144075D01*
X384261Y144731D01*
X383889Y145287D01*
X383333Y145658D01*
X382677Y145789D01*
D02*
G37*
G36*
X115165Y138098D02*
X113583D01*
Y136417D01*
X115165D01*
Y138098D01*
D02*
G37*
G36*
X145087D02*
X143504D01*
Y136417D01*
X145087D01*
Y138098D01*
D02*
G37*
G36*
X142323D02*
X140740D01*
Y136417D01*
X142323D01*
Y138098D01*
D02*
G37*
G36*
X112402D02*
X110819D01*
Y136417D01*
X112402D01*
Y138098D01*
D02*
G37*
G36*
X145087Y135236D02*
X143504D01*
Y133555D01*
X145087D01*
Y135236D01*
D02*
G37*
G36*
X142323D02*
X140740D01*
Y133555D01*
X142323D01*
Y135236D01*
D02*
G37*
G36*
X115165D02*
X113583D01*
Y133555D01*
X115165D01*
Y135236D01*
D02*
G37*
G36*
X112402D02*
X110819D01*
Y133555D01*
X112402D01*
Y135236D01*
D02*
G37*
G36*
X377961Y135441D02*
X373031D01*
Y132480D01*
X377961D01*
Y135441D01*
D02*
G37*
G36*
X371850D02*
X366921D01*
Y132480D01*
X371850D01*
Y135441D01*
D02*
G37*
G36*
X225500Y135736D02*
X223130D01*
Y130512D01*
X225500D01*
Y135736D01*
D02*
G37*
G36*
X221949D02*
X219579D01*
Y130512D01*
X221949D01*
Y135736D01*
D02*
G37*
G36*
X377961Y131299D02*
X373031D01*
Y128339D01*
X377961D01*
Y131299D01*
D02*
G37*
G36*
X371850D02*
X366921D01*
Y128339D01*
X371850D01*
Y131299D01*
D02*
G37*
G36*
X385236Y126878D02*
X380012D01*
Y124508D01*
X385236D01*
Y126878D01*
D02*
G37*
G36*
X220677Y120579D02*
X218602D01*
Y117913D01*
X220677D01*
Y120579D01*
D02*
G37*
G36*
X250205D02*
X248130D01*
Y117913D01*
X250205D01*
Y120579D01*
D02*
G37*
G36*
X217421D02*
X215347D01*
Y117913D01*
X217421D01*
Y120579D01*
D02*
G37*
G36*
X246949D02*
X244874D01*
Y117913D01*
X246949D01*
Y120579D01*
D02*
G37*
G36*
X337205Y118571D02*
Y114764D01*
X341012D01*
X340937Y115331D01*
X340490Y116411D01*
X339779Y117338D01*
X338852Y118049D01*
X337772Y118496D01*
X337205Y118571D01*
D02*
G37*
G36*
X336024Y118571D02*
X335456Y118496D01*
X334377Y118049D01*
X333450Y117338D01*
X332738Y116411D01*
X332291Y115331D01*
X332217Y114764D01*
X336024D01*
Y118571D01*
D02*
G37*
G36*
X279732Y120579D02*
X274402D01*
Y114067D01*
X279732D01*
Y120579D01*
D02*
G37*
G36*
X265264Y133079D02*
X261902D01*
Y130512D01*
X263583D01*
X265529D01*
X265764Y130609D01*
X267011Y129362D01*
Y123406D01*
X266438Y122834D01*
X266197Y122473D01*
X266112Y122047D01*
X266112Y122047D01*
Y120579D01*
X264559D01*
Y114067D01*
X269890D01*
Y120579D01*
X268336D01*
Y121587D01*
X268909Y122159D01*
X268909Y122159D01*
X269150Y122520D01*
X269234Y122945D01*
X269234Y122945D01*
Y129823D01*
X269150Y130248D01*
X268909Y130609D01*
X268909Y130609D01*
X266842Y132676D01*
X266481Y132917D01*
X266056Y133002D01*
X266055Y133002D01*
X265264D01*
Y133079D01*
D02*
G37*
G36*
X257784Y129331D02*
X256102D01*
X254421D01*
Y126764D01*
X254990D01*
Y124225D01*
X254990Y124225D01*
X255075Y123799D01*
X255316Y123439D01*
X256270Y122485D01*
Y120579D01*
X254716D01*
Y114067D01*
X260047D01*
Y120579D01*
X258494D01*
Y122945D01*
X258494Y122945D01*
X258409Y123371D01*
X258168Y123732D01*
X257214Y124685D01*
Y126764D01*
X257784D01*
Y128732D01*
Y129331D01*
D02*
G37*
G36*
X250205Y116732D02*
X248130D01*
Y114067D01*
X250205D01*
Y116732D01*
D02*
G37*
G36*
X246949D02*
X244874D01*
Y114067D01*
X246949D01*
Y116732D01*
D02*
G37*
G36*
X220677D02*
X218602D01*
Y114067D01*
X220677D01*
Y116732D01*
D02*
G37*
G36*
X217421D02*
X215347D01*
Y114067D01*
X217421D01*
Y116732D01*
D02*
G37*
G36*
X208571Y129331D02*
X206890D01*
X205209D01*
Y126764D01*
X205778D01*
Y124520D01*
X205778Y124520D01*
X205862Y124095D01*
X206103Y123734D01*
X207353Y122485D01*
Y120579D01*
X205799D01*
Y114067D01*
X211130D01*
Y120579D01*
X209577D01*
Y122945D01*
X209492Y123371D01*
X209251Y123732D01*
X209251Y123732D01*
X208002Y124981D01*
Y126764D01*
X208571D01*
Y128732D01*
Y129331D01*
D02*
G37*
G36*
X204437Y120579D02*
X199106D01*
Y114067D01*
X204437D01*
Y120579D01*
D02*
G37*
G36*
X336024Y113583D02*
X332217D01*
X332291Y113015D01*
X332738Y111936D01*
X333450Y111009D01*
X334377Y110298D01*
X335456Y109850D01*
X336024Y109776D01*
Y113583D01*
D02*
G37*
G36*
X341012D02*
X337205D01*
Y109776D01*
X337772Y109850D01*
X338852Y110298D01*
X339779Y111009D01*
X340490Y111936D01*
X340937Y113015D01*
X341012Y113583D01*
D02*
G37*
G36*
X114476Y97843D02*
X112795D01*
Y96260D01*
X114476D01*
Y97843D01*
D02*
G37*
G36*
X111614D02*
X109933D01*
Y96260D01*
X111614D01*
Y97843D01*
D02*
G37*
G36*
X114476Y95079D02*
X112795D01*
Y93496D01*
X114476D01*
Y95079D01*
D02*
G37*
G36*
X111614D02*
X109933D01*
Y93496D01*
X111614D01*
Y95079D01*
D02*
G37*
G36*
X193433Y94398D02*
X191162D01*
Y92520D01*
X193433D01*
Y94398D01*
D02*
G37*
G36*
X189980D02*
X187709D01*
Y92520D01*
X189980D01*
Y94398D01*
D02*
G37*
G36*
X298551Y92429D02*
X296870D01*
Y90158D01*
X298551D01*
Y92429D01*
D02*
G37*
G36*
X295689D02*
X294008D01*
Y90158D01*
X295689D01*
Y92429D01*
D02*
G37*
G36*
X193433Y91339D02*
X191162D01*
Y89461D01*
X193433D01*
Y91339D01*
D02*
G37*
G36*
X189980D02*
X187709D01*
Y89461D01*
X189980D01*
Y91339D01*
D02*
G37*
G36*
X298551Y88976D02*
X296870D01*
Y86705D01*
X298551D01*
Y88976D01*
D02*
G37*
G36*
X295689D02*
X294008D01*
Y86705D01*
X295689D01*
Y88976D01*
D02*
G37*
G36*
X191465Y84555D02*
X189783D01*
Y82283D01*
X191465D01*
Y84555D01*
D02*
G37*
G36*
X188602D02*
X186921D01*
Y82283D01*
X188602D01*
Y84555D01*
D02*
G37*
G36*
X191465Y81102D02*
X189783D01*
Y78831D01*
X191465D01*
Y81102D01*
D02*
G37*
G36*
X188602D02*
X186921D01*
Y78831D01*
X188602D01*
Y81102D01*
D02*
G37*
G36*
X43740Y59516D02*
Y55709D01*
X47547D01*
X47472Y56276D01*
X47025Y57356D01*
X46314Y58283D01*
X45387Y58994D01*
X44308Y59441D01*
X43740Y59516D01*
D02*
G37*
G36*
X42559D02*
X41991Y59441D01*
X40912Y58994D01*
X39985Y58283D01*
X39274Y57356D01*
X38827Y56276D01*
X38752Y55709D01*
X42559D01*
Y59516D01*
D02*
G37*
G36*
X47547Y54527D02*
X43740D01*
Y50721D01*
X44308Y50795D01*
X45387Y51242D01*
X46314Y51954D01*
X47025Y52881D01*
X47472Y53960D01*
X47547Y54527D01*
D02*
G37*
G36*
X42559D02*
X38752D01*
X38827Y53960D01*
X39274Y52881D01*
X39985Y51954D01*
X40912Y51242D01*
X41991Y50795D01*
X42559Y50721D01*
Y54527D01*
D02*
G37*
G36*
X73150Y59593D02*
X71991Y59441D01*
X70912Y58994D01*
X69985Y58283D01*
X69274Y57356D01*
X68827Y56276D01*
X68674Y55118D01*
X68827Y53960D01*
X69274Y52881D01*
X69985Y51954D01*
X70912Y51242D01*
X71991Y50795D01*
X73150Y50643D01*
X74308Y50795D01*
X75387Y51242D01*
X76314Y51954D01*
X77025Y52881D01*
X77472Y53960D01*
X77625Y55118D01*
X77472Y56276D01*
X77025Y57356D01*
X76314Y58283D01*
X75387Y58994D01*
X74308Y59441D01*
X73150Y59593D01*
D02*
G37*
G36*
X53150D02*
X51991Y59441D01*
X50912Y58994D01*
X49985Y58283D01*
X49274Y57356D01*
X48827Y56276D01*
X48674Y55118D01*
X48827Y53960D01*
X49274Y52881D01*
X49985Y51954D01*
X50912Y51242D01*
X51991Y50795D01*
X53150Y50643D01*
X54308Y50795D01*
X55387Y51242D01*
X56314Y51954D01*
X57025Y52881D01*
X57472Y53960D01*
X57625Y55118D01*
X57472Y56276D01*
X57025Y57356D01*
X56314Y58283D01*
X55387Y58994D01*
X54308Y59441D01*
X53150Y59593D01*
D02*
G37*
G36*
X92520Y67461D02*
X90897Y67333D01*
X89314Y66953D01*
X87810Y66330D01*
X86422Y65480D01*
X85184Y64423D01*
X84127Y63185D01*
X83276Y61796D01*
X82653Y60293D01*
X82273Y58710D01*
X82145Y57087D01*
X82273Y55464D01*
X82653Y53881D01*
X83276Y52377D01*
X84127Y50989D01*
X85184Y49751D01*
X86422Y48693D01*
X87810Y47843D01*
X89314Y47220D01*
X90897Y46840D01*
X92520Y46712D01*
X94143Y46840D01*
X95726Y47220D01*
X97230Y47843D01*
X98618Y48693D01*
X99856Y49751D01*
X100913Y50989D01*
X101763Y52377D01*
X102386Y53881D01*
X102767Y55464D01*
X102894Y57087D01*
X102767Y58710D01*
X102386Y60293D01*
X101763Y61796D01*
X100913Y63185D01*
X99856Y64423D01*
X98618Y65480D01*
X97230Y66330D01*
X95726Y66953D01*
X94143Y67333D01*
X92520Y67461D01*
D02*
G37*
G36*
X13780D02*
X12157Y67333D01*
X10574Y66953D01*
X9070Y66330D01*
X7682Y65480D01*
X6444Y64423D01*
X5386Y63185D01*
X4536Y61796D01*
X3913Y60293D01*
X3533Y58710D01*
X3405Y57087D01*
X3533Y55464D01*
X3913Y53881D01*
X4536Y52377D01*
X5386Y50989D01*
X6444Y49751D01*
X7682Y48693D01*
X9070Y47843D01*
X10574Y47220D01*
X12157Y46840D01*
X13780Y46712D01*
X15403Y46840D01*
X16985Y47220D01*
X18489Y47843D01*
X19877Y48693D01*
X21115Y49751D01*
X22173Y50989D01*
X23023Y52377D01*
X23646Y53881D01*
X24026Y55464D01*
X24154Y57087D01*
X24026Y58710D01*
X23646Y60293D01*
X23023Y61796D01*
X22173Y63185D01*
X21115Y64423D01*
X19877Y65480D01*
X18489Y66330D01*
X16985Y66953D01*
X15403Y67333D01*
X13780Y67461D01*
D02*
G37*
G36*
X130224Y44693D02*
X128543D01*
Y43110D01*
X130224D01*
Y44693D01*
D02*
G37*
G36*
X127362D02*
X125681D01*
Y43110D01*
X127362D01*
Y44693D01*
D02*
G37*
G36*
X159752Y44693D02*
X158071D01*
Y43110D01*
X159752D01*
Y44693D01*
D02*
G37*
G36*
X156890D02*
X155209D01*
Y43110D01*
X156890D01*
Y44693D01*
D02*
G37*
G36*
X159752Y41929D02*
X158071D01*
Y40347D01*
X159752D01*
Y41929D01*
D02*
G37*
G36*
X156890D02*
X155209D01*
Y40347D01*
X156890D01*
Y41929D01*
D02*
G37*
G36*
X130224Y41929D02*
X128543D01*
Y40346D01*
X130224D01*
Y41929D01*
D02*
G37*
G36*
X127362D02*
X125681D01*
Y40346D01*
X127362D01*
Y41929D01*
D02*
G37*
G36*
X159752Y38394D02*
X155209D01*
Y37832D01*
X153748D01*
Y38394D01*
X149402D01*
Y34244D01*
X150062D01*
Y23265D01*
X142329Y15532D01*
X141804Y15750D01*
X140748Y15889D01*
X139692Y15750D01*
X138709Y15343D01*
X137864Y14695D01*
X137216Y13850D01*
X136809Y12867D01*
X136670Y11811D01*
X136809Y10756D01*
X137216Y9772D01*
X137864Y8927D01*
X138709Y8279D01*
X139692Y7872D01*
X140748Y7733D01*
X141804Y7872D01*
X142787Y8279D01*
X143632Y8927D01*
X144280Y9772D01*
X144687Y10756D01*
X144826Y11811D01*
X144687Y12867D01*
X144469Y13392D01*
X152645Y21568D01*
X152645Y21568D01*
X152973Y22059D01*
X153088Y22638D01*
Y34244D01*
X153748D01*
Y34806D01*
X155209D01*
Y34047D01*
X159752D01*
Y34806D01*
X161213D01*
Y34244D01*
X165559D01*
Y38394D01*
X161213D01*
Y37832D01*
X159752D01*
Y38394D01*
D02*
G37*
G36*
X177370Y38394D02*
X173024D01*
Y37431D01*
X171465D01*
Y38394D01*
X167118D01*
Y34244D01*
X171465D01*
Y35207D01*
X173024D01*
Y34244D01*
X177370D01*
Y34715D01*
X187709D01*
Y33358D01*
X193433D01*
Y38295D01*
X187709D01*
Y36939D01*
X177370D01*
Y38394D01*
D02*
G37*
G36*
X86890Y39334D02*
Y36024D01*
X90200D01*
X90143Y36463D01*
X89745Y37422D01*
X89113Y38247D01*
X88289Y38879D01*
X87329Y39276D01*
X86890Y39334D01*
D02*
G37*
G36*
X110244Y39378D02*
X102354D01*
Y31488D01*
X110244D01*
Y34806D01*
X119874D01*
Y34244D01*
X124221D01*
Y34806D01*
X125681D01*
Y34047D01*
X130224D01*
Y34806D01*
X131685D01*
Y34244D01*
X136031D01*
Y38394D01*
X131685D01*
Y37832D01*
X130224D01*
Y38394D01*
X125681D01*
Y37832D01*
X124221D01*
Y38394D01*
X119874D01*
Y37832D01*
X110244D01*
Y39378D01*
D02*
G37*
G36*
X90200Y34843D02*
X86890D01*
Y31532D01*
X87329Y31590D01*
X88289Y31987D01*
X89113Y32620D01*
X89745Y33444D01*
X90143Y34403D01*
X90200Y34843D01*
D02*
G37*
G36*
X56299Y39412D02*
X55269Y39276D01*
X54310Y38879D01*
X53486Y38247D01*
X52853Y37422D01*
X52456Y36463D01*
X52320Y35433D01*
X52456Y34403D01*
X52853Y33444D01*
X53486Y32620D01*
X54310Y31987D01*
X55269Y31590D01*
X56299Y31454D01*
X57329Y31590D01*
X58289Y31987D01*
X59113Y32620D01*
X59745Y33444D01*
X60143Y34403D01*
X60278Y35433D01*
X60143Y36463D01*
X59745Y37422D01*
X59113Y38247D01*
X58289Y38879D01*
X57329Y39276D01*
X56299Y39412D01*
D02*
G37*
G36*
X147843Y38394D02*
X143496D01*
Y34244D01*
X144156D01*
Y32123D01*
X143074Y31041D01*
X140178D01*
X139987Y31503D01*
X140563Y32079D01*
X140563Y32079D01*
X140891Y32570D01*
X141006Y33149D01*
Y34244D01*
X141937D01*
Y38394D01*
X137591D01*
Y34244D01*
X137591D01*
X137768Y33744D01*
X137549Y33509D01*
X130867D01*
X130867Y33509D01*
X130288Y33394D01*
X129797Y33066D01*
X128272Y31541D01*
X115277D01*
X115277Y31541D01*
X114698Y31426D01*
X114207Y31098D01*
X108244Y25135D01*
X92362D01*
X92362Y25135D01*
X91783Y25020D01*
X91292Y24692D01*
X91292Y24692D01*
X86371Y19771D01*
X85646Y20071D01*
X84488Y20223D01*
X83330Y20071D01*
X82250Y19624D01*
X81324Y18913D01*
X80612Y17986D01*
X80165Y16906D01*
X80013Y15748D01*
X80165Y14590D01*
X80612Y13510D01*
X81324Y12584D01*
X82250Y11872D01*
X83330Y11425D01*
X84488Y11273D01*
X85646Y11425D01*
X86726Y11872D01*
X87653Y12584D01*
X88364Y13510D01*
X88811Y14590D01*
X88964Y15748D01*
X88811Y16906D01*
X88511Y17631D01*
X92989Y22109D01*
X108055D01*
X108247Y21647D01*
X106371Y19771D01*
X105647Y20071D01*
X104488Y20223D01*
X103330Y20071D01*
X102251Y19624D01*
X101324Y18913D01*
X100612Y17986D01*
X100165Y16906D01*
X100013Y15748D01*
X100165Y14590D01*
X100612Y13510D01*
X101324Y12584D01*
X102251Y11872D01*
X103330Y11425D01*
X104488Y11273D01*
X105647Y11425D01*
X106726Y11872D01*
X107653Y12584D01*
X108364Y13510D01*
X108811Y14590D01*
X108964Y15748D01*
X108811Y16906D01*
X108511Y17631D01*
X116926Y26046D01*
X129921D01*
X129921Y26046D01*
X130500Y26161D01*
X130991Y26489D01*
X132517Y28014D01*
X143701D01*
X143701Y28014D01*
X144280Y28129D01*
X144771Y28457D01*
X146739Y30426D01*
X147067Y30917D01*
X147183Y31496D01*
X147183Y31496D01*
Y34244D01*
X147843D01*
Y38394D01*
D02*
G37*
G36*
X297764Y28453D02*
X292343D01*
Y17520D01*
X297764D01*
Y28453D01*
D02*
G37*
G36*
X194024D02*
X191457D01*
Y17520D01*
X194024D01*
Y28453D01*
D02*
G37*
G36*
X190276D02*
X187709D01*
Y17520D01*
X190276D01*
Y28453D01*
D02*
G37*
G36*
X291161D02*
X285740D01*
Y17520D01*
X291161D01*
Y28453D01*
D02*
G37*
G36*
X95079Y20146D02*
Y16339D01*
X98886D01*
X98811Y16906D01*
X98364Y17986D01*
X97653Y18913D01*
X96726Y19624D01*
X95647Y20071D01*
X95079Y20146D01*
D02*
G37*
G36*
X93898Y20146D02*
X93330Y20071D01*
X92251Y19624D01*
X91324Y18913D01*
X90613Y17986D01*
X90165Y16906D01*
X90091Y16339D01*
X93898D01*
Y20146D01*
D02*
G37*
G36*
X163406Y27082D02*
X161990Y26896D01*
X160671Y26350D01*
X159539Y25481D01*
X158670Y24348D01*
X158124Y23029D01*
X157938Y21614D01*
X158124Y20199D01*
X158670Y18880D01*
X159539Y17748D01*
X160671Y16879D01*
X161990Y16332D01*
X163406Y16146D01*
X164821Y16332D01*
X166139Y16879D01*
X167272Y17748D01*
X168141Y18880D01*
X168687Y20199D01*
X168874Y21614D01*
X168687Y23029D01*
X168141Y24348D01*
X167272Y25481D01*
X166139Y26350D01*
X164821Y26896D01*
X163406Y27082D01*
D02*
G37*
G36*
X135807D02*
X134392Y26896D01*
X133073Y26350D01*
X131941Y25481D01*
X131072Y24348D01*
X130525Y23029D01*
X130339Y21614D01*
X130525Y20199D01*
X131072Y18880D01*
X131941Y17748D01*
X133073Y16879D01*
X134392Y16332D01*
X135807Y16146D01*
X137222Y16332D01*
X138541Y16879D01*
X139674Y17748D01*
X140543Y18880D01*
X141089Y20199D01*
X141275Y21614D01*
X141089Y23029D01*
X140543Y24348D01*
X139674Y25481D01*
X138541Y26350D01*
X137222Y26896D01*
X135807Y27082D01*
D02*
G37*
G36*
X159055Y15811D02*
Y12402D01*
X162465D01*
X162404Y12867D01*
X161996Y13850D01*
X161348Y14695D01*
X160504Y15343D01*
X159520Y15750D01*
X159055Y15811D01*
D02*
G37*
G36*
X157874D02*
X157409Y15750D01*
X156425Y15343D01*
X155581Y14695D01*
X154933Y13850D01*
X154525Y12867D01*
X154464Y12402D01*
X157874D01*
Y15811D01*
D02*
G37*
G36*
X93898Y15157D02*
X90091D01*
X90165Y14590D01*
X90613Y13510D01*
X91324Y12584D01*
X92251Y11872D01*
X93330Y11425D01*
X93898Y11350D01*
Y15157D01*
D02*
G37*
G36*
X98886D02*
X95079D01*
Y11350D01*
X95647Y11425D01*
X96726Y11872D01*
X97653Y12584D01*
X98364Y13510D01*
X98811Y14590D01*
X98886Y15157D01*
D02*
G37*
G36*
X162465Y11220D02*
X159055D01*
Y7811D01*
X159520Y7872D01*
X160504Y8279D01*
X161348Y8927D01*
X161996Y9772D01*
X162404Y10756D01*
X162465Y11220D01*
D02*
G37*
G36*
X157874D02*
X154464D01*
X154525Y10756D01*
X154933Y9772D01*
X155581Y8927D01*
X156425Y8279D01*
X157409Y7872D01*
X157874Y7811D01*
Y11220D01*
D02*
G37*
G36*
X297764Y16339D02*
X292343D01*
Y5406D01*
X297764D01*
Y16339D01*
D02*
G37*
G36*
X291161D02*
X285740D01*
Y5406D01*
X291161D01*
Y16339D01*
D02*
G37*
G36*
X194024D02*
X191457D01*
Y5406D01*
X194024D01*
Y16339D01*
D02*
G37*
G36*
X190276D02*
X187709D01*
Y5406D01*
X190276D01*
Y16339D01*
D02*
G37*
G36*
X140067Y66839D02*
X137697D01*
Y61614D01*
X140067D01*
Y66839D01*
D02*
G37*
G36*
X136516D02*
X134146D01*
Y61614D01*
X136516D01*
Y66839D01*
D02*
G37*
G36*
X140067Y60433D02*
X137697D01*
Y55209D01*
X140067D01*
Y60433D01*
D02*
G37*
G36*
X136516D02*
X134146D01*
Y55209D01*
X136516D01*
Y60433D01*
D02*
G37*
G36*
X181405Y111622D02*
X179724D01*
Y110039D01*
X181405D01*
Y111622D01*
D02*
G37*
G36*
X178543D02*
X176862D01*
Y110039D01*
X178543D01*
Y111622D01*
D02*
G37*
G36*
X181405Y108858D02*
X179724D01*
Y107276D01*
X181405D01*
Y108858D01*
D02*
G37*
G36*
X178543D02*
X176862D01*
Y107276D01*
X178543D01*
Y108858D01*
D02*
G37*
G36*
X181405Y89575D02*
X179724D01*
Y87992D01*
X181405D01*
Y89575D01*
D02*
G37*
G36*
X178543D02*
X176862D01*
Y87992D01*
X178543D01*
Y89575D01*
D02*
G37*
G36*
X380512Y85106D02*
Y81299D01*
X384319D01*
X384244Y81867D01*
X383797Y82946D01*
X383086Y83873D01*
X382159Y84584D01*
X381080Y85031D01*
X380512Y85106D01*
D02*
G37*
G36*
X379331Y85106D02*
X378763Y85031D01*
X377684Y84584D01*
X376757Y83873D01*
X376045Y82946D01*
X375599Y81867D01*
X375524Y81299D01*
X379331D01*
Y85106D01*
D02*
G37*
G36*
X384319Y80118D02*
X380512D01*
Y76311D01*
X381080Y76386D01*
X382159Y76833D01*
X383086Y77544D01*
X383797Y78471D01*
X384244Y79550D01*
X384319Y80118D01*
D02*
G37*
G36*
X379331D02*
X375524D01*
X375599Y79550D01*
X376045Y78471D01*
X376757Y77544D01*
X377684Y76833D01*
X378763Y76386D01*
X379331Y76311D01*
Y80118D01*
D02*
G37*
G36*
X342429Y73335D02*
X333858D01*
Y69488D01*
X342429D01*
Y73335D01*
D02*
G37*
G36*
X332677D02*
X324106D01*
Y69488D01*
X332677D01*
Y73335D01*
D02*
G37*
G36*
X342429Y68307D02*
X333858D01*
Y64461D01*
X342429D01*
Y68307D01*
D02*
G37*
G36*
X332677D02*
X324106D01*
Y64461D01*
X332677D01*
Y68307D01*
D02*
G37*
G36*
X349213Y46616D02*
X346654D01*
Y45492D01*
X350809D01*
X350796Y45557D01*
X350425Y46114D01*
X349868Y46485D01*
X349213Y46616D01*
D02*
G37*
G36*
X345472D02*
X342913D01*
X342257Y46485D01*
X341701Y46114D01*
X341330Y45557D01*
X341317Y45492D01*
X345472D01*
Y46616D01*
D02*
G37*
G36*
X350809Y44311D02*
X346654D01*
Y43187D01*
X349213D01*
X349868Y43318D01*
X350425Y43690D01*
X350796Y44246D01*
X350809Y44311D01*
D02*
G37*
G36*
X345472D02*
X341317D01*
X341330Y44246D01*
X341701Y43690D01*
X342257Y43318D01*
X342913Y43187D01*
X345472D01*
Y44311D01*
D02*
G37*
G36*
X349213Y41616D02*
X346654D01*
Y40492D01*
X350809D01*
X350796Y40558D01*
X350425Y41114D01*
X349868Y41485D01*
X349213Y41616D01*
D02*
G37*
G36*
X345472D02*
X342913D01*
X342257Y41485D01*
X341701Y41114D01*
X341330Y40558D01*
X341317Y40492D01*
X345472D01*
Y41616D01*
D02*
G37*
G36*
X361524Y40461D02*
X358858D01*
Y38287D01*
X361524D01*
Y40461D01*
D02*
G37*
G36*
X357677D02*
X355012D01*
Y38287D01*
X357677D01*
Y40461D01*
D02*
G37*
G36*
X350809Y39311D02*
X346654D01*
Y38188D01*
X349213D01*
X349868Y38318D01*
X350425Y38690D01*
X350796Y39246D01*
X350809Y39311D01*
D02*
G37*
G36*
X345472D02*
X341317D01*
X341330Y39246D01*
X341701Y38690D01*
X342257Y38318D01*
X342913Y38188D01*
X345472D01*
Y39311D01*
D02*
G37*
G36*
X330315Y36616D02*
X324016D01*
X323360Y36485D01*
X323255Y36415D01*
X319659D01*
X319554Y36485D01*
X318898Y36616D01*
X318242Y36485D01*
X317686Y36114D01*
X317314Y35557D01*
X317184Y34902D01*
X317314Y34246D01*
X317686Y33690D01*
X318242Y33318D01*
X318898Y33187D01*
X319554Y33318D01*
X319659Y33388D01*
X323255D01*
X323360Y33318D01*
X324016Y33187D01*
X330315D01*
X330971Y33318D01*
X331527Y33690D01*
X331898Y34246D01*
X332029Y34902D01*
X331898Y35557D01*
X331527Y36114D01*
X330971Y36485D01*
X330315Y36616D01*
D02*
G37*
G36*
X349213D02*
X346654D01*
Y35492D01*
X350809D01*
X350796Y35557D01*
X350425Y36114D01*
X349868Y36485D01*
X349213Y36616D01*
D02*
G37*
G36*
X345472D02*
X342913D01*
X342257Y36485D01*
X341701Y36114D01*
X341330Y35557D01*
X341317Y35492D01*
X345472D01*
Y36616D01*
D02*
G37*
G36*
X361524Y37106D02*
X358858D01*
Y34933D01*
X361524D01*
Y37106D01*
D02*
G37*
G36*
X357677D02*
X355012D01*
Y34933D01*
X357677D01*
Y37106D01*
D02*
G37*
G36*
X350809Y34311D02*
X346654D01*
Y33187D01*
X349213D01*
X349868Y33318D01*
X350425Y33690D01*
X350796Y34246D01*
X350809Y34311D01*
D02*
G37*
G36*
X345472D02*
X341317D01*
X341330Y34246D01*
X341701Y33690D01*
X342257Y33318D01*
X342913Y33187D01*
X345472D01*
Y34311D01*
D02*
G37*
G36*
X314575Y36622D02*
X311614D01*
Y31693D01*
X314575D01*
Y36622D01*
D02*
G37*
G36*
X310433D02*
X307472D01*
Y31693D01*
X310433D01*
Y36622D01*
D02*
G37*
G36*
X349213Y31616D02*
X346654D01*
Y30492D01*
X350809D01*
X350796Y30558D01*
X350425Y31114D01*
X349868Y31485D01*
X349213Y31616D01*
D02*
G37*
G36*
X345472D02*
X342913D01*
X342257Y31485D01*
X341701Y31114D01*
X341330Y30558D01*
X341317Y30492D01*
X345472D01*
Y31616D01*
D02*
G37*
G36*
X330315D02*
X327756D01*
Y30492D01*
X331911D01*
X331898Y30558D01*
X331527Y31114D01*
X330971Y31485D01*
X330315Y31616D01*
D02*
G37*
G36*
X326575D02*
X324016D01*
X323360Y31485D01*
X322804Y31114D01*
X322432Y30558D01*
X322419Y30492D01*
X326575D01*
Y31616D01*
D02*
G37*
G36*
X350809Y29311D02*
X346654D01*
Y28188D01*
X349213D01*
X349868Y28318D01*
X350425Y28690D01*
X350796Y29246D01*
X350809Y29311D01*
D02*
G37*
G36*
X345472D02*
X341317D01*
X341330Y29246D01*
X341701Y28690D01*
X342257Y28318D01*
X342913Y28188D01*
X345472D01*
Y29311D01*
D02*
G37*
G36*
X331911Y29311D02*
X327756D01*
Y28188D01*
X330315D01*
X330971Y28318D01*
X331527Y28690D01*
X331898Y29246D01*
X331911Y29311D01*
D02*
G37*
G36*
X326575D02*
X322419D01*
X322432Y29246D01*
X322804Y28690D01*
X323360Y28318D01*
X324016Y28188D01*
X326575D01*
Y29311D01*
D02*
G37*
G36*
X314575Y30512D02*
X311614D01*
Y25583D01*
X314575D01*
Y30512D01*
D02*
G37*
G36*
X310433D02*
X307472D01*
Y25583D01*
X310433D01*
Y30512D01*
D02*
G37*
G36*
X332587Y22547D02*
X327362D01*
Y20177D01*
X332587D01*
Y22547D01*
D02*
G37*
G36*
X326181D02*
X320957D01*
Y20177D01*
X326181D01*
Y22547D01*
D02*
G37*
G36*
X332587Y18996D02*
X327362D01*
Y16626D01*
X332587D01*
Y18996D01*
D02*
G37*
G36*
X326181D02*
X320957D01*
Y16626D01*
X326181D01*
Y18996D01*
D02*
G37*
%LPD*%
D21*
X311024Y43701D02*
D03*
Y31102D02*
D03*
X328740Y171653D02*
D03*
Y159055D02*
D03*
X344488Y205118D02*
D03*
Y192520D02*
D03*
D22*
X328740Y194587D02*
D03*
Y183366D02*
D03*
D23*
X282677Y179134D02*
D03*
X276378D02*
D03*
X164567Y173228D02*
D03*
X158268D02*
D03*
X164567Y161417D02*
D03*
X158268D02*
D03*
X205512Y173228D02*
D03*
X211811D02*
D03*
X217323Y167323D02*
D03*
X223622D02*
D03*
X223622Y179134D02*
D03*
X217323D02*
D03*
X119291Y135827D02*
D03*
X112992D02*
D03*
X136614D02*
D03*
X142913D02*
D03*
D24*
X175197Y42421D02*
D03*
Y36319D02*
D03*
X145669D02*
D03*
Y42421D02*
D03*
X94488Y205807D02*
D03*
Y199705D02*
D03*
X88583Y205807D02*
D03*
Y199705D02*
D03*
X133858Y42421D02*
D03*
Y36319D02*
D03*
X122047Y42421D02*
D03*
Y36319D02*
D03*
X169291Y42421D02*
D03*
Y36319D02*
D03*
X139764Y42421D02*
D03*
Y36319D02*
D03*
X151575Y42421D02*
D03*
Y36319D02*
D03*
X163386Y42421D02*
D03*
Y36319D02*
D03*
X76772Y205807D02*
D03*
Y199705D02*
D03*
X82677Y205807D02*
D03*
Y199705D02*
D03*
D25*
X214370Y131890D02*
D03*
Y129921D02*
D03*
Y127953D02*
D03*
X206890D02*
D03*
Y129921D02*
D03*
Y131890D02*
D03*
X263583Y127953D02*
D03*
Y129921D02*
D03*
Y131890D02*
D03*
X256102D02*
D03*
Y129921D02*
D03*
Y127953D02*
D03*
D26*
X296280Y89567D02*
D03*
X189193Y81693D02*
D03*
D27*
X291752Y16929D02*
D03*
D28*
X190866D02*
D03*
D29*
X190571Y35827D02*
D03*
Y91929D02*
D03*
D30*
X195453Y117323D02*
D03*
D31*
X201772D02*
D03*
X208465D02*
D03*
X277067D02*
D03*
X218012D02*
D03*
X227854D02*
D03*
X237697D02*
D03*
X247539D02*
D03*
X257382D02*
D03*
X267224D02*
D03*
D32*
X122441Y80709D02*
D03*
Y83858D02*
D03*
Y87008D02*
D03*
Y90158D02*
D03*
Y93307D02*
D03*
Y96457D02*
D03*
Y99606D02*
D03*
Y102756D02*
D03*
Y105905D02*
D03*
Y109055D02*
D03*
Y112205D02*
D03*
X166929Y112205D02*
D03*
Y109055D02*
D03*
Y105905D02*
D03*
Y102756D02*
D03*
Y99606D02*
D03*
Y96457D02*
D03*
Y93307D02*
D03*
Y90158D02*
D03*
Y87008D02*
D03*
Y83858D02*
D03*
Y80709D02*
D03*
D33*
X128937Y118701D02*
D03*
X132087D02*
D03*
X135236D02*
D03*
X138386D02*
D03*
X141535D02*
D03*
X144685D02*
D03*
X147835D02*
D03*
X150984D02*
D03*
X154134D02*
D03*
X157283D02*
D03*
X160433D02*
D03*
X160433Y74213D02*
D03*
X157283D02*
D03*
X154134D02*
D03*
X150984D02*
D03*
X147835D02*
D03*
X144685D02*
D03*
X141535D02*
D03*
X138386D02*
D03*
X135236D02*
D03*
X132087D02*
D03*
X128937D02*
D03*
D34*
X358268Y37697D02*
D03*
Y44980D02*
D03*
X389764Y155217D02*
D03*
Y147933D02*
D03*
Y132185D02*
D03*
Y139469D02*
D03*
D35*
X327165Y44902D02*
D03*
Y39902D02*
D03*
Y34902D02*
D03*
Y29902D02*
D03*
X346063Y44902D02*
D03*
Y39902D02*
D03*
Y34902D02*
D03*
Y29902D02*
D03*
X379528Y144075D02*
D03*
Y149075D02*
D03*
Y154075D02*
D03*
Y159075D02*
D03*
X360630Y144075D02*
D03*
Y149075D02*
D03*
Y154075D02*
D03*
Y159075D02*
D03*
X175591Y178760D02*
D03*
Y173760D02*
D03*
Y168760D02*
D03*
Y163760D02*
D03*
X194488Y178760D02*
D03*
Y173760D02*
D03*
Y168760D02*
D03*
Y163760D02*
D03*
D36*
X385827Y123917D02*
D03*
Y112303D02*
D03*
X344488Y165256D02*
D03*
Y153642D02*
D03*
X326772Y19587D02*
D03*
Y7972D02*
D03*
D37*
X372441Y116142D02*
D03*
X363779D02*
D03*
D38*
X372441Y131890D02*
D03*
X359842D02*
D03*
D39*
X348130Y145669D02*
D03*
X340846D02*
D03*
D40*
X348425Y173425D02*
D03*
Y180905D02*
D03*
X340551Y180905D02*
D03*
Y173425D02*
D03*
X309055Y171457D02*
D03*
Y178937D02*
D03*
X316929Y171457D02*
D03*
Y178937D02*
D03*
D41*
X164469Y167323D02*
D03*
X158366D02*
D03*
X205610Y167323D02*
D03*
X211713D02*
D03*
X205610Y179134D02*
D03*
X211713D02*
D03*
X164469Y179134D02*
D03*
X158366D02*
D03*
X180020Y133858D02*
D03*
X186122D02*
D03*
X131004Y135827D02*
D03*
X124902D02*
D03*
X282579Y167323D02*
D03*
X276476D02*
D03*
Y173228D02*
D03*
X282579D02*
D03*
X186122Y127953D02*
D03*
X180020D02*
D03*
X193799D02*
D03*
X199902D02*
D03*
X193799Y133858D02*
D03*
X199902D02*
D03*
X243012Y127953D02*
D03*
X249114D02*
D03*
X243012Y133858D02*
D03*
X249114D02*
D03*
D42*
X384449Y181102D02*
D03*
X363583D02*
D03*
X333268Y68898D02*
D03*
X312402D02*
D03*
D43*
X248327Y168898D02*
D03*
Y177559D02*
D03*
X231988Y168898D02*
D03*
Y177559D02*
D03*
D44*
X266240Y173228D02*
D03*
X257382Y169488D02*
D03*
Y176969D02*
D03*
D45*
X112205Y89370D02*
D03*
Y95669D02*
D03*
X70866Y205906D02*
D03*
Y199606D02*
D03*
X163386Y134766D02*
D03*
Y141065D02*
D03*
X179134Y103150D02*
D03*
Y109449D02*
D03*
X127953Y42520D02*
D03*
Y36220D02*
D03*
X179134Y93701D02*
D03*
Y87402D02*
D03*
X157480Y36220D02*
D03*
Y42520D02*
D03*
D46*
X137106Y61024D02*
D03*
X148721D02*
D03*
X222539Y129921D02*
D03*
X234154D02*
D03*
D47*
X120669Y143307D02*
D03*
Y151969D02*
D03*
X135236Y143307D02*
D03*
Y151969D02*
D03*
D48*
X311024Y9449D02*
D03*
Y18110D02*
D03*
D49*
X289961Y171457D02*
D03*
Y178937D02*
D03*
X300590D02*
D03*
Y175197D02*
D03*
Y171457D02*
D03*
D91*
X112197Y66838D02*
X122441Y77082D01*
Y80709D01*
X112197Y49909D02*
Y66838D01*
X108071Y45783D02*
X112197Y49909D01*
X99926Y45783D02*
X108071D01*
X96867Y42724D02*
X99926Y45783D01*
X83591Y42724D02*
X96867D01*
X76299Y35433D02*
X83591Y42724D01*
X66299Y34095D02*
X70866Y29528D01*
X66299Y34095D02*
Y35433D01*
X70866Y29528D02*
X79488D01*
X81299Y31338D01*
Y37697D01*
X84645Y41043D01*
X97563D01*
X100623Y44102D01*
X108768D01*
X113878Y49213D01*
Y66142D01*
X121949Y74213D01*
X128937D01*
X76720Y205859D02*
Y210917D01*
Y205859D02*
X76772Y205807D01*
X76720Y210917D02*
X80082Y214280D01*
X103468D01*
X94488Y205807D02*
Y208040D01*
X95684Y209236D01*
X101379D01*
X108268Y202347D01*
Y170568D02*
Y202347D01*
X93059Y155359D02*
X108268Y170568D01*
X93059Y115603D02*
Y155359D01*
Y115603D02*
X105905Y102756D01*
X122441D01*
X94740Y116299D02*
X105133Y105905D01*
X122441D01*
X94740Y116299D02*
Y154662D01*
X109949Y169872D01*
Y203043D01*
X102075Y210917D02*
X109949Y203043D01*
X90551Y210917D02*
X102075D01*
X88583Y208949D02*
X90551Y210917D01*
X88583Y205807D02*
Y208949D01*
X82677Y205807D02*
Y210422D01*
X84854Y212598D01*
X102771D01*
X111630Y203740D01*
X205610Y167323D02*
Y179134D01*
X251969Y131890D02*
X256102D01*
X250098Y130020D02*
X251969Y131890D01*
X250098Y129035D02*
Y130020D01*
X242822Y141445D02*
X248130Y136137D01*
X245487Y141157D02*
X250311D01*
X243519Y143126D02*
X245487Y141157D01*
X199632Y143126D02*
X243519D01*
X197454Y145304D02*
X199632Y143126D01*
X198935Y141445D02*
X242822D01*
X196757Y143623D02*
X198935Y141445D01*
X242126Y139764D02*
X246063Y135827D01*
X198239Y139764D02*
X242126D01*
X196061Y141942D02*
X198239Y139764D01*
X202756Y131890D02*
X206890D01*
X200886Y130020D02*
X202756Y131890D01*
X200886Y129035D02*
Y130020D01*
X155602Y122865D02*
X159616Y126878D01*
X155602Y122503D02*
Y122865D01*
X154134Y121034D02*
X155602Y122503D01*
X154134Y118701D02*
Y121034D01*
X159616Y126878D02*
X161101D01*
X168866Y134643D01*
X161797Y125197D02*
X170547Y133947D01*
X160516Y125197D02*
X161797D01*
X157283Y121965D02*
X160516Y125197D01*
X157283Y118701D02*
Y121965D01*
X160433Y118701D02*
Y121456D01*
X168866Y134643D02*
Y139921D01*
X170547Y133947D02*
Y139225D01*
X172228Y133251D02*
Y138529D01*
X160433Y121456D02*
X172228Y133251D01*
X96299Y37402D02*
X101319Y42421D01*
X122047D01*
X169291D02*
Y45276D01*
X166421Y48145D02*
X169291Y45276D01*
X166256Y48145D02*
X166421D01*
X169291Y51181D02*
Y72872D01*
X166256Y48145D02*
X169291Y51181D01*
X162114Y48145D02*
X166256D01*
X147343Y53150D02*
X150954D01*
X146291Y52098D02*
X147343Y53150D01*
X128082Y52098D02*
X146291D01*
X122047Y46063D02*
X128082Y52098D01*
X122047Y42421D02*
Y46063D01*
X161031Y81132D02*
X169291Y72872D01*
X164469Y69980D02*
Y75318D01*
X159350Y80436D02*
X164469Y75318D01*
X161031Y94011D02*
X163332Y96312D01*
X166785D01*
X166929Y96457D01*
X161031Y81132D02*
Y94011D01*
X159350Y96358D02*
X162598Y99606D01*
X159350Y80436D02*
Y96358D01*
X163386Y42421D02*
X169291D01*
X112205Y89370D02*
X115748D01*
X119193Y92815D01*
X119615D01*
X120108Y93307D01*
X122441D01*
X130867D01*
X143701Y106141D01*
Y112303D01*
X151862Y156468D02*
Y163390D01*
X153543Y157165D02*
Y162694D01*
X153559Y154118D02*
X159264Y148413D01*
X153559Y154118D02*
Y157149D01*
X153543Y157165D02*
X153559Y157149D01*
X151862Y153437D02*
Y154555D01*
X151878Y154571D01*
Y156453D01*
X151862Y156468D02*
X151878Y156453D01*
X157583Y133527D02*
Y147717D01*
X151862Y153437D02*
X157583Y147717D01*
X159264Y132831D02*
Y148413D01*
X166929Y102756D02*
X178740D01*
X179134Y103150D01*
X166929Y96457D02*
X173524D01*
X176279Y93701D01*
X179134D01*
X182379D01*
X183358Y94680D01*
Y102173D01*
X182382Y103150D02*
X183358Y102173D01*
X179134Y103150D02*
X182382D01*
X183358Y104126D01*
Y118201D01*
X177272Y124288D02*
X183358Y118201D01*
X177272Y124288D02*
Y131110D01*
X178937Y132776D01*
X179035D01*
X180020Y133760D01*
Y133858D01*
X181102Y134941D02*
X183060Y136899D01*
X181004Y134941D02*
X181102D01*
X180020Y133957D02*
X181004Y134941D01*
X180020Y133858D02*
Y133957D01*
X183060Y136899D02*
X190759D01*
X192717Y134941D01*
X192815D01*
X193799Y133957D01*
Y133858D02*
Y133957D01*
X174249Y145304D02*
X197454D01*
X174945Y143623D02*
X196757D01*
X175642Y141942D02*
X196061D01*
X176338Y140261D02*
X195365D01*
X173909Y114976D02*
Y137832D01*
X168866Y139921D02*
X174249Y145304D01*
X170547Y139225D02*
X174945Y143623D01*
X172228Y138529D02*
X175642Y141942D01*
X173909Y137832D02*
X176338Y140261D01*
X177034Y138580D02*
X194668D01*
X175591Y137136D02*
X177034Y138580D01*
X175591Y114280D02*
Y137136D01*
X195365Y140261D02*
X199139Y136487D01*
X194668Y138580D02*
X196850Y136398D01*
X171138Y112205D02*
X173909Y114976D01*
X170518Y109207D02*
X175591Y114280D01*
X147842Y112303D02*
X150796Y115257D01*
X143701Y112303D02*
X147842D01*
X141535Y114469D02*
X143701Y112303D01*
X141535Y114469D02*
Y118701D01*
X150796Y115257D02*
Y118512D01*
X150984Y118701D01*
X76870Y205807D02*
X77854Y206791D01*
X76772Y205807D02*
X76870D01*
X82776D02*
X83760Y206791D01*
X82677Y205807D02*
X82776D01*
X94488D02*
X94587D01*
X88583D02*
X89158Y206383D01*
X113311Y168479D02*
Y204436D01*
X111630Y169175D02*
Y203740D01*
X103468Y214280D02*
X113311Y204436D01*
X318898Y161417D02*
X321260Y159055D01*
X328740D01*
X230413Y167323D02*
X231988Y168898D01*
X223622Y167323D02*
X230413D01*
X223622Y164279D02*
Y167323D01*
X222728Y163386D02*
X223622Y164279D01*
X212606Y163386D02*
X222728D01*
X211713Y164279D02*
X212606Y163386D01*
X211713Y164279D02*
Y167323D01*
X210819Y163386D02*
X211713Y164279D01*
X202292Y163386D02*
X210819D01*
X201600Y164078D02*
X202292Y163386D01*
X201600Y164078D02*
Y166240D01*
X199266Y168574D02*
X201600Y166240D01*
X194674Y168574D02*
X199266D01*
X194488Y168760D02*
X194674Y168574D01*
X230413Y179134D02*
X231988Y177559D01*
X223622Y179134D02*
X230413D01*
X223622D02*
Y181915D01*
X222466Y183071D02*
X223622Y181915D01*
X212868Y183071D02*
X222466D01*
X211713Y181915D02*
X212868Y183071D01*
X211713Y179134D02*
Y181915D01*
X210557Y183071D02*
X211713Y181915D01*
X202756Y183071D02*
X210557D01*
X201600Y181915D02*
X202756Y183071D01*
X201600Y175893D02*
Y181915D01*
X199467Y173760D02*
X201600Y175893D01*
X194488Y173760D02*
X199467D01*
X164469Y179134D02*
X164842Y178760D01*
X175591D01*
X167224Y167323D02*
X170707Y163840D01*
X175511D01*
X175591Y163760D01*
X164469Y167323D02*
X167224D01*
X147835Y63878D02*
X148721Y62992D01*
X147835Y63878D02*
Y74213D01*
X104361Y109055D02*
X122441D01*
X103490Y112303D02*
X122343D01*
X122441Y112205D01*
X98102Y117692D02*
X103490Y112303D01*
X98102Y117692D02*
Y153270D01*
X113311Y168479D01*
X96421Y116996D02*
X104361Y109055D01*
X96421Y116996D02*
Y153966D01*
X111630Y169175D01*
X141854Y50417D02*
X148721D01*
X134941Y43504D02*
X141854Y50417D01*
X134941Y43406D02*
Y43504D01*
X133957Y42421D02*
X134941Y43406D01*
X133858Y42421D02*
X133957D01*
X157988Y48145D02*
X162114Y52272D01*
Y67626D01*
X164469Y69980D01*
X162598Y99606D02*
X166929D01*
X120669Y143307D02*
X122119D01*
X123890Y141535D01*
Y140086D02*
Y141535D01*
Y140086D02*
X124902Y139075D01*
Y135827D02*
Y139075D01*
X119291Y135827D02*
X119291Y135827D01*
X124902D01*
X127953Y126201D02*
Y132776D01*
X125984Y134744D02*
X127953Y132776D01*
X125886Y134744D02*
X125984D01*
X124902Y135728D02*
X125886Y134744D01*
X124902Y135728D02*
Y135827D01*
X127953Y126201D02*
X128937Y125217D01*
Y118701D02*
Y125217D01*
X133465Y150197D02*
X135236Y151969D01*
X131595Y150197D02*
X133465D01*
X129304Y147906D02*
X131595Y150197D01*
X129304Y139764D02*
Y147906D01*
Y139764D02*
X130488Y138580D01*
Y136343D02*
Y138580D01*
Y136343D02*
X131004Y135827D01*
X136614D02*
X136614Y135827D01*
X131004Y135827D02*
X136614D01*
X131004Y127233D02*
Y135827D01*
Y127233D02*
X132087Y126150D01*
Y118701D02*
Y126150D01*
X135236Y112303D02*
Y118701D01*
X142913Y123917D02*
X145197Y126201D01*
X150258D01*
X157583Y133527D01*
X151862Y163390D02*
X155037Y166565D01*
X157608D01*
X158366Y167323D01*
X160531Y178051D02*
X161417Y177165D01*
X159350Y178051D02*
X160531D01*
X158366Y179035D02*
X159350Y178051D01*
X158366Y179035D02*
Y179134D01*
X161417Y165354D02*
Y177165D01*
X155129Y164279D02*
X160343D01*
X161417Y165354D01*
X153543Y162694D02*
X155129Y164279D01*
X150954Y124520D02*
X159264Y132831D01*
X146752Y124520D02*
X150954D01*
X144685Y122453D02*
X146752Y124520D01*
X144685Y118701D02*
Y122453D01*
X151119Y122308D02*
X162205Y133394D01*
Y133684D01*
X163287Y134766D01*
X163386D01*
X151119Y118835D02*
Y122308D01*
X150984Y118701D02*
X151119Y118835D01*
X250311Y141157D02*
X275394Y166240D01*
X275492D01*
X276476Y167224D01*
Y167323D01*
X167082Y109207D02*
X170518D01*
X166929Y109055D02*
X167082Y109207D01*
X166929Y112205D02*
X171138D01*
X248130Y134843D02*
Y136137D01*
Y134843D02*
X249114Y133858D01*
X249877Y134621D02*
X257899D01*
X249114Y133858D02*
X249877Y134621D01*
X257899D02*
X259842Y132677D01*
Y129035D02*
Y132677D01*
Y129035D02*
X260925Y127953D01*
X263583D01*
X246063Y131004D02*
Y135827D01*
Y131004D02*
X248031Y129035D01*
X248130D01*
X249114Y128051D01*
Y127953D02*
Y128051D01*
X250098Y129035D01*
X200689Y134646D02*
X208661D01*
X199902Y133858D02*
X200689Y134646D01*
X208661D02*
X210630Y132677D01*
Y129035D02*
Y132677D01*
Y129035D02*
X211713Y127953D01*
X214370D01*
X199139Y134621D02*
Y136487D01*
Y134621D02*
X199902Y133858D01*
X196850Y131004D02*
Y136398D01*
Y131004D02*
X198819Y129035D01*
X198917D01*
X199902Y128051D01*
Y127953D02*
Y128051D01*
X200886Y129035D01*
X140524Y43182D02*
Y45052D01*
X139764Y42421D02*
X140524Y43182D01*
Y45052D02*
X143618Y48145D01*
X149690D01*
X157071Y55527D01*
Y66930D01*
X154134Y69867D02*
X157071Y66930D01*
X154134Y69867D02*
Y74213D01*
X157283Y69095D02*
X158752Y67626D01*
X157283Y69095D02*
Y74213D01*
X158752Y54830D02*
Y67626D01*
X150386Y46464D02*
X158752Y54830D01*
X149712Y46464D02*
X150386D01*
X146752Y43504D02*
X149712Y46464D01*
X146752Y43406D02*
Y43504D01*
X145768Y42421D02*
X146752Y43406D01*
X145669Y42421D02*
X145768D01*
X151575D02*
Y45276D01*
X160433Y54134D01*
Y74213D01*
X169291Y36319D02*
X175197D01*
X175689Y35827D01*
X190571D01*
X180020Y123917D02*
Y127953D01*
Y123917D02*
X185039Y118898D01*
Y86614D02*
Y118898D01*
X182283Y83858D02*
X185039Y86614D01*
X166929Y83858D02*
X182283D01*
X183071Y50295D02*
Y76772D01*
X176279Y43504D02*
X183071Y50295D01*
X176279Y43406D02*
Y43504D01*
X175295Y42421D02*
X176279Y43406D01*
X175197Y42421D02*
X175295D01*
X179134Y80709D02*
X183071Y76772D01*
X166929Y80709D02*
X179134D01*
X186122Y127953D02*
Y133858D01*
Y125118D02*
X189193Y122047D01*
X186122Y125118D02*
Y127953D01*
X189193Y122047D02*
X194488D01*
X195377Y121159D01*
Y117399D02*
Y121159D01*
Y117399D02*
X195453Y117323D01*
X208465D02*
Y122945D01*
X206890Y124520D02*
X208465Y122945D01*
X206890Y124520D02*
Y127953D01*
X227854Y117323D02*
Y122047D01*
X226956Y122945D02*
X227854Y122047D01*
X218504Y122945D02*
X226956D01*
X217323Y124126D02*
X218504Y122945D01*
X217323Y124126D02*
Y131102D01*
X216535Y131890D02*
X217323Y131102D01*
X214370Y131890D02*
X216535D01*
X257382Y117323D02*
Y122945D01*
X256102Y124225D02*
X257382Y122945D01*
X256102Y124225D02*
Y127953D01*
X267224Y117323D02*
Y122047D01*
X268123Y122945D01*
Y129823D01*
X266056Y131890D02*
X268123Y129823D01*
X263583Y131890D02*
X266056D01*
D92*
X127953Y36319D02*
X133858D01*
X49213Y66929D02*
X56299D01*
X40618Y75524D02*
X49213Y66929D01*
X40618Y75524D02*
Y173571D01*
X43087Y78961D02*
X51181Y70866D01*
X43087Y78961D02*
Y166039D01*
X58150Y181102D01*
X56299Y66929D02*
X62727Y60502D01*
Y55541D02*
Y60502D01*
Y55541D02*
X63150Y55118D01*
X40618Y173571D02*
X48150Y181102D01*
X33150Y55118D02*
X38150Y60118D01*
Y181102D01*
X33604Y185647D02*
X38150Y181102D01*
X33604Y185647D02*
Y202756D01*
X40085Y209236D01*
X70866D01*
Y205906D02*
Y209236D01*
X77984Y216354D01*
X104327D01*
X115386Y205295D01*
Y190323D02*
Y205295D01*
Y190323D02*
X123793Y181915D01*
X59055Y198819D02*
X63461Y194413D01*
X74803D01*
X76720Y196330D01*
Y199653D01*
X76772Y199705D01*
X80709Y191945D02*
X82677Y193913D01*
Y199705D01*
X94488Y190945D02*
Y199705D01*
X90551Y187008D02*
X94488Y190945D01*
X49055Y198819D02*
X55929Y191945D01*
X80709D01*
X48150Y181102D02*
X56524Y189476D01*
X86299D01*
X88583Y191760D01*
Y199705D01*
X58150Y181102D02*
X64055Y187008D01*
X90551D01*
X245595Y145201D02*
X245971D01*
X200491D02*
X245595D01*
X190579Y147379D02*
X198313D01*
X318898Y7972D02*
X326772D01*
X312500D02*
X318898D01*
X246063Y145669D02*
X248031D01*
X245595Y145201D02*
X246063Y145669D01*
X198313Y147379D02*
X200491Y145201D01*
X302510Y14420D02*
Y59006D01*
Y14420D02*
X305709Y11220D01*
X302510Y59006D02*
X306665Y63161D01*
X166791Y136279D02*
Y140781D01*
X165354Y134843D02*
X166791Y136279D01*
X163462Y134843D02*
X165354D01*
X270177Y167323D02*
X275394Y172539D01*
X275886D01*
X276476Y173130D01*
Y173228D01*
X279421Y158949D02*
X309607D01*
X278543Y158071D02*
X279421Y158949D01*
X270159Y158071D02*
X278543D01*
X167296Y173228D02*
X171689Y168835D01*
X170069Y159449D02*
X183858D01*
X359842Y44980D02*
Y80315D01*
X186909Y158071D02*
X226969D01*
X184350Y155512D02*
X186909Y158071D01*
X168390Y155512D02*
X184350D01*
X183858Y159449D02*
X188245Y163835D01*
X194413D01*
X168100Y161417D02*
X170069Y159449D01*
X164567Y161417D02*
X168100D01*
X166142Y152847D02*
X167922D01*
X164567Y154421D02*
X166142Y152847D01*
X164567Y154421D02*
Y161319D01*
X167922Y152847D02*
X173389Y147379D01*
X194413Y163835D02*
X194488Y163760D01*
X190571Y131102D02*
X190650D01*
X193110Y128642D01*
X193209D01*
X193799Y128051D01*
Y127953D02*
Y128051D01*
X190571Y131102D02*
X192638Y133169D01*
X193209D01*
X193799Y133760D01*
Y133858D01*
X173389Y147379D02*
X190579D01*
X190838Y147637D01*
X190945D01*
X166791Y140781D02*
X173389Y147379D01*
X163386Y134766D02*
X163462Y134843D01*
X255906Y143818D02*
X270159Y158071D01*
X243012Y127953D02*
Y133858D01*
X240158Y123917D02*
X242421Y126181D01*
Y127362D01*
X243012Y127953D01*
X240158Y123917D02*
X240158D01*
X238161Y125914D02*
X240158Y123917D01*
X235630Y125914D02*
X238161D01*
X234154Y127390D02*
X235630Y125914D01*
X234154Y127390D02*
Y129921D01*
X309618Y68898D02*
X311298D01*
X238119Y121878D02*
X240158Y123917D01*
X238119Y117745D02*
Y121878D01*
X237697Y117323D02*
X238119Y117745D01*
X255906Y139764D02*
Y143818D01*
X309607Y158949D02*
X314461Y154096D01*
Y127854D02*
Y154096D01*
X308345Y121739D02*
X314461Y127854D01*
X308345Y71850D02*
Y121739D01*
Y71850D02*
X311298Y68898D01*
X312402D01*
X81988Y199114D02*
X82579Y199705D01*
X123793Y181915D02*
X140841D01*
X149606Y173150D01*
Y155512D02*
Y173150D01*
X164567Y173228D02*
X167296D01*
X171689Y168835D02*
X175515D01*
X175591Y168760D01*
X226969Y158071D02*
X232283Y163386D01*
X267717D01*
X275590Y161417D02*
X310630D01*
X316929Y155118D01*
Y114173D02*
Y155118D01*
X328740Y171653D02*
Y183366D01*
X82579Y199705D02*
X82677D01*
X282579Y179035D02*
X282677Y179134D01*
X282579Y173228D02*
Y179035D01*
Y167323D02*
Y173228D01*
Y167323D02*
X293307D01*
X297322Y171337D01*
X300471D01*
X300590Y171457D01*
X122047Y36319D02*
X127953D01*
X106299Y37402D02*
X107382Y36319D01*
X122047D01*
X84488Y15748D02*
X92362Y23622D01*
X108871D01*
X115277Y30028D01*
X128899D01*
X130867Y31996D01*
X138340D01*
X139493Y33149D01*
Y36048D01*
X139764Y36319D01*
X145669Y31496D02*
Y36319D01*
X143701Y29528D02*
X145669Y31496D01*
X131890Y29528D02*
X143701D01*
X129921Y27559D02*
X131890Y29528D01*
X116299Y27559D02*
X129921D01*
X104488Y15748D02*
X116299Y27559D01*
X151575Y36319D02*
X163386D01*
X140748Y11811D02*
X151575Y22638D01*
Y36319D01*
X300590Y175197D02*
X305315D01*
X307382Y177264D01*
Y177559D01*
X308760Y178937D01*
X309055D01*
X309350D01*
X310728Y177559D01*
Y177264D02*
Y177559D01*
Y177264D02*
X315158Y172835D01*
X315551D01*
X316929Y171457D01*
Y178937D02*
Y186868D01*
X322974Y192913D01*
X327067D01*
X328740Y194587D01*
X333661Y192913D02*
X338090Y188484D01*
X330413Y192913D02*
X333661D01*
X328740Y194587D02*
X330413Y192913D01*
X340846Y145669D02*
Y154921D01*
X338090Y188484D02*
X342421D01*
X336276Y186670D02*
X338090Y188484D01*
X336276Y177700D02*
Y186670D01*
X306665Y63161D02*
Y65945D01*
X309618Y68898D01*
X305709Y11220D02*
X309252D01*
X311024Y9449D01*
X318898Y5906D02*
Y7972D01*
Y34902D02*
X327165D01*
X311024Y9449D02*
X312500Y7972D01*
X311024Y41969D02*
Y43701D01*
Y41732D02*
Y41969D01*
X304978Y24156D02*
X306574Y22560D01*
Y19882D02*
Y22560D01*
Y19882D02*
X308345Y18110D01*
X311024D01*
X304978Y24156D02*
Y37655D01*
X306988Y39665D01*
X308957D01*
X311024Y41732D01*
Y41969D02*
X313090Y39902D01*
X327165D01*
X359842Y80315D02*
X360236Y80709D01*
X358268Y44980D02*
X359842D01*
X330295Y46830D02*
X332677Y49213D01*
X330295Y45083D02*
Y46830D01*
X330113Y44902D02*
X330295Y45083D01*
X327165Y44902D02*
X330113D01*
X332677Y49213D02*
X354035D01*
X356496Y46752D01*
Y46260D02*
Y46752D01*
Y46260D02*
X357776Y44980D01*
X358268D01*
X372441Y114075D02*
Y116142D01*
Y92913D02*
Y114075D01*
X316929Y114173D02*
X350394Y80709D01*
X360236D01*
X372441Y92913D01*
X336614Y159153D02*
X340846Y154921D01*
X336614Y159153D02*
Y169783D01*
X340256Y173425D01*
X379528Y149075D02*
X382784D01*
X383925Y147933D01*
X389764D01*
X379528Y144075D02*
X381875D01*
X382057Y143893D01*
Y141545D02*
Y143893D01*
Y141545D02*
X384134Y139469D01*
X389764D01*
X363779Y116142D02*
Y124016D01*
X365748Y125984D01*
X375984D01*
X363878Y127854D02*
X365748Y125984D01*
X363878Y127854D02*
Y129823D01*
X361811Y131890D02*
X363878Y129823D01*
X359842Y131890D02*
X361811D01*
X375984Y125984D02*
X377953Y124016D01*
Y120669D02*
Y124016D01*
Y120669D02*
X380512Y118110D01*
X390662D01*
X393201Y120649D01*
Y128748D01*
X391535Y130413D02*
X393201Y128748D01*
X391535Y130413D02*
Y130905D01*
X390256Y132185D02*
X391535Y130905D01*
X389764Y132185D02*
X390256D01*
X395669Y118787D02*
Y156430D01*
X390662Y113779D02*
X395669Y118787D01*
X389834Y113779D02*
X390662D01*
X393024Y159075D02*
X395669Y156430D01*
X372441Y114075D02*
X374213Y112303D01*
X385827D01*
X359842Y131890D02*
X360630Y132677D01*
Y144075D01*
X388358Y112303D02*
X389834Y113779D01*
X385827Y112303D02*
X388358D01*
X379528Y159075D02*
X393024D01*
X360630D02*
Y168701D01*
X350098Y179232D02*
X360630Y168701D01*
X350098Y179232D02*
Y179527D01*
X348721Y180905D02*
X350098Y179527D01*
X348425Y180905D02*
X348721D01*
X348425Y180905D02*
X348425Y180905D01*
X340551Y180905D02*
X348425D01*
X344488Y153642D02*
X346949D01*
X354331Y145669D02*
X357283Y148622D01*
Y148771D01*
X357587Y149075D01*
X360630D01*
X354331Y142913D02*
Y145669D01*
X352847Y141429D02*
X354331Y142913D01*
X345087Y141429D02*
X352847D01*
X342618Y143898D02*
X345087Y141429D01*
X342126Y143898D02*
X342618D01*
X340846Y145177D02*
X342126Y143898D01*
X340846Y145177D02*
Y145669D01*
X336276Y177700D02*
X338878Y175098D01*
Y174803D02*
Y175098D01*
Y174803D02*
X340256Y173425D01*
X342421Y188484D02*
X344488Y190551D01*
Y192520D01*
D93*
X127953Y232207D02*
Y232283D01*
X126953Y231207D02*
X127953Y232207D01*
X126953Y220070D02*
Y231207D01*
Y220070D02*
X127797Y219227D01*
Y215334D02*
Y219227D01*
Y215334D02*
X129304Y213827D01*
X127953Y232283D02*
X132359Y236689D01*
X192445D01*
X198819Y230315D01*
X198713Y219221D02*
X199902Y218032D01*
Y216842D02*
Y218032D01*
Y216842D02*
X202916Y213827D01*
X193319D02*
X198118Y218625D01*
X202916Y213827D02*
X204107D01*
X198819Y220070D02*
Y230315D01*
X205193Y236689D01*
X267248D01*
X271654Y232283D01*
Y219489D02*
Y232283D01*
X268123Y215958D02*
X271654Y219489D01*
X268123Y213827D02*
Y215958D01*
X316535Y207087D02*
X344488D01*
X314961Y208661D02*
X316535Y207087D01*
X363583Y181102D02*
Y188976D01*
X360039Y192520D02*
X363583Y188976D01*
X344488Y192520D02*
X360039D01*
X344488Y205118D02*
Y207087D01*
D94*
X259842Y190945D02*
Y199930D01*
X259850Y199938D01*
Y201991D01*
X259842Y201999D02*
X259850Y201991D01*
X259842Y201999D02*
Y204724D01*
X254404Y210163D02*
X259842Y204724D01*
X250290Y210163D02*
X254404D01*
X250130Y210323D02*
X250290Y210163D01*
X253937Y197169D02*
Y200787D01*
Y197169D02*
X257382Y193724D01*
Y176969D02*
Y193724D01*
X254390Y205469D02*
X257382Y202477D01*
X187536Y205469D02*
X254390D01*
X257382Y200969D02*
Y202477D01*
X253937Y200787D02*
Y202756D01*
X249345Y201319D02*
X249877Y200787D01*
X253299Y203394D02*
X253937Y202756D01*
X186677Y203394D02*
X253299D01*
X183239Y195095D02*
X226378D01*
Y194587D02*
Y195095D01*
X220536Y193020D02*
X221036Y192520D01*
X182379Y193020D02*
X220536D01*
X214567Y190945D02*
X216535Y188976D01*
X181520Y190945D02*
X214567D01*
X184098Y197169D02*
X232752D01*
X184958Y199244D02*
X241674D01*
X185817Y201319D02*
X249345D01*
X232752Y197169D02*
X234154Y195768D01*
X241674Y199244D02*
X242099Y198819D01*
X180996Y209074D02*
X186677Y203394D01*
X183071Y209933D02*
X187536Y205469D01*
X182018Y205118D02*
X185817Y201319D01*
X181158Y203043D02*
X184958Y199244D01*
X180299Y200969D02*
X184098Y197169D01*
X179440Y198894D02*
X183239Y195095D01*
X178580Y196819D02*
X182379Y193020D01*
X177721Y194744D02*
X181520Y190945D01*
X155248Y217331D02*
Y220736D01*
X153543Y222441D02*
X155248Y220736D01*
X144685Y222441D02*
X153543D01*
X141732Y219488D02*
X144685Y222441D01*
X141732Y209043D02*
Y219488D01*
Y209043D02*
X156031Y194744D01*
X177721D01*
X156891Y196819D02*
X178580D01*
X145669Y208040D02*
X156891Y196819D01*
X145669Y208040D02*
Y214586D01*
X147217Y216134D01*
Y217331D01*
X162662Y198894D02*
X179440D01*
X151233Y210323D02*
X162662Y198894D01*
X159264Y210323D02*
X168619Y200969D01*
X180299D01*
X174576Y203043D02*
X181158D01*
X167296Y210323D02*
X174576Y203043D01*
X175327Y206041D02*
X176250Y205118D01*
X175327Y206041D02*
Y210323D01*
X176250Y205118D02*
X182018D01*
X180996Y209074D02*
Y213420D01*
X177085Y217331D02*
X180996Y213420D01*
X171311Y217331D02*
X177085D01*
X183071Y209933D02*
Y214280D01*
X174910Y222441D02*
X183071Y214280D01*
X168390Y222441D02*
X174910D01*
X163280Y217331D02*
X168390Y222441D01*
X259842Y190945D02*
X261811Y188976D01*
Y171260D02*
Y188976D01*
X260433Y169882D02*
X261811Y171260D01*
X257776Y169882D02*
X260433D01*
X257382Y169488D02*
X257776Y169882D01*
X248917Y176969D02*
X257382D01*
X248327Y177559D02*
X248917Y176969D01*
X248917Y169488D02*
X257382D01*
X248327Y168898D02*
X248917Y169488D01*
D95*
X294961Y208661D02*
D03*
X163406Y21614D02*
D03*
X135807D02*
D03*
D96*
X314961Y208661D02*
D03*
D97*
X73150Y55118D02*
D03*
X43150D02*
D03*
X53150D02*
D03*
X63150D02*
D03*
X33150D02*
D03*
X38150Y181102D02*
D03*
X48150D02*
D03*
X58150D02*
D03*
X68150D02*
D03*
X379921Y80709D02*
D03*
X336614Y114173D02*
D03*
X104488Y15748D02*
D03*
X94488D02*
D03*
X84488D02*
D03*
D98*
X13780Y175197D02*
D03*
X92520D02*
D03*
Y57087D02*
D03*
X13780D02*
D03*
D99*
X222020Y217331D02*
D03*
X226036Y210323D02*
D03*
X230052Y217331D02*
D03*
X234067Y210323D02*
D03*
X238083Y217331D02*
D03*
X242099Y210323D02*
D03*
X246115Y217331D02*
D03*
X250130Y210323D02*
D03*
X175327D02*
D03*
X171311Y217331D02*
D03*
X167296Y210323D02*
D03*
X163280Y217331D02*
D03*
X159264Y210323D02*
D03*
X155248Y217331D02*
D03*
X151233Y210323D02*
D03*
X147217Y217331D02*
D03*
D100*
X268123Y213827D02*
D03*
X204107D02*
D03*
X129304D02*
D03*
X193319D02*
D03*
D101*
X56299Y35433D02*
D03*
X66299D02*
D03*
X76299D02*
D03*
X86299D02*
D03*
X96299D02*
D03*
X39055Y198819D02*
D03*
X49055D02*
D03*
D102*
X106299Y35433D02*
D03*
X59055Y198819D02*
D03*
D103*
X360236Y80709D02*
D03*
X316929Y114173D02*
D03*
D104*
X158465Y11811D02*
D03*
X140748D02*
D03*
D105*
X51181D02*
D03*
X346457D02*
D03*
Y228346D02*
D03*
X51181D02*
D03*
D106*
X370079Y155512D02*
D03*
Y159449D02*
D03*
X51181Y70866D02*
D03*
X185039Y171260D02*
D03*
Y179134D02*
D03*
X251969Y124016D02*
D03*
X261811D02*
D03*
X212598D02*
D03*
X228346Y129921D02*
D03*
X129921Y80709D02*
D03*
X155512Y86614D02*
D03*
X149606Y80709D02*
D03*
X155512D02*
D03*
X179134Y74803D02*
D03*
X173228D02*
D03*
X127953Y57087D02*
D03*
Y61024D02*
D03*
X124016Y68898D02*
D03*
X120079Y64961D02*
D03*
X118110Y59055D02*
D03*
X116142Y76772D02*
D03*
X112205Y72835D02*
D03*
X108268Y68898D02*
D03*
X88583Y125984D02*
D03*
Y133858D02*
D03*
Y141732D02*
D03*
Y149606D02*
D03*
X104331Y194882D02*
D03*
Y200787D02*
D03*
X106299Y236221D02*
D03*
X94488D02*
D03*
X84646D02*
D03*
X72835D02*
D03*
X7874Y196850D02*
D03*
X3937Y192913D02*
D03*
X5906Y104331D02*
D03*
Y118110D02*
D03*
Y131890D02*
D03*
X41339Y31496D02*
D03*
X37402Y35433D02*
D03*
X33465Y39370D02*
D03*
X177165Y3937D02*
D03*
X183071D02*
D03*
Y9843D02*
D03*
X187008Y53150D02*
D03*
Y47244D02*
D03*
X185039Y41339D02*
D03*
X188976Y112205D02*
D03*
Y106299D02*
D03*
Y100394D02*
D03*
X173228Y88583D02*
D03*
X179134Y116142D02*
D03*
X169291Y124016D02*
D03*
X143701Y98425D02*
D03*
X135827Y92520D02*
D03*
X133858Y102362D02*
D03*
X143701Y169291D02*
D03*
X139764Y173228D02*
D03*
X118110Y116142D02*
D03*
X112205D02*
D03*
X102362Y127953D02*
D03*
Y133858D02*
D03*
X151575D02*
D03*
X153543Y137795D02*
D03*
X149606Y149606D02*
D03*
X145669Y153543D02*
D03*
Y159449D02*
D03*
X110236D02*
D03*
X106299Y155512D02*
D03*
X102362Y151575D02*
D03*
X127953Y175197D02*
D03*
X122047D02*
D03*
X118110Y179134D02*
D03*
X120079Y192913D02*
D03*
X127953Y185039D02*
D03*
X124016Y188976D02*
D03*
X267717Y179134D02*
D03*
X224410Y173228D02*
D03*
X220472D02*
D03*
X179134Y151575D02*
D03*
X261811Y159449D02*
D03*
X257874Y155512D02*
D03*
X253937Y151575D02*
D03*
X261811Y141732D02*
D03*
X265748Y145669D02*
D03*
X269685Y149606D02*
D03*
X309055Y147638D02*
D03*
Y153543D02*
D03*
X303150D02*
D03*
Y94488D02*
D03*
Y86614D02*
D03*
Y78740D02*
D03*
X305118Y3937D02*
D03*
X301181D02*
D03*
Y7874D02*
D03*
X336614Y41339D02*
D03*
Y35433D02*
D03*
Y29528D02*
D03*
X354331Y25591D02*
D03*
X387795Y43307D02*
D03*
X391732Y45276D02*
D03*
X393701Y49213D02*
D03*
Y102362D02*
D03*
X389764Y106299D02*
D03*
X393701D02*
D03*
X352362Y86614D02*
D03*
X358268Y124016D02*
D03*
X368110Y106299D02*
D03*
X350394Y135827D02*
D03*
X334646Y151575D02*
D03*
X342520Y159449D02*
D03*
X362205Y173228D02*
D03*
X387795Y196850D02*
D03*
X391732Y194882D02*
D03*
X393701Y190945D02*
D03*
Y169291D02*
D03*
Y165354D02*
D03*
X270177Y167323D02*
D03*
X278543Y158071D02*
D03*
X162114Y48145D02*
D03*
X150954Y53150D02*
D03*
X168619Y171555D02*
D03*
X168390Y155512D02*
D03*
X190571Y131102D02*
D03*
X190945Y147637D02*
D03*
X248031Y145669D02*
D03*
X240158Y123917D02*
D03*
X255906Y139764D02*
D03*
X149606Y155512D02*
D03*
X267717Y163386D02*
D03*
X275590Y161417D02*
D03*
X318898D02*
D03*
X257382Y200969D02*
D03*
X253937Y200787D02*
D03*
X249877D02*
D03*
X216535Y188976D02*
D03*
X221036Y192520D02*
D03*
X226378Y194587D02*
D03*
X234154Y195768D02*
D03*
X242099Y198819D02*
D03*
X148721Y50417D02*
D03*
X157988Y48145D02*
D03*
X135236Y112303D02*
D03*
X142913Y123917D02*
D03*
X318898Y5906D02*
D03*
Y34902D02*
D03*
M02*
