G04*
G04 #@! TF.GenerationSoftware,Altium Limited,Altium Designer,20.0.11 (256)*
G04*
G04 Layer_Color=8421504*
%FSLAX25Y25*%
%MOIN*%
G70*
G01*
G75*
%ADD21R,0.06102X0.10039*%
%ADD22R,0.11024X0.05315*%
%ADD23R,0.03347X0.03543*%
%ADD24R,0.03347X0.03150*%
%ADD25R,0.02362X0.01378*%
%ADD26R,0.03543X0.04724*%
%ADD27R,0.11024X0.22047*%
%ADD28R,0.05315X0.22047*%
%ADD29R,0.04724X0.03937*%
%ADD30R,0.03937X0.05512*%
%ADD31R,0.04331X0.05512*%
%ADD32O,0.06299X0.02165*%
%ADD33O,0.02165X0.06299*%
%ADD34R,0.05512X0.04528*%
%ADD35O,0.08661X0.02362*%
%ADD36R,0.10630X0.04921*%
%ADD37R,0.05512X0.11811*%
%ADD38R,0.10039X0.06102*%
%ADD39R,0.04528X0.05512*%
%ADD40R,0.05315X0.04724*%
%ADD41R,0.03150X0.03347*%
%ADD42R,0.17323X0.07874*%
%ADD43R,0.05906X0.05512*%
%ADD44R,0.05709X0.02362*%
%ADD45R,0.03543X0.03347*%
%ADD46R,0.04921X0.10630*%
%ADD47R,0.07874X0.04724*%
%ADD48R,0.11811X0.05512*%
%ADD49R,0.03937X0.02362*%
D21*
X311024Y43701D02*
D03*
Y31102D02*
D03*
X328740Y171653D02*
D03*
Y159055D02*
D03*
X344488Y205118D02*
D03*
Y192520D02*
D03*
D22*
X328740Y194587D02*
D03*
Y183366D02*
D03*
D23*
X282677Y179134D02*
D03*
X276378D02*
D03*
X164567Y173228D02*
D03*
X158268D02*
D03*
X164567Y161417D02*
D03*
X158268D02*
D03*
X205512Y173228D02*
D03*
X211811D02*
D03*
X217323Y167323D02*
D03*
X223622D02*
D03*
X223622Y179134D02*
D03*
X217323D02*
D03*
X119291Y135827D02*
D03*
X112992D02*
D03*
X136614D02*
D03*
X142913D02*
D03*
D24*
X175197Y42421D02*
D03*
Y36319D02*
D03*
X145669D02*
D03*
Y42421D02*
D03*
X94488Y205807D02*
D03*
Y199705D02*
D03*
X88583Y205807D02*
D03*
Y199705D02*
D03*
X133858Y42421D02*
D03*
Y36319D02*
D03*
X122047Y42421D02*
D03*
Y36319D02*
D03*
X169291Y42421D02*
D03*
Y36319D02*
D03*
X139764Y42421D02*
D03*
Y36319D02*
D03*
X151575Y42421D02*
D03*
Y36319D02*
D03*
X163386Y42421D02*
D03*
Y36319D02*
D03*
X76772Y205807D02*
D03*
Y199705D02*
D03*
X82677Y205807D02*
D03*
Y199705D02*
D03*
D25*
X214370Y131890D02*
D03*
Y129921D02*
D03*
Y127953D02*
D03*
X206890D02*
D03*
Y129921D02*
D03*
Y131890D02*
D03*
X263583Y127953D02*
D03*
Y129921D02*
D03*
Y131890D02*
D03*
X256102D02*
D03*
Y129921D02*
D03*
Y127953D02*
D03*
D26*
X296280Y89567D02*
D03*
X189193Y81693D02*
D03*
D27*
X291752Y16929D02*
D03*
D28*
X190866D02*
D03*
D29*
X190571Y35827D02*
D03*
Y91929D02*
D03*
D30*
X195453Y117323D02*
D03*
D31*
X201772D02*
D03*
X208465D02*
D03*
X277067D02*
D03*
X218012D02*
D03*
X227854D02*
D03*
X237697D02*
D03*
X247539D02*
D03*
X257382D02*
D03*
X267224D02*
D03*
D32*
X122441Y80709D02*
D03*
Y83858D02*
D03*
Y87008D02*
D03*
Y90158D02*
D03*
Y93307D02*
D03*
Y96457D02*
D03*
Y99606D02*
D03*
Y102756D02*
D03*
Y105905D02*
D03*
Y109055D02*
D03*
Y112205D02*
D03*
X166929Y112205D02*
D03*
Y109055D02*
D03*
Y105905D02*
D03*
Y102756D02*
D03*
Y99606D02*
D03*
Y96457D02*
D03*
Y93307D02*
D03*
Y90158D02*
D03*
Y87008D02*
D03*
Y83858D02*
D03*
Y80709D02*
D03*
D33*
X128937Y118701D02*
D03*
X132087D02*
D03*
X135236D02*
D03*
X138386D02*
D03*
X141535D02*
D03*
X144685D02*
D03*
X147835D02*
D03*
X150984D02*
D03*
X154134D02*
D03*
X157283D02*
D03*
X160433D02*
D03*
X160433Y74213D02*
D03*
X157283D02*
D03*
X154134D02*
D03*
X150984D02*
D03*
X147835D02*
D03*
X144685D02*
D03*
X141535D02*
D03*
X138386D02*
D03*
X135236D02*
D03*
X132087D02*
D03*
X128937D02*
D03*
D34*
X358268Y37697D02*
D03*
Y44980D02*
D03*
X389764Y155217D02*
D03*
Y147933D02*
D03*
Y132185D02*
D03*
Y139469D02*
D03*
D35*
X327165Y44902D02*
D03*
Y39902D02*
D03*
Y34902D02*
D03*
Y29902D02*
D03*
X346063Y44902D02*
D03*
Y39902D02*
D03*
Y34902D02*
D03*
Y29902D02*
D03*
X379528Y144075D02*
D03*
Y149075D02*
D03*
Y154075D02*
D03*
Y159075D02*
D03*
X360630Y144075D02*
D03*
Y149075D02*
D03*
Y154075D02*
D03*
Y159075D02*
D03*
X175591Y178760D02*
D03*
Y173760D02*
D03*
Y168760D02*
D03*
Y163760D02*
D03*
X194488Y178760D02*
D03*
Y173760D02*
D03*
Y168760D02*
D03*
Y163760D02*
D03*
D36*
X385827Y123917D02*
D03*
Y112303D02*
D03*
X344488Y165256D02*
D03*
Y153642D02*
D03*
X326772Y19587D02*
D03*
Y7972D02*
D03*
D37*
X372441Y116142D02*
D03*
X363779D02*
D03*
D38*
X372441Y131890D02*
D03*
X359842D02*
D03*
D39*
X348130Y145669D02*
D03*
X340846D02*
D03*
D40*
X348425Y173425D02*
D03*
Y180905D02*
D03*
X340551Y180905D02*
D03*
Y173425D02*
D03*
X309055Y171457D02*
D03*
Y178937D02*
D03*
X316929Y171457D02*
D03*
Y178937D02*
D03*
D41*
X164469Y167323D02*
D03*
X158366D02*
D03*
X205610Y167323D02*
D03*
X211713D02*
D03*
X205610Y179134D02*
D03*
X211713D02*
D03*
X164469Y179134D02*
D03*
X158366D02*
D03*
X180020Y133858D02*
D03*
X186122D02*
D03*
X131004Y135827D02*
D03*
X124902D02*
D03*
X282579Y167323D02*
D03*
X276476D02*
D03*
Y173228D02*
D03*
X282579D02*
D03*
X186122Y127953D02*
D03*
X180020D02*
D03*
X193799D02*
D03*
X199902D02*
D03*
X193799Y133858D02*
D03*
X199902D02*
D03*
X243012Y127953D02*
D03*
X249114D02*
D03*
X243012Y133858D02*
D03*
X249114D02*
D03*
D42*
X384449Y181102D02*
D03*
X363583D02*
D03*
X333268Y68898D02*
D03*
X312402D02*
D03*
D43*
X248327Y168898D02*
D03*
Y177559D02*
D03*
X231988Y168898D02*
D03*
Y177559D02*
D03*
D44*
X266240Y173228D02*
D03*
X257382Y169488D02*
D03*
Y176969D02*
D03*
D45*
X112205Y89370D02*
D03*
Y95669D02*
D03*
X70866Y205906D02*
D03*
Y199606D02*
D03*
X163386Y134766D02*
D03*
Y141065D02*
D03*
X179134Y103150D02*
D03*
Y109449D02*
D03*
X127953Y42520D02*
D03*
Y36220D02*
D03*
X179134Y93701D02*
D03*
Y87402D02*
D03*
X157480Y36220D02*
D03*
Y42520D02*
D03*
D46*
X137106Y61024D02*
D03*
X148721D02*
D03*
X222539Y129921D02*
D03*
X234154D02*
D03*
D47*
X120669Y143307D02*
D03*
Y151969D02*
D03*
X135236Y143307D02*
D03*
Y151969D02*
D03*
D48*
X311024Y9449D02*
D03*
Y18110D02*
D03*
D49*
X289961Y171457D02*
D03*
Y178937D02*
D03*
X300590D02*
D03*
Y175197D02*
D03*
Y171457D02*
D03*
M02*
