M48
;Layer_Color=9474304
;FILE_FORMAT=2:5
INCH,LZ
;TYPE=PLATED
T1F00S00C0.01378
T2F00S00C0.03150
T3F00S00C0.03937
T4F00S00C0.04331
T5F00S00C0.06299
T6F00S00C0.13780
%
T01
X0003937Y0047244
X0007874Y0043307
X0074803Y0015748
Y0007874
X0141732Y0031496
X0153543
X0161417Y0043307
X0173228Y005274
Y0062992
X0165354
X015748
X0149606
X0133858
X0125984
X011811
X0110236
Y0070866
X0185433
Y0049213
X0192868Y0045086
X0200787Y0044094
X019529Y0037349
X0181102Y003937
X0216535Y0040945
X0212492Y0049606
X0219291Y0052756
X022441Y0047244
X0228346Y0035433
X0232283Y003937
X0236221Y0043307
X0240158Y0045276
X0244094Y0027559
Y0023622
Y0019685
X0238583Y007126
X0278346Y0068898
X0314961Y0035433
Y0031496
X0322835Y0043307
X0346457
X0350394
X0354331Y0051181
Y0055118
Y0059055
X0314961Y0007874
Y0003937
X0389764Y0043307
X0393701Y0047244
Y0192913
X0389764Y019685
X038189Y0153543
X0374016
X0366142
X0358268
X0346457
X0326772
X0319809
X0313484
X030315Y0162205
X0290408Y0148178
X0285131
X0280709Y0147638
X0280475Y0137279
X0261024Y0140142
X0254921Y0136811
X0258455Y0153015
X0249606Y0151575
X0242918Y0164154
X0240158Y0161417
X0236616Y0163715
X0242126Y0194882
X0250394Y0199213
X0257087Y0204331
X0267717Y0181102
X027559
X0283465
X0298228Y0194882
X0297244Y0122047
X0308071Y0120079
Y0116142
Y0124016
X0299213Y0102362
X0295276
X0291339
X0322835
Y0090551
X0326772
X0330709
X0354331Y0094488
X0362205
X0370079
X0377953
Y0110236
Y011811
Y0125984
X0354331Y0122047
Y011811
Y0114173
X0352329Y0106116
X0347915Y0106168
X0241339Y0094095
X0236221Y0114173
X0232283
X0239764Y0125197
X0229528Y0131102
X0228346Y0137795
Y0145669
X0212598Y0122047
Y011811
Y0114173
X0204724Y0098425
X019685
X0181102
Y0086614
X019685Y007874
X0204724
X0161417
X015789Y0116581
X0151969Y0118504
X0141732Y0114173
X0133858
X0125984
X011811
X0110236Y0110236
Y0102362
Y0094488
Y0086614
Y007874
X0114173Y0141732
X0125984Y0149606
X0133858
X0183071
Y0139764
X0174409Y0127559
X0185827Y0169291
Y0177165
X0185039Y0185039
X0169291Y0181102
X0165354
X0162598Y0198031
X0173816Y0195076
X0190885Y0164594
X0114173Y0212598
X0094488Y0208661
Y0204724
X0079134Y0122835
X0072441Y0129134
X0062992Y0204724
Y0208661
X0047244
X0007874Y019685
X0003937Y0192913
T02
X0234213Y0212972
X0242244
X0250276
X024626Y021998
X0238228
X0230197
X0222165
X0226181Y0212972
X0171535
X0163504
X0155472
X0147441
X0151457Y021998
X0159488
X016752
X0143425
T03
X0125Y0009941
X0120079Y0019783
X0147638
X0142717Y0009941
T04
X0035118Y0064961
X0045118
X0055118
X0065118
X0075118
X0165787Y0011812
X0175787
X0185787
X0195787
X0205787
X0215787
X0225787
X0235787
X0070118Y0190945
X0060118
X0050118
X0040118
T05
X0268209Y0216476
X0297087Y0212598
X0317087
X0204232Y0216476
X0189469
X0125492
T06
X0051181Y0011811
X0015748Y0066929
X0094488
X0346457Y0011811
Y0228346
X0094488Y0185039
X0015748
X0051181Y0228346
M30
