G04*
G04 #@! TF.GenerationSoftware,Altium Limited,Altium Designer,21.0.9 (235)*
G04*
G04 Layer_Color=8388736*
%FSLAX25Y25*%
%MOIN*%
G70*
G04*
G04 #@! TF.SameCoordinates,959B754D-2E43-44A3-80A8-312F36613E2A*
G04*
G04*
G04 #@! TF.FilePolarity,Negative*
G04*
G01*
G75*
G04:AMPARAMS|DCode=18|XSize=85.03mil|YSize=126.46mil|CornerRadius=17.86mil|HoleSize=0mil|Usage=FLASHONLY|Rotation=180.000|XOffset=0mil|YOffset=0mil|HoleType=Round|Shape=RoundedRectangle|*
%AMROUNDEDRECTD18*
21,1,0.08503,0.09075,0,0,180.0*
21,1,0.04932,0.12646,0,0,180.0*
1,1,0.03571,-0.02466,0.04538*
1,1,0.03571,0.02466,0.04538*
1,1,0.03571,0.02466,-0.04538*
1,1,0.03571,-0.02466,-0.04538*
%
%ADD18ROUNDEDRECTD18*%
G04:AMPARAMS|DCode=19|XSize=85.03mil|YSize=35.91mil|CornerRadius=17.96mil|HoleSize=0mil|Usage=FLASHONLY|Rotation=180.000|XOffset=0mil|YOffset=0mil|HoleType=Round|Shape=RoundedRectangle|*
%AMROUNDEDRECTD19*
21,1,0.08503,0.00000,0,0,180.0*
21,1,0.04911,0.03591,0,0,180.0*
1,1,0.03591,-0.02456,0.00000*
1,1,0.03591,0.02456,0.00000*
1,1,0.03591,0.02456,0.00000*
1,1,0.03591,-0.02456,0.00000*
%
%ADD19ROUNDEDRECTD19*%
%ADD20R,0.08503X0.03591*%
%ADD44R,0.03162X0.04737*%
%ADD45O,0.09461X0.03162*%
%ADD46O,0.02965X0.07099*%
%ADD47O,0.07099X0.02965*%
%ADD48O,0.03162X0.08083*%
%ADD49R,0.05918X0.05918*%
%ADD50R,0.22847X0.09855*%
%ADD51R,0.05131X0.05918*%
%ADD52R,0.13005X0.10446*%
%ADD53R,0.05918X0.05131*%
%ADD54R,0.05328X0.06902*%
%ADD55R,0.06509X0.03162*%
%ADD56R,0.06706X0.18123*%
%ADD57R,0.06902X0.10642*%
%ADD58R,0.11430X0.05721*%
%ADD59R,0.03556X0.05524*%
%ADD60R,0.04737X0.05524*%
%ADD61R,0.04737X0.03950*%
%ADD62R,0.04737X0.11824*%
%ADD63R,0.05918X0.08280*%
%ADD64R,0.05721X0.11430*%
%ADD65R,0.06706X0.04343*%
%ADD66R,0.06312X0.08280*%
%ADD67C,0.07099*%
%ADD68R,0.07099X0.07099*%
%ADD69C,0.10249*%
%ADD70R,0.10249X0.10249*%
%ADD71C,0.20485*%
%ADD72C,0.08674*%
%ADD73C,0.13595*%
%ADD74C,0.05918*%
G04:AMPARAMS|DCode=75|XSize=59.18mil|YSize=59.18mil|CornerRadius=16.8mil|HoleSize=0mil|Usage=FLASHONLY|Rotation=180.000|XOffset=0mil|YOffset=0mil|HoleType=Round|Shape=RoundedRectangle|*
%AMROUNDEDRECTD75*
21,1,0.05918,0.02559,0,0,180.0*
21,1,0.02559,0.05918,0,0,180.0*
1,1,0.03359,-0.01280,0.01280*
1,1,0.03359,0.01280,0.01280*
1,1,0.03359,0.01280,-0.01280*
1,1,0.03359,-0.01280,-0.01280*
%
%ADD75ROUNDEDRECTD75*%
%ADD76C,0.24422*%
%ADD77C,0.06706*%
G36*
X303740Y-197D02*
X301575D01*
Y1969D01*
X303150D01*
X303740Y2559D01*
Y-197D01*
D02*
G37*
D18*
X267613Y118110D02*
D03*
D19*
X291442Y127165D02*
D03*
Y118110D02*
D03*
D20*
Y109055D02*
D03*
D44*
X342717Y49705D02*
D03*
X346457D02*
D03*
X350197D02*
D03*
Y60532D02*
D03*
X346457D02*
D03*
X342717D02*
D03*
X342717Y112697D02*
D03*
X346457D02*
D03*
X350197D02*
D03*
Y123524D02*
D03*
X346457D02*
D03*
X342717D02*
D03*
X299016Y77264D02*
D03*
X295276D02*
D03*
X291535D02*
D03*
Y88091D02*
D03*
X295276D02*
D03*
X299016D02*
D03*
X267520Y77264D02*
D03*
X263779D02*
D03*
X260039D02*
D03*
Y88091D02*
D03*
X263779D02*
D03*
X267520D02*
D03*
D45*
X266142Y176791D02*
D03*
Y171791D02*
D03*
Y166791D02*
D03*
Y161791D02*
D03*
X285039Y176791D02*
D03*
Y171791D02*
D03*
Y166791D02*
D03*
Y161791D02*
D03*
D46*
X208661Y64370D02*
D03*
X205512D02*
D03*
X202362D02*
D03*
X199213D02*
D03*
X196063D02*
D03*
X192913D02*
D03*
X189764D02*
D03*
X186614D02*
D03*
X183465D02*
D03*
X180315D02*
D03*
X177165D02*
D03*
X177165Y108858D02*
D03*
X180315D02*
D03*
X183465D02*
D03*
X186614D02*
D03*
X189764D02*
D03*
X192913D02*
D03*
X196063D02*
D03*
X199213D02*
D03*
X202362D02*
D03*
X205512D02*
D03*
X208661D02*
D03*
D47*
X170669Y70866D02*
D03*
Y74016D02*
D03*
Y77165D02*
D03*
Y80315D02*
D03*
Y83465D02*
D03*
Y86614D02*
D03*
Y89764D02*
D03*
Y92913D02*
D03*
Y96063D02*
D03*
Y99213D02*
D03*
Y102362D02*
D03*
X215158Y102362D02*
D03*
Y99213D02*
D03*
Y96063D02*
D03*
Y92913D02*
D03*
Y89764D02*
D03*
Y86614D02*
D03*
Y83465D02*
D03*
Y80315D02*
D03*
Y77165D02*
D03*
Y74016D02*
D03*
Y70866D02*
D03*
D48*
X124233Y139074D02*
D03*
X129233D02*
D03*
X134233D02*
D03*
X139233D02*
D03*
X144233D02*
D03*
X149233D02*
D03*
X154233D02*
D03*
X159233D02*
D03*
X124233Y175885D02*
D03*
X129233D02*
D03*
X134233D02*
D03*
X139233D02*
D03*
X144233D02*
D03*
X149233D02*
D03*
X154233D02*
D03*
X159233D02*
D03*
D49*
X307087Y152559D02*
D03*
X389370Y156004D02*
D03*
X311024Y95472D02*
D03*
X315945Y87598D02*
D03*
X307087Y141732D02*
D03*
D50*
X318898Y191732D02*
D03*
Y162598D02*
D03*
X346457Y191732D02*
D03*
Y162598D02*
D03*
D51*
X255709Y177165D02*
D03*
X248031D02*
D03*
X248228Y161417D02*
D03*
X255906D02*
D03*
X232283Y177165D02*
D03*
X239961D02*
D03*
X248031Y169291D02*
D03*
X255709D02*
D03*
X240158Y169291D02*
D03*
X232480D02*
D03*
X263779Y153543D02*
D03*
X271457D02*
D03*
X287402D02*
D03*
X279724D02*
D03*
X342520Y102362D02*
D03*
X334842D02*
D03*
X369882Y118110D02*
D03*
X362205D02*
D03*
X369882Y110236D02*
D03*
X362205D02*
D03*
X369882Y125984D02*
D03*
X362205D02*
D03*
X326772Y133858D02*
D03*
X319094D02*
D03*
X318898Y141732D02*
D03*
X326575D02*
D03*
X369882Y62992D02*
D03*
X362205D02*
D03*
X369882Y47244D02*
D03*
X362205D02*
D03*
X369882Y55118D02*
D03*
X362205D02*
D03*
X342520Y39370D02*
D03*
X334842D02*
D03*
X326772Y70866D02*
D03*
X319094D02*
D03*
X318898Y78740D02*
D03*
X326575D02*
D03*
X232283Y51181D02*
D03*
X239961D02*
D03*
X204724Y122047D02*
D03*
X197047D02*
D03*
X192913Y51181D02*
D03*
X200590D02*
D03*
X122244Y122047D02*
D03*
X129921D02*
D03*
X122244Y129921D02*
D03*
X129921D02*
D03*
D52*
X374016Y188386D02*
D03*
Y165945D02*
D03*
D53*
X295276Y169488D02*
D03*
Y177165D02*
D03*
Y153740D02*
D03*
Y161417D02*
D03*
X350394Y145669D02*
D03*
Y137992D02*
D03*
Y82677D02*
D03*
Y75000D02*
D03*
X303150Y114173D02*
D03*
Y106496D02*
D03*
Y122047D02*
D03*
Y129724D02*
D03*
X212598Y23819D02*
D03*
Y31496D02*
D03*
X204724Y31299D02*
D03*
Y23622D02*
D03*
X275590Y78937D02*
D03*
Y86614D02*
D03*
X307087Y78937D02*
D03*
Y86614D02*
D03*
X251969Y78937D02*
D03*
Y86614D02*
D03*
X283465Y78937D02*
D03*
Y86614D02*
D03*
X220472Y31496D02*
D03*
Y23819D02*
D03*
X141732Y39370D02*
D03*
Y47047D02*
D03*
X149606Y39567D02*
D03*
Y47244D02*
D03*
X133858Y47047D02*
D03*
Y39370D02*
D03*
X118110Y39567D02*
D03*
Y47244D02*
D03*
X125984Y47047D02*
D03*
Y39370D02*
D03*
X169291Y157283D02*
D03*
Y149606D02*
D03*
X141732Y82874D02*
D03*
Y90551D02*
D03*
Y66929D02*
D03*
Y74606D02*
D03*
Y106299D02*
D03*
Y98622D02*
D03*
X157480Y110236D02*
D03*
Y102559D02*
D03*
Y86614D02*
D03*
Y94291D02*
D03*
X196850Y31299D02*
D03*
Y23622D02*
D03*
X169291Y173228D02*
D03*
Y165551D02*
D03*
X188976Y23819D02*
D03*
Y31496D02*
D03*
X181102D02*
D03*
Y23819D02*
D03*
X173228D02*
D03*
Y31496D02*
D03*
X165354Y23819D02*
D03*
Y31496D02*
D03*
X70866Y208661D02*
D03*
Y216339D02*
D03*
D54*
X209350Y168799D02*
D03*
X223721D02*
D03*
Y177657D02*
D03*
X209350D02*
D03*
D55*
X201279Y173228D02*
D03*
X192421Y169488D02*
D03*
Y176969D02*
D03*
D56*
X320768Y118110D02*
D03*
X332776D02*
D03*
X320768Y55118D02*
D03*
X332776D02*
D03*
D57*
X338583Y135531D02*
D03*
Y147933D02*
D03*
Y72539D02*
D03*
Y84941D02*
D03*
D58*
X377953Y135925D02*
D03*
Y147539D02*
D03*
X362205Y147539D02*
D03*
Y135925D02*
D03*
Y84547D02*
D03*
Y72933D02*
D03*
X377953Y72933D02*
D03*
Y84547D02*
D03*
X82677Y218406D02*
D03*
Y206791D02*
D03*
X232283Y92618D02*
D03*
Y104232D02*
D03*
D59*
X291339Y63386D02*
D03*
X287008D02*
D03*
X282677D02*
D03*
X278346D02*
D03*
X274016D02*
D03*
X269685D02*
D03*
X265354D02*
D03*
X261024D02*
D03*
X257283D02*
D03*
D60*
X297441D02*
D03*
X253543Y46457D02*
D03*
D61*
Y22047D02*
D03*
D62*
Y5709D02*
D03*
D63*
X306693Y3937D02*
D03*
D64*
X242028Y62992D02*
D03*
X230413D02*
D03*
D65*
X84449Y8465D02*
D03*
Y15157D02*
D03*
X96653Y8465D02*
D03*
Y15157D02*
D03*
D66*
X120984Y74410D02*
D03*
X130984D02*
D03*
Y98819D02*
D03*
X120984D02*
D03*
D67*
X165787Y11812D02*
D03*
X175787D02*
D03*
X195787D02*
D03*
X215787D02*
D03*
X225787D02*
D03*
X205787D02*
D03*
X185787D02*
D03*
D68*
X235787D02*
D03*
D69*
X297087Y212598D02*
D03*
X268209Y216476D02*
D03*
X204232D02*
D03*
X189469D02*
D03*
X125492D02*
D03*
D70*
X317087Y212598D02*
D03*
D71*
X15748Y66929D02*
D03*
X94488D02*
D03*
Y185039D02*
D03*
X15748D02*
D03*
D72*
X70118Y190945D02*
D03*
X60118D02*
D03*
X50118D02*
D03*
X40118D02*
D03*
X35118Y64961D02*
D03*
X65118D02*
D03*
X55118D02*
D03*
X45118D02*
D03*
X75118D02*
D03*
D73*
X261221Y229980D02*
D03*
X211221D02*
D03*
X182480D02*
D03*
X132480D02*
D03*
D74*
X238228Y219980D02*
D03*
X234213Y212972D02*
D03*
X242244D02*
D03*
X230197Y219980D02*
D03*
X246260D02*
D03*
X226181Y212972D02*
D03*
X250276D02*
D03*
X159488Y219980D02*
D03*
X155472Y212972D02*
D03*
X163504D02*
D03*
X151457Y219980D02*
D03*
X167520D02*
D03*
X147441Y212972D02*
D03*
X171535D02*
D03*
D75*
X222165Y219980D02*
D03*
X143425D02*
D03*
D76*
X51181Y11811D02*
D03*
X346457D02*
D03*
Y228346D02*
D03*
X51181D02*
D03*
D77*
X142717Y9941D02*
D03*
X125000D02*
D03*
X147638Y19783D02*
D03*
X120079D02*
D03*
M02*
