M48
;Layer_Color=9474304
;FILE_FORMAT=2:5
INCH,LZ
;TYPE=PLATED
T1F00S00C0.01181
T2F00S00C0.03937
T3F00S00C0.04331
T4F00S00C0.05118
T5F00S00C0.05512
T6F00S00C0.06693
T7F00S00C0.13780
%
T01
X0041339Y0031496
X0037402Y0035433
X0033465Y003937
X0051181Y0070866
X0108268Y0068898
X0112205Y0072835
X0124016Y0068898
X0120079Y0064961
X011811Y0059055
X0127953Y0061024
Y0057087
X0150954Y005315
X0148721Y0050417
X0157988Y0048145
X0162114
X0187008Y0047244
Y005315
X0185039Y0041339
X0183071Y0009843
Y0003937
X0177165
X0179134Y0074803
X0173228
X0318898Y0034902
X0336614Y0035433
Y0041339
Y0029528
X0354331Y0025591
X0318898Y0005906
X0305118Y0003937
X0301181
Y0007874
X0387795Y0043307
X0391732Y0045276
X0393701Y0049213
Y0102362
Y0106299
X0389764
X0393701Y0165354
Y0169291
Y0190945
X0391732Y0194882
X0387795Y019685
X0362205Y0173228
X0370079Y0159449
Y0155512
X034252Y0159449
X0334646Y0151575
X0318898Y0161417
X0309055Y0153543
Y0147638
X030315Y0153543
X0278543Y0158071
X027559Y0161417
X0267717Y0163386
X0270177Y0167323
X0267717Y0179134
X0261811Y0159449
X0257874Y0155512
X0253937Y0151575
X0248031Y0145669
X0255906Y0139764
X0261811Y0141732
X0265748Y0145669
X0269685Y0149606
X0261811Y0124016
X0251969
X0240158Y0123917
X0242099Y0198819
X0249877Y0200787
X0253937
X0257382Y0200969
X0234154Y0195768
X030315Y0094488
Y0086614
Y007874
X0352362Y0086614
X036811Y0106299
X0358268Y0124016
X0350394Y0135827
X0228346Y0129921
X0212598Y0124016
X0190571Y0131102
X0190945Y0147637
X0179134Y0151575
X016839Y0155512
X0168619Y0171555
X0185039Y017126
Y0179134
X0220472Y0173228
X022441
X0221036Y019252
X0226378Y0194587
X0216535Y0188976
X0143701Y0169291
X0139764Y0173228
X0127953Y0175197
X0122047
X011811Y0179134
X0120079Y0192913
X0124016Y0188976
X0127953Y0185039
X0104331Y0194882
Y0200787
X0110236Y0159449
X0106299Y0155512
X0102362Y0151575
X0088583Y0149606
Y0141732
Y0133858
Y0125984
X0102362Y0127953
Y0133858
X0112205Y0116142
X011811
X0135236Y0112303
X0133858Y0102362
X0135827Y009252
X0143701Y0098425
X0155512Y0086614
Y0080709
X0149606
X0129921
X0116142Y0076772
X0173228Y0088583
X0188976Y0100394
Y0106299
Y0112205
X0179134Y0116142
X0169291Y0124016
X0142913Y0123917
X0151575Y0133858
X0153543Y0137795
X0149606Y0149606
Y0155512
X0145669Y0153543
Y0159449
X0005906Y013189
Y011811
Y0104331
X0003937Y0192913
X0007874Y019685
X0072835Y0236221
X0084646
X0094488
X0106299
T02
X0056299Y0035433
X0066299
X0076299
X0086299
X0096299
X0106299
X0104488Y0015748
X0094488
X0084488
X0140748Y0011811
X0158465
X0316929Y0114173
X0336614
X0360236Y0080709
X0379921
X025013Y0210323
X0242099
X0234067
X0238083Y0217331
X0246115
X0230052
X022202
X0226036Y0210323
X0175327
X0167296
X0159264
X0151233
X0155248Y0217331
X016328
X0171311
X0147217
X0059055Y0198819
X0049055
X0039055
T03
X003315Y0055118
X004315
X005315
X006315
X007315
X006815Y0181102
X005815
X004815
X003815
T04
X0135807Y0021614
X0163406
T05
X0294961Y0208661
X0314961
T06
X0268123Y0213827
X0204107
X0193319
X0129304
T07
X0051181Y0011811
X001378Y0057087
X009252
X0346457Y0011811
Y0228346
X009252Y0175197
X001378
X0051181Y0228346
M30
